<?xml version="1.0" standalone="no"?>
<svg viewBox="0 0 200 200" xmlns="http://www.w3.org/2000/svg">
  <path fill="#D9A73A" d="M45.4,-80.1C58.2,-71.3,67.4,-57.7,74,-43.6C80.6,-29.5,84.5,-14.7,86.2,1C87.8,16.6,87.2,33.3,80.5,47.2C73.8,61.1,61,72.3,46.6,79.8C32.2,87.2,16.1,90.8,-0.2,91.2C-16.5,91.5,-33,88.6,-47.2,81.1C-61.4,73.6,-73.4,61.4,-81.3,47.1C-89.3,32.8,-93.2,16.4,-92,0.7C-90.9,-15,-84.5,-30.1,-76.2,-43.7C-67.8,-57.3,-57.5,-69.5,-44.5,-78.2C-31.4,-86.8,-15.7,-91.9,0.3,-92.4C16.3,-92.9,32.6,-88.9,45.4,-80.1Z" transform="translate(100 100)" />
</svg>
