<?xml version="1.0" standalone="no"?>
<!DOCTYPE svg PUBLIC "-//W3C//DTD SVG 20010904//EN"
 "http://www.w3.org/TR/2001/REC-SVG-20010904/DTD/svg10.dtd">
<svg version="1.0" xmlns="http://www.w3.org/2000/svg"
 width="1787.000000pt" height="1768.000000pt" viewBox="0 0 1787.000000 1768.000000"
 preserveAspectRatio="xMidYMid meet">

<g transform="translate(0.000000,1768.000000) scale(0.100000,-0.100000)"
fill="hsl(224, 59%, 37%)" stroke="none">
<path d="M11529 14024 c-6 -8 -17 -14 -24 -14 -7 0 -18 -6 -24 -14 -9 -10 -8
-15 4 -20 8 -3 15 -12 15 -20 0 -12 18 -16 88 -18 l87 -3 -2 -35 c-1 -19 -5
-62 -9 -95 -12 -96 -6 -206 11 -223 6 -6 63 -7 70 -1 4 5 5 37 3 129 -1 30 3
78 8 105 4 28 9 66 9 87 0 20 3 34 6 32 16 -10 139 -7 152 4 8 7 12 23 9 42
-3 25 -11 31 -41 39 -42 11 -27 10 -208 14 -112 3 -145 1 -154 -9z"/>
<path d="M12069 14006 c0 -1 -2 -10 -3 -21 -2 -11 -17 -77 -35 -147 -49 -198
-40 -278 27 -263 32 7 38 19 32 69 -1 10 1 29 4 42 6 24 9 25 79 20 40 -2 76
-5 80 -5 5 -1 5 -5 2 -11 -3 -5 -8 -34 -10 -64 -5 -59 5 -75 43 -72 31 3 39
14 45 66 3 25 8 59 11 75 3 17 8 68 11 114 4 47 11 95 16 108 14 37 11 53 -11
53 -11 0 -20 5 -20 10 0 6 -11 3 -25 -7 -13 -10 -23 -22 -21 -28 2 -5 -1 -19
-7 -30 -5 -11 -12 -40 -14 -64 -2 -25 -5 -46 -7 -48 -2 -2 -35 0 -75 3 -67 6
-71 8 -65 28 18 55 29 136 23 155 -6 16 -16 20 -44 19 -19 -1 -35 -2 -36 -2z"/>
<path d="M10727 13976 c-15 -6 -27 -14 -27 -19 0 -4 -4 -6 -9 -3 -18 11 -102
-96 -87 -111 3 -3 1 -14 -5 -24 -5 -11 -6 -19 -1 -19 5 0 10 -12 10 -26 0 -40
34 -77 91 -98 l52 -19 80 27 c109 35 117 35 116 -10 -1 -30 -7 -40 -31 -55
-19 -11 -39 -16 -51 -12 -30 9 -125 12 -125 3 0 -4 7 -23 15 -43 11 -26 24
-38 50 -47 66 -22 180 7 211 55 19 29 37 131 30 171 -5 22 -15 35 -35 43 -43
19 -121 15 -181 -8 -62 -24 -86 -26 -115 -8 -28 17 -29 35 -3 73 27 39 56 54
103 54 19 0 36 4 40 10 3 5 11 7 19 4 14 -5 18 16 10 54 -4 21 -9 23 -67 20
-35 -2 -75 -7 -90 -12z"/>
<path d="M10350 13783 c0 -7 -7 -13 -15 -13 -23 0 -18 -14 28 -84 24 -36 59
-100 77 -143 68 -164 71 -169 96 -168 50 3 60 28 35 90 -6 17 -17 44 -23 60
-7 17 -15 32 -20 35 -4 3 -9 15 -11 25 -4 23 -37 94 -52 112 -5 7 -16 19 -23
28 -7 8 -10 15 -7 15 2 0 -5 11 -17 25 -23 27 -48 33 -48 13 0 -9 -4 -8 -10 2
-6 10 -10 11 -10 3z"/>
<path d="M12543 13732 c-23 -10 -55 -34 -72 -56 -43 -54 -89 -155 -97 -213 -3
-26 -8 -51 -10 -54 -8 -14 26 -30 57 -27 28 3 34 8 43 43 8 26 14 36 19 28 5
-7 28 -13 52 -13 40 0 43 -2 37 -22 -3 -12 -11 -33 -17 -45 -19 -37 -13 -76
14 -90 38 -18 56 -2 91 84 18 43 35 80 39 83 8 7 15 83 13 150 -1 69 -3 80
-14 80 -4 0 -8 6 -8 14 0 7 -10 20 -22 28 -37 24 -80 27 -125 10z m77 -102 c8
-14 8 -32 0 -61 l-11 -40 -47 7 c-26 3 -48 8 -50 9 -6 5 28 65 49 86 24 24 45
24 59 -1z"/>
<path d="M12843 13643 c-7 -2 -9 -11 -6 -19 3 -8 0 -14 -6 -14 -20 0 -11 -28
15 -49 15 -12 41 -21 61 -21 28 0 33 -3 29 -17 -3 -10 -10 -40 -16 -68 -6 -27
-21 -81 -33 -119 -17 -52 -19 -70 -9 -73 6 -3 12 -12 12 -21 0 -11 8 -17 25
-17 14 0 25 4 25 8 0 5 4 6 8 3 8 -5 47 120 72 229 9 43 14 50 33 50 13 -1 28
-4 33 -8 11 -6 37 -12 110 -23 35 -5 46 -2 63 15 28 28 27 32 -16 59 -38 24
-109 43 -258 67 -49 9 -99 17 -110 19 -11 2 -25 2 -32 -1z"/>
<path d="M7014 13456 c-36 -38 -80 -64 -149 -91 -24 -10 -22 -9 -67 -18 -24
-5 -44 -19 -62 -41 l-25 -34 13 -88 c7 -49 38 -165 69 -259 54 -167 67 -212
127 -430 17 -60 37 -126 44 -145 8 -19 45 -129 81 -245 37 -115 76 -228 86
-249 10 -22 19 -45 19 -51 0 -7 12 -18 28 -26 15 -7 30 -15 33 -17 4 -1 13 3
20 11 12 12 167 75 227 92 12 4 30 18 39 31 15 23 14 27 -10 72 -43 79 -85
194 -133 365 -25 89 -48 169 -51 177 -3 8 -7 22 -8 30 -3 22 -40 188 -70 315
-21 87 -72 335 -89 425 -1 8 -5 31 -9 50 -8 41 -15 88 -16 111 -1 16 -37 60
-49 58 -4 -1 -25 -20 -48 -43z m56 -318 c104 -529 229 -998 306 -1150 l24 -48
-27 -6 c-16 -4 -37 -13 -48 -20 -11 -8 -41 -15 -66 -17 l-46 -4 -53 161 c-29
89 -59 181 -66 206 -7 25 -25 77 -40 115 -15 39 -39 120 -55 180 -48 186 -78
291 -115 398 -50 143 -63 193 -66 250 l-3 49 55 18 c30 10 77 30 105 44 27 14
51 24 53 21 2 -2 21 -91 42 -197z"/>
<path d="M9713 13413 c-9 -15 -22 -31 -28 -35 -5 -4 -6 -8 -1 -8 5 0 3 -7 -4
-15 -7 -8 -9 -15 -5 -15 4 0 0 -10 -8 -23 -8 -13 -21 -42 -28 -65 -14 -49 -24
-52 -51 -17 -23 29 -48 33 -48 8 0 -15 -2 -16 -10 -3 -8 12 -10 9 -10 -12 0
-30 36 -103 72 -146 13 -16 50 -67 83 -115 44 -63 65 -86 78 -83 9 2 17 -1 17
-6 0 -6 6 -5 15 2 8 7 12 17 8 23 -3 5 -1 7 5 3 6 -3 13 -2 17 4 6 10 -17 53
-49 87 -63 67 -67 83 -23 83 18 1 48 3 67 5 19 2 65 7 103 10 39 4 65 11 61
16 -3 6 0 17 8 26 10 13 10 17 0 20 -6 3 -10 8 -7 13 3 5 -8 11 -24 15 -31 7
-217 -2 -232 -11 -17 -10 -9 17 31 118 37 92 44 138 20 138 -5 0 -15 3 -23 6
-10 3 -22 -5 -34 -23z"/>
<path d="M5634 13342 c-104 -79 -178 -128 -216 -143 -16 -6 -28 -15 -28 -20 0
-5 -6 -9 -14 -9 -7 0 -29 -11 -49 -24 -19 -13 -39 -21 -43 -18 -4 4 -4 1 0 -5
4 -7 2 -13 -3 -13 -31 0 -4 -85 90 -278 38 -78 69 -146 69 -151 0 -5 11 -28
24 -52 14 -24 32 -68 41 -96 10 -29 21 -53 26 -53 5 0 9 -9 9 -20 0 -11 9 -39
19 -62 41 -91 51 -116 51 -130 0 -7 8 -26 18 -43 10 -16 29 -64 42 -105 13
-41 27 -77 30 -80 3 -3 6 -14 8 -25 2 -11 10 -33 18 -49 8 -16 14 -36 14 -44
0 -12 69 -226 87 -272 4 -8 7 -17 8 -20 2 -10 46 -97 68 -136 13 -22 21 -46
19 -52 -2 -7 4 -12 13 -12 9 0 14 -4 11 -8 -12 -20 64 -4 109 24 28 16 85 45
127 64 43 19 76 40 74 45 -1 6 4 15 13 22 14 10 11 16 -25 50 -38 35 -54 65
-104 198 -16 43 -51 151 -54 171 -2 11 -17 56 -32 100 -15 43 -28 86 -29 94
-1 8 -17 62 -36 120 -18 58 -34 112 -35 120 -1 8 -14 56 -28 105 -15 50 -29
104 -31 120 -3 17 -9 41 -14 55 -11 27 -41 143 -46 175 -2 11 -8 52 -15 90 -6
39 -13 81 -14 95 -2 14 -6 41 -10 60 -3 19 -8 55 -10 80 -13 130 -18 155 -41
177 l-22 21 -89 -66z m53 -120 c16 -164 59 -389 113 -592 43 -165 44 -167 53
-190 4 -8 16 -53 27 -100 21 -81 51 -182 120 -390 17 -52 32 -100 34 -107 1
-7 5 -16 9 -19 4 -4 7 -15 7 -24 0 -17 66 -177 80 -195 5 -6 -19 -25 -60 -47
l-68 -38 -41 75 c-23 41 -41 80 -41 87 0 7 -6 25 -14 39 -11 22 -17 40 -32 94
-8 31 -55 178 -72 225 -46 129 -61 171 -75 202 -8 18 -31 76 -52 128 -60 157
-134 324 -237 539 -70 146 -70 146 -49 165 10 9 20 16 24 16 11 0 191 112 226
141 39 32 44 31 48 -9z"/>
<path d="M8394 13354 c-32 -33 -99 -70 -116 -66 -5 1 -8 -2 -8 -8 0 -5 -5 -10
-11 -10 -6 0 -38 -17 -71 -37 -79 -49 -89 -73 -90 -217 0 -61 1 -113 2 -116 1
-3 3 -23 5 -45 1 -22 5 -56 8 -75 3 -19 8 -55 11 -80 10 -73 18 -144 21 -165
1 -11 5 -43 9 -71 4 -27 9 -66 11 -85 4 -38 9 -73 30 -231 7 -59 14 -115 14
-125 0 -16 2 -35 17 -143 2 -19 6 -53 9 -75 2 -22 5 -40 5 -40 1 0 3 -9 5 -20
1 -11 6 -38 10 -60 4 -22 8 -46 8 -52 0 -7 3 -13 7 -13 3 0 7 -10 8 -22 2 -30
9 -73 12 -73 1 0 3 -9 5 -20 6 -35 37 -160 41 -164 7 -7 127 -1 138 8 6 4 39
7 73 7 33 -1 59 2 56 7 -2 4 3 7 12 7 8 0 18 7 21 15 4 8 12 15 19 15 16 0 29
35 19 52 -4 6 -8 23 -10 37 -1 14 -4 40 -7 56 -3 17 -8 73 -12 125 -3 52 -10
124 -15 160 -5 36 -12 94 -15 130 -5 65 -10 105 -20 170 -2 19 -7 56 -10 82
-3 26 -7 62 -10 80 -2 18 -7 58 -10 88 -3 30 -7 71 -9 90 -3 19 -7 67 -11 105
-3 39 -8 84 -10 100 -2 17 -7 66 -10 110 -9 133 -15 208 -20 260 -2 28 -7 93
-10 145 -7 109 -14 170 -20 180 -3 4 -14 10 -25 13 -15 4 -31 -5 -56 -29z m13
-150 c1 -16 5 -54 7 -84 3 -30 7 -95 10 -145 9 -139 14 -216 20 -265 3 -25 8
-76 11 -115 4 -38 9 -83 11 -100 2 -16 6 -52 9 -80 5 -64 16 -154 21 -179 3
-19 9 -64 20 -176 6 -57 11 -97 19 -140 2 -14 7 -56 10 -95 3 -38 7 -88 10
-110 2 -22 7 -71 10 -110 3 -38 8 -89 11 -112 5 -40 4 -43 -18 -44 -13 0 -32
-2 -43 -4 -11 -2 -41 -6 -66 -8 l-45 -5 -23 111 c-13 62 -25 123 -27 136 -3
14 -7 27 -9 30 -3 7 -34 208 -39 262 -2 19 -6 52 -9 74 -4 22 -9 72 -12 110
-3 39 -15 133 -26 210 -10 77 -22 160 -25 185 -7 60 -14 109 -20 140 -2 14 -6
52 -9 85 -3 33 -8 79 -11 103 -7 57 -7 217 0 240 6 19 183 122 201 118 6 -2
11 -16 12 -32z"/>
<path d="M11376 13223 c-2 -2 -29 -6 -61 -8 -31 -3 -76 -10 -99 -17 -22 -6
-47 -12 -54 -14 -7 -1 -41 -16 -76 -32 -77 -36 -139 -93 -129 -118 4 -10 2
-15 -4 -11 -5 3 -10 0 -10 -8 0 -8 5 -15 11 -16 6 0 23 -2 39 -4 19 -3 30 2
38 16 5 11 14 17 19 14 5 -3 15 3 22 15 7 11 16 20 20 20 4 0 32 11 62 25 30
14 63 26 73 28 10 1 23 6 29 10 18 11 166 20 289 19 94 -1 190 -7 190 -12 0
-1 16 -3 35 -4 19 -2 42 -5 50 -9 8 -3 29 -8 45 -12 70 -14 81 -17 95 -22 17
-6 30 -10 80 -19 19 -4 40 -13 48 -20 7 -7 31 -19 52 -25 22 -7 40 -16 40 -21
0 -4 9 -8 20 -8 11 0 20 -4 20 -10 0 -5 8 -10 18 -10 9 0 26 -7 36 -15 11 -8
26 -15 33 -15 8 0 23 -8 34 -19 11 -10 37 -27 59 -37 22 -10 40 -22 40 -26 0
-5 5 -8 11 -8 6 0 16 -6 23 -12 7 -7 32 -28 55 -47 22 -19 41 -43 41 -53 0
-10 4 -18 10 -18 5 0 19 -23 31 -51 19 -44 26 -50 46 -46 12 2 23 1 23 -3 0
-4 7 -7 15 -7 10 0 13 6 9 19 -3 10 -1 18 5 18 15 0 14 16 -1 32 -12 12 -16
23 -21 52 -5 28 -163 186 -186 186 -6 0 -11 3 -11 8 0 4 -15 14 -32 22 -18 7
-42 22 -52 32 -11 10 -28 18 -38 18 -10 0 -18 5 -18 10 0 6 -9 10 -20 10 -11
0 -20 3 -20 8 0 8 -73 42 -90 42 -6 0 -10 4 -10 9 0 5 -10 11 -22 14 -41 10
-123 40 -128 47 -5 7 -68 23 -100 26 -8 1 -24 4 -35 9 -49 18 -73 24 -120 30
-27 4 -63 9 -80 11 -40 5 -344 11 -349 7z"/>
<path d="M13470 13108 c-65 -50 -181 -183 -184 -211 -2 -18 4 -28 21 -36 32
-15 63 -14 63 2 0 18 152 167 170 167 9 0 11 -3 5 -8 -5 -4 -11 -16 -13 -27
-7 -45 -23 -95 -35 -107 -37 -40 -48 -58 -57 -87 -8 -30 -7 -33 25 -48 l35
-16 57 56 c56 54 139 116 156 117 31 1 -64 -139 -163 -239 -59 -59 -79 -86
-77 -102 4 -23 32 -49 54 -49 17 0 134 119 195 197 51 66 78 120 84 168 8 62
10 115 5 123 -8 12 -90 22 -96 12 -3 -4 -17 -11 -31 -14 -15 -4 -33 -14 -41
-22 -22 -22 -24 -14 -13 44 12 66 -2 102 -39 103 -14 0 -38 3 -52 5 -19 3 -39
-5 -69 -28z"/>
<path d="M10682 13098 c-18 -18 -15 -52 8 -81 32 -41 5 -42 -44 -2 -44 36 -45
36 -75 20 -37 -19 -38 -23 -8 -55 74 -85 270 -191 259 -141 -2 9 3 11 15 6 33
-13 53 -14 59 -3 5 7 2 8 -6 3 -8 -5 -11 -4 -6 3 4 6 13 9 21 5 36 -13 10 35
-47 92 -70 67 -128 137 -128 154 0 15 -33 14 -48 -1z m41 -132 c4 -10 1 -13
-9 -9 -15 6 -19 23 -5 23 5 0 11 -7 14 -14z"/>
<path d="M9305 12998 c-43 -15 -56 -28 -76 -73 -39 -89 -21 -214 38 -273 15
-15 104 -42 140 -42 43 0 81 46 107 131 36 118 22 190 -47 243 -37 28 -105 34
-162 14z m132 -122 c14 -31 14 -38 -2 -89 -22 -70 -43 -91 -77 -78 -48 18 -75
91 -57 156 6 22 19 34 46 46 46 19 68 11 90 -35z"/>
<path d="M10440 12913 c0 -10 -5 -24 -11 -30 -8 -8 -4 -15 12 -27 13 -9 29
-16 36 -16 7 0 45 -13 85 -29 87 -33 145 -44 155 -28 3 6 1 13 -6 15 -9 3 -9
7 0 18 7 9 8 18 3 23 -5 5 -62 25 -126 45 -65 20 -124 39 -133 42 -10 4 -15 0
-15 -13z"/>
<path d="M10318 12783 c-11 -10 -18 -13 -18 -5 0 13 -27 2 -62 -26 -9 -8 -21
-11 -27 -8 -5 4 -15 -3 -21 -14 -6 -11 -15 -20 -20 -20 -14 0 -79 -72 -80 -87
0 -7 -3 -13 -7 -13 -8 0 -35 -61 -49 -110 -3 -14 -10 -27 -13 -30 -6 -4 -50
-162 -67 -240 -5 -25 -6 -31 -20 -130 -4 -30 -15 -74 -26 -98 -22 -53 -22 -53
-3 -46 8 4 15 4 15 2 0 -7 -108 -229 -120 -248 -75 -117 -119 -236 -124 -333
-4 -72 -2 -85 22 -130 15 -27 48 -68 73 -91 l47 -42 1 -74 c1 -81 14 -133 40
-159 21 -21 66 -41 91 -41 15 0 20 -7 20 -29 0 -40 51 -103 111 -136 30 -16
51 -15 71 6 13 13 14 18 2 34 -8 10 -14 16 -14 12 0 -3 -20 13 -44 38 -54 53
-52 70 10 135 52 53 68 95 60 158 -3 26 -6 56 -6 67 -1 19 -31 55 -48 55 -4 0
-17 -7 -28 -16 -10 -8 -12 -12 -4 -8 12 6 13 5 3 -7 -9 -11 -11 -36 -6 -81 6
-72 4 -78 -50 -137 -41 -45 -37 -46 -98 11 -23 21 -29 36 -30 70 -5 140 9 176
80 213 49 24 91 66 91 91 0 7 4 14 10 16 5 2 11 14 14 28 2 14 5 25 6 25 3 0
11 42 15 85 2 25 7 65 10 90 4 25 9 61 11 80 3 19 7 47 10 62 7 33 -4 71 -17
63 -5 -4 -9 -2 -9 3 0 12 -48 3 -58 -12 -4 -6 -7 -40 -8 -76 -1 -72 -20 -225
-34 -281 -14 -51 -43 -84 -89 -102 -22 -9 -52 -32 -67 -51 l-28 -35 -33 35
c-37 41 -56 91 -50 131 17 102 29 131 114 280 13 24 24 46 24 50 1 5 11 26 22
48 12 22 21 42 22 45 0 3 19 43 42 90 39 81 54 117 51 123 -1 1 4 13 11 26 7
13 14 33 16 45 2 11 7 35 10 51 4 17 8 48 9 70 2 22 4 45 6 50 2 6 0 18 -5 28
-8 20 33 197 46 197 5 0 9 7 9 16 0 32 35 89 86 140 46 47 66 59 114 72 28 7
110 1 110 -9 0 -4 9 -5 20 -2 11 3 20 0 20 -6 0 -6 9 -11 19 -11 24 0 34 -25
18 -42 -7 -7 -28 -33 -47 -58 -19 -25 -37 -47 -40 -50 -12 -10 -60 -118 -60
-133 0 -10 -4 -17 -9 -17 -5 0 -13 -15 -16 -32 -4 -18 -12 -44 -17 -58 -5 -14
-9 -26 -9 -27 1 -2 -8 -12 -18 -22 -11 -11 -22 -41 -26 -68 -4 -26 -14 -73
-22 -103 -26 -92 -33 -208 -15 -240 l16 -28 28 21 c24 18 28 28 28 70 0 53 39
230 52 235 5 2 8 13 8 25 0 12 7 31 15 41 8 11 13 28 9 38 -3 10 -1 18 4 18 5
0 13 15 17 33 4 17 9 37 10 44 8 31 89 182 97 177 4 -3 11 3 15 13 4 10 17 28
30 40 13 12 23 26 23 30 0 9 67 84 75 83 21 -1 25 1 20 10 -8 13 -84 50 -102
50 -8 0 -12 4 -9 8 3 5 -20 18 -52 28 -31 10 -59 21 -62 24 -3 3 -32 7 -65 8
-47 3 -64 -1 -77 -15z"/>
<path d="M12901 12712 c-41 -4 -131 -89 -155 -146 -8 -20 -20 -36 -25 -36 -6
0 -11 -10 -11 -22 0 -12 3 -18 7 -15 3 4 12 -2 20 -13 24 -33 50 -25 71 23 24
55 74 111 111 127 33 13 49 54 29 73 -7 7 -28 11 -47 9z"/>
<path d="M13801 12612 c-25 -26 -74 -82 -109 -125 -92 -112 -89 -133 36 -230
53 -40 82 -54 82 -37 0 4 9 6 20 3 18 -5 20 -1 16 28 -3 19 -5 37 -5 41 -1 8
-55 59 -87 83 -18 13 -18 14 0 34 25 27 30 27 64 -6 45 -43 66 -58 100 -75 27
-14 33 -14 43 -2 6 8 8 14 3 14 -4 0 1 6 11 14 18 13 17 16 -30 59 -28 25 -63
57 -80 71 l-30 25 23 23 23 23 28 -34 c31 -38 91 -61 131 -51 20 5 25 12 25
38 0 27 -5 34 -30 42 -16 6 -45 31 -64 55 -57 73 -106 75 -170 7z"/>
<path d="M13038 12615 c-26 -6 -49 -11 -50 -9 -7 6 -153 -72 -156 -84 -2 -7 2
-11 10 -10 8 2 12 -4 10 -14 -4 -24 2 -23 131 18 61 20 118 38 125 40 6 2 12
11 12 19 0 10 -5 13 -12 9 -10 -6 -10 -4 0 8 22 27 -13 38 -70 23z"/>
<path d="M14284 12456 c-3 -9 -9 -14 -13 -11 -4 2 -8 -1 -8 -8 0 -7 -4 -20 -8
-29 -5 -14 -2 -18 15 -18 11 0 18 -4 15 -10 -5 -9 27 -15 60 -11 16 1 82 -61
89 -85 18 -58 -40 -83 -200 -88 -109 -3 -152 -15 -138 -37 3 -5 0 -9 -5 -9 -6
0 -11 -7 -11 -15 0 -8 -5 -15 -11 -15 -5 0 -7 -4 -4 -10 3 -5 1 -10 -4 -10 -6
0 -11 -6 -11 -13 0 -7 -9 -23 -20 -35 -12 -12 -18 -22 -14 -22 3 0 1 -7 -6
-15 -10 -12 -9 -16 6 -22 11 -4 24 -13 29 -21 15 -19 58 17 86 73 26 51 39 56
150 53 68 -2 83 1 143 31 64 31 113 82 100 103 -3 4 -1 8 4 8 12 0 11 32 -2
49 -9 12 -8 13 2 7 38 -23 -40 80 -90 120 -51 41 -145 65 -154 40z"/>
<path d="M12851 12399 c-29 -18 -32 -23 -30 -67 1 -26 9 -63 17 -82 8 -19 16
-37 17 -40 11 -32 18 -47 26 -60 5 -8 12 -22 16 -30 4 -8 13 -21 20 -28 7 -7
13 -20 13 -28 0 -8 4 -14 9 -14 5 0 19 -19 30 -42 11 -24 37 -60 56 -81 19
-21 33 -42 31 -46 -3 -4 9 -16 25 -26 16 -11 29 -25 29 -32 0 -6 3 -13 8 -15
10 -5 52 -66 52 -77 0 -9 59 -105 80 -128 5 -7 10 -17 10 -23 0 -5 5 -10 10
-10 6 0 19 -8 28 -17 28 -28 37 -52 69 -170 2 -7 5 -19 6 -25 2 -7 7 -26 12
-43 4 -16 11 -34 16 -40 4 -5 10 -30 14 -55 6 -40 7 -59 4 -127 -2 -43 -44
-190 -61 -215 -10 -14 -18 -31 -18 -37 0 -6 -4 -11 -10 -11 -5 0 -10 -6 -10
-13 0 -20 -60 -77 -81 -77 -11 0 -19 -7 -19 -15 0 -7 -7 -18 -16 -23 -14 -8
-12 -12 14 -31 23 -16 36 -19 54 -12 12 5 26 8 30 7 4 0 17 13 30 30 13 17 30
38 38 47 30 32 38 44 44 65 4 12 13 28 20 34 12 13 58 138 61 168 1 8 5 35 10
60 15 81 6 167 -25 235 -9 21 -24 81 -25 101 0 6 -5 18 -12 25 -6 8 -13 28
-15 44 -4 34 -47 115 -61 115 -17 0 -120 147 -112 160 3 4 -2 13 -10 20 -8 7
-15 19 -15 27 0 7 -7 16 -15 19 -8 4 -15 11 -15 18 0 6 -22 35 -50 64 -27 29
-50 57 -50 63 0 5 -7 12 -15 15 -8 4 -15 12 -15 19 0 7 -7 18 -15 25 -9 7 -13
15 -11 18 3 2 -10 24 -29 47 -19 23 -35 47 -35 54 0 11 -16 44 -36 71 -16 22
-38 102 -35 125 2 11 8 23 13 26 15 9 3 35 -20 48 -14 7 -27 5 -51 -10z"/>
<path d="M12555 12342 c-13 -14 -2 -75 22 -117 16 -30 29 -72 34 -114 8 -79
18 -124 27 -131 4 -3 8 -16 9 -30 1 -14 4 -36 8 -50 4 -14 9 -41 11 -60 3 -21
15 -44 31 -57 29 -26 52 -31 33 -8 -10 13 -9 15 9 15 20 0 21 4 17 48 -7 63
-14 96 -28 129 -6 16 -11 45 -9 65 2 34 -37 166 -62 213 -6 11 -10 23 -9 28 1
4 -2 7 -7 7 -5 0 -11 13 -14 29 -5 23 -12 30 -37 33 -16 3 -32 2 -35 0z"/>
<path d="M12455 11881 c3 -6 -1 -13 -8 -18 -11 -7 -11 -28 0 -133 12 -116 10
-291 -4 -314 -4 -5 3 -7 15 -4 16 5 22 1 23 -10 0 -11 2 -12 6 -4 2 6 11 12
18 12 15 0 29 28 26 53 -1 9 2 17 6 17 5 0 8 16 8 35 -1 19 2 35 7 35 5 0 7 4
4 8 -3 5 -8 46 -11 92 -3 46 -7 86 -9 89 -2 3 -7 30 -10 60 -4 35 -13 61 -26
73 -20 18 -56 25 -45 9z"/>
<path d="M13853 11884 c-25 -11 -9 -83 22 -106 15 -11 65 -10 65 2 0 6 9 10
20 10 11 0 23 7 27 16 7 19 -14 61 -36 69 -24 9 -84 15 -98 9z"/>
<path d="M7372 11610 c-46 -16 -68 -54 -41 -71 11 -7 11 -9 -2 -9 -30 0 -49
-34 -49 -86 0 -43 4 -68 21 -134 6 -22 61 -80 91 -96 33 -17 103 -18 147 -3
50 17 81 75 81 148 0 75 -17 157 -37 176 -8 8 -11 15 -6 15 19 0 -70 70 -90
71 -12 0 -33 1 -47 2 -14 1 -44 -5 -68 -13z m127 -104 c48 -52 40 -223 -12
-220 -9 1 -26 2 -36 3 -36 2 -77 54 -79 101 -2 24 -4 47 -5 52 -1 6 7 15 18
21 28 17 36 29 31 49 -8 33 50 29 83 -6z"/>
<path d="M10411 11541 c-41 -11 -69 -76 -67 -159 2 -86 11 -98 83 -108 47 -6
52 -4 64 17 18 33 21 45 25 118 5 97 -36 149 -105 132z"/>
<path d="M11194 11483 c-65 -65 -55 -181 22 -235 35 -25 38 -26 69 -11 25 12
36 27 50 69 16 46 16 59 5 99 -22 79 -102 122 -146 78z"/>
<path d="M13037 11449 c-10 -11 -16 -27 -13 -35 3 -8 0 -14 -6 -14 -6 0 -4 -8
5 -18 10 -10 17 -23 17 -29 0 -6 7 -16 15 -23 8 -6 14 -15 13 -18 -1 -4 7 -25
17 -47 10 -22 20 -58 23 -80 2 -22 7 -42 11 -45 3 -3 6 -16 5 -30 0 -14 3 -33
8 -42 6 -12 5 -18 -2 -18 -7 0 -8 -6 -1 -18 14 -27 7 -159 -13 -224 -19 -62
-49 -108 -72 -108 -8 0 -14 -4 -14 -10 0 -5 -9 -14 -19 -20 -19 -10 -19 -9 -5
17 7 16 14 34 14 41 0 6 4 12 8 12 4 0 9 14 10 32 2 18 11 66 21 108 10 41 19
91 19 110 0 19 1 46 2 60 0 14 -2 54 -5 90 -3 36 -6 73 -6 83 0 22 -47 69 -60
61 -5 -3 -9 -12 -9 -20 0 -8 -6 -14 -14 -14 -15 0 -14 -27 2 -92 7 -27 7 -38
-2 -38 -7 0 -7 -3 -1 -8 10 -7 15 -72 5 -72 -3 0 -5 -19 -6 -42 -2 -68 -12
-141 -21 -147 -5 -3 -8 -16 -7 -28 1 -13 -2 -23 -7 -23 -5 0 -6 -7 -3 -15 4
-8 2 -15 -4 -15 -6 0 -8 -9 -5 -20 3 -11 0 -20 -6 -20 -6 0 -10 -4 -9 -8 4
-12 -64 -132 -74 -132 -4 0 -21 -29 -38 -65 -17 -36 -35 -65 -41 -65 -6 0 -8
-4 -5 -9 3 -5 -7 -14 -22 -20 -15 -6 -41 -23 -56 -36 -16 -14 -32 -25 -36 -25
-15 0 -17 -36 -3 -49 12 -11 20 -11 46 0 72 29 163 102 151 121 -3 4 -1 8 5 8
5 0 20 17 32 38 13 20 29 41 36 45 7 4 13 15 13 23 0 9 8 14 18 13 9 -1 28 2
42 8 14 6 39 16 56 23 18 6 48 26 68 44 19 18 37 31 39 29 3 -2 10 11 17 29 6
18 18 45 26 59 21 40 35 235 21 300 -3 15 -8 53 -12 85 -4 33 -12 65 -18 73
-6 7 -13 24 -15 38 -1 14 -10 36 -18 49 -9 12 -15 25 -15 29 1 3 -5 18 -13 33
-8 15 -17 44 -21 65 -6 29 -12 37 -29 37 -12 0 -30 -9 -39 -21z"/>
<path d="M12060 11331 c-23 -6 -25 -11 -23 -61 1 -30 4 -71 8 -90 8 -40 55
-128 97 -182 60 -76 46 -152 -42 -223 -33 -28 -60 -53 -60 -57 0 -5 -7 -8 -15
-8 -8 0 -15 -3 -15 -7 0 -5 -14 -22 -30 -40 -17 -18 -30 -37 -30 -42 0 -6 -4
-11 -8 -11 -12 0 -32 -93 -27 -120 5 -26 52 -90 66 -90 5 0 8 -4 6 -8 -3 -10
66 -76 85 -80 7 -2 15 -8 18 -13 3 -4 17 -10 30 -11 23 -3 25 0 24 37 -1 23
-7 41 -15 43 -8 3 -40 31 -71 63 -76 76 -77 105 -6 188 15 17 29 31 31 31 2 0
23 17 47 38 107 93 112 100 126 159 8 36 10 62 4 73 -5 10 -7 20 -3 23 3 4 0
13 -7 22 -7 8 -9 15 -5 15 5 0 0 9 -9 19 -10 11 -15 24 -12 30 4 5 -2 12 -12
15 -10 4 -33 35 -51 70 -30 60 -40 103 -44 186 -2 37 -14 43 -57 31z"/>
<path d="M6221 11313 c-35 -5 -88 -33 -62 -33 8 0 11 -6 7 -16 -9 -24 23 -45
59 -39 30 5 30 5 -5 -11 -78 -35 -109 -89 -105 -184 6 -119 49 -179 143 -196
15 -3 28 -7 30 -8 9 -10 100 18 120 37 59 55 99 196 87 306 -6 53 -12 69 -39
95 -17 18 -40 36 -51 40 -24 10 -137 15 -184 9z m184 -228 c-3 -102 -36 -156
-103 -168 -26 -5 -38 -1 -64 22 -27 24 -32 36 -35 87 -2 38 1 64 9 74 16 19
68 43 131 60 26 7 47 18 48 24 0 6 4 2 9 -9 4 -11 7 -51 5 -90z"/>
<path d="M8654 11181 c3 -4 -6 -6 -19 -3 -25 4 -34 -11 -14 -23 6 -4 8 -13 5
-20 -2 -7 0 -17 5 -22 7 -7 -4 -12 -32 -16 -60 -8 -81 -37 -75 -103 2 -28 10
-62 17 -75 7 -13 11 -24 10 -24 -1 0 1 -8 4 -17 8 -21 86 -45 135 -42 49 3
102 28 119 55 47 78 43 238 -6 256 -10 4 -21 11 -24 15 -12 19 -136 38 -125
19z m85 -110 c16 -16 18 -26 10 -67 -12 -62 -29 -79 -76 -76 -41 3 -62 24 -63
63 0 21 6 28 31 35 17 5 31 14 31 19 0 20 19 45 33 45 8 0 24 -9 34 -19z"/>
<path d="M12360 11165 c0 -15 11 -41 24 -58 38 -50 51 -116 36 -190 -15 -77
-44 -128 -110 -191 -61 -58 -87 -105 -96 -175 -13 -96 23 -161 114 -210 28
-15 62 1 62 31 0 20 -13 35 -70 80 -21 17 -25 28 -24 67 2 62 19 92 96 172 51
53 68 81 87 135 59 167 19 344 -81 360 -36 5 -38 4 -38 -21z"/>
<path d="M12704 11149 c-17 -19 -19 -38 -20 -178 0 -86 -4 -171 -8 -190 -21
-87 -100 -195 -212 -290 -8 -7 -14 -22 -11 -32 3 -10 0 -20 -7 -23 -6 -2 -1
-5 11 -5 12 -1 28 -4 36 -7 22 -8 126 83 174 153 22 33 54 96 69 139 26 74 28
89 26 223 -1 80 3 152 9 162 7 14 6 19 -3 19 -10 0 -10 3 1 9 8 5 11 16 7 26
-5 14 -9 15 -21 5 -10 -9 -15 -9 -15 -1 0 17 -15 13 -36 -10z"/>
<path d="M10418 11092 c-10 -2 -18 -7 -18 -12 0 -4 -13 -13 -30 -20 -38 -16
-117 -100 -137 -148 -16 -36 -16 -36 -23 -12 -12 49 -19 -5 -14 -119 3 -84 8
-120 23 -149 23 -43 96 -116 129 -126 12 -4 22 -12 22 -17 0 -5 5 -9 11 -9 6
0 24 -9 40 -21 16 -11 37 -22 48 -24 11 -2 54 -20 95 -39 42 -20 84 -36 95
-36 23 0 92 -29 70 -30 -8 0 -26 -11 -39 -25 -13 -14 -27 -25 -32 -25 -18 0
-142 -98 -220 -172 -44 -43 -84 -78 -88 -78 -4 0 -15 -10 -25 -23 -9 -13 -38
-35 -64 -48 -25 -13 -49 -28 -52 -32 -3 -5 -9 -8 -13 -8 -3 1 -23 -6 -44 -15
-20 -10 -39 -18 -42 -19 -38 -13 -58 -22 -99 -44 -28 -15 -41 -16 -70 -7 -20
5 -38 13 -41 16 -3 3 -21 6 -40 8 -19 1 -37 6 -40 10 -8 12 -59 32 -81 32 -11
0 -22 -7 -25 -15 -4 -8 -12 -15 -19 -15 -13 0 -55 -75 -55 -98 0 -7 -4 -12
-10 -12 -5 0 -10 -7 -10 -15 0 -8 -4 -15 -10 -15 -14 0 -12 -33 3 -50 20 -23
-63 40 -136 102 -37 32 -71 58 -75 58 -4 0 -20 12 -37 26 -43 37 -142 104
-154 104 -6 0 -11 4 -11 8 0 5 -16 14 -35 22 -19 8 -35 18 -35 22 0 5 -4 7 -9
4 -8 -5 -47 13 -316 145 -77 38 -146 69 -152 69 -7 0 -13 4 -13 10 0 5 -7 7
-15 4 -8 -3 -20 -2 -27 2 -7 5 -17 9 -23 11 -66 15 -139 35 -175 48 -25 9 -52
18 -60 20 -8 1 -35 8 -60 15 -25 7 -54 13 -66 15 -11 1 -26 5 -32 9 -38 24
-421 25 -540 2 -45 -8 -119 -18 -165 -21 -137 -10 -253 -33 -309 -61 -15 -8
-30 -14 -33 -14 -3 0 -7 -1 -10 -1 -3 -1 -8 -2 -12 -3 -5 -1 -30 -9 -58 -18
-27 -9 -75 -20 -105 -24 -89 -11 -92 -12 -153 -28 -77 -21 -79 -21 -75 16 2
27 7 33 28 33 19 0 25 7 31 34 12 56 -9 89 -58 93 -37 3 -47 -4 -69 -49 -17
-37 -22 -50 -28 -83 -14 -72 -20 -90 -29 -87 -9 3 -58 137 -50 137 10 0 -30
61 -45 69 -49 25 -89 -46 -59 -105 8 -16 18 -43 21 -60 l7 -32 -78 -1 c-103
-2 -214 -31 -242 -65 -7 -9 -16 -14 -20 -11 -7 4 -161 -138 -161 -148 0 -3
-12 -18 -27 -34 -16 -16 -46 -51 -68 -77 -22 -26 -47 -55 -55 -63 -8 -9 -22
-26 -30 -38 -47 -70 -136 -183 -159 -203 -58 -52 -123 -67 -291 -67 -92 0
-110 3 -146 24 -53 30 -72 70 -68 143 3 79 -3 97 -40 107 -27 7 -34 4 -54 -18
-19 -22 -22 -34 -18 -82 4 -45 1 -60 -12 -71 -43 -35 -153 -80 -227 -93 -35
-6 -158 -20 -165 -18 -3 0 -19 4 -37 8 -29 6 -33 4 -39 -19 -3 -14 -11 -26
-18 -26 -6 0 4 -9 23 -21 67 -41 279 -19 411 42 36 17 72 37 82 46 16 14 21
12 65 -27 66 -57 134 -79 253 -80 l95 -1 -30 -22 c-71 -52 -151 -125 -170
-155 -11 -17 -26 -31 -32 -32 -7 0 -13 -4 -13 -9 0 -9 -4 -14 -117 -137 -39
-44 -86 -97 -103 -119 -17 -22 -35 -42 -39 -45 -14 -10 -166 -203 -179 -226
-7 -13 -17 -24 -23 -24 -5 0 -9 -4 -9 -9 0 -19 -120 -148 -425 -457 -236 -239
-240 -242 -408 -300 -140 -48 -399 -104 -560 -120 -37 -4 -69 -10 -71 -13 -9
-13 -331 7 -376 24 -83 30 -84 30 -78 7 4 -15 2 -19 -8 -15 -9 3 -14 -2 -14
-13 0 -19 20 -57 20 -40 0 6 6 3 13 -6 32 -43 274 -68 457 -48 194 22 438 68
553 106 27 9 51 14 53 11 3 -3 -21 -31 -53 -64 -67 -68 -107 -116 -131 -156
-17 -29 -93 -70 -192 -103 -25 -9 -67 -26 -93 -40 -27 -13 -53 -24 -58 -24
-12 0 -166 -57 -193 -72 -10 -5 -28 -11 -40 -14 -42 -8 -271 -87 -286 -98 -8
-7 -44 -26 -80 -44 -68 -33 -81 -43 -186 -157 -74 -80 -197 -247 -222 -303
-38 -82 -74 -121 -146 -162 -39 -22 -93 -54 -121 -70 -27 -17 -60 -36 -72 -42
-13 -6 -23 -15 -23 -20 0 -4 -6 -8 -13 -8 -14 0 -121 -102 -244 -230 -69 -72
-120 -116 -155 -134 -26 -14 -78 -46 -93 -59 -5 -5 -22 -16 -36 -25 -15 -9
-53 -35 -84 -57 -32 -22 -66 -45 -76 -50 -9 -6 -24 -17 -33 -24 -9 -7 -16 -10
-16 -6 0 3 -15 -2 -32 -13 -43 -25 -183 -67 -268 -79 -96 -13 -332 0 -365 20
-25 16 -61 16 -58 0 2 -8 -4 -10 -15 -6 -15 6 -15 5 -3 -10 9 -11 10 -17 2
-17 -24 0 -9 -28 22 -43 65 -31 197 -50 342 -48 126 2 215 20 347 72 26 11 48
19 50 19 2 0 2 -21 1 -46 -3 -43 -1 -46 33 -60 19 -8 49 -17 67 -20 18 -3 39
-8 47 -11 8 -3 20 -7 26 -8 6 -2 36 -10 65 -18 77 -21 137 -27 287 -28 73 0
132 -2 132 -5 0 -10 -67 -44 -87 -44 -25 0 -65 -29 -57 -42 3 -4 0 -8 -5 -8
-19 0 -12 -18 9 -25 11 -3 20 -12 20 -19 0 -22 420 -22 660 -1 120 11 210 26
298 51 48 14 92 26 97 28 74 21 97 30 138 56 26 16 47 25 47 20 0 -15 41 -12
59 4 34 30 210 111 301 138 52 16 136 34 185 40 84 10 102 9 265 -19 96 -17
195 -40 220 -52 l45 -21 -85 6 c-149 11 -251 12 -292 2 -23 -5 -52 -10 -67
-12 -32 -4 -108 -25 -130 -35 -135 -65 -197 -97 -199 -103 -2 -5 -8 -8 -14 -8
-17 0 -88 -54 -88 -67 0 -7 -8 -13 -17 -13 -9 0 -13 -3 -10 -6 4 -4 -3 -20
-14 -35 -26 -37 -32 -69 -18 -96 10 -19 15 -20 43 -11 31 11 66 40 66 55 0 24
149 126 245 167 22 10 48 22 58 27 10 5 22 7 27 4 6 -4 10 -1 10 4 0 6 18 11
39 11 22 0 42 4 45 8 3 5 19 7 36 4 19 -3 30 0 30 7 0 8 13 10 38 7 20 -3 89
-8 152 -11 136 -7 345 -29 450 -48 146 -26 297 -4 383 55 l27 19 1 -83 c0 -46
2 -101 4 -123 13 -162 14 -338 2 -348 -46 -45 -172 -127 -192 -127 -8 0 -15
-4 -15 -9 0 -5 -16 -15 -35 -21 -19 -6 -35 -15 -35 -18 0 -4 -20 -15 -45 -25
-25 -11 -45 -23 -45 -27 0 -5 -9 -11 -20 -15 -11 -3 -63 -46 -117 -96 l-97
-89 -51 7 c-27 4 -80 7 -117 8 l-67 0 -25 51 c-14 28 -36 84 -50 125 -14 41
-40 108 -59 149 -19 41 -49 116 -67 165 -38 106 -97 213 -122 221 -29 9 -94
-14 -106 -38 -31 -59 -53 -208 -34 -231 7 -7 16 -37 23 -65 6 -29 15 -52 20
-52 6 0 7 -4 4 -10 -3 -5 -2 -10 3 -10 8 0 31 -48 31 -66 0 -2 7 -12 16 -20 8
-9 15 -24 15 -35 0 -10 4 -19 9 -19 7 0 20 -31 21 -48 0 -1 7 -16 16 -33 9
-17 18 -43 20 -57 3 -15 9 -29 13 -32 20 -13 24 -51 18 -173 -1 -26 1 -47 4
-47 4 0 10 -12 14 -27 3 -15 15 -39 26 -54 18 -26 18 -29 2 -65 -21 -50 -23
-183 -3 -234 1 -3 2 -8 1 -12 0 -5 3 -8 9 -8 5 0 10 -9 10 -20 0 -11 4 -20 8
-20 10 0 37 -50 34 -62 -1 -5 5 -8 13 -8 8 0 15 -4 15 -10 0 -5 18 -23 40 -39
39 -28 57 -32 159 -34 l45 -1 61 -131 c34 -71 68 -148 75 -170 22 -69 39 -94
76 -110 20 -8 39 -13 43 -11 4 3 13 1 21 -4 9 -6 24 -3 41 7 23 14 30 14 43 4
13 -11 18 -10 31 3 18 18 29 21 20 6 -3 -6 1 -7 9 -4 19 7 21 31 5 36 -11 4
-13 22 -9 98 1 26 -17 72 -68 175 -39 77 -78 165 -87 195 -17 55 -17 56 6 92
15 23 33 38 47 39 22 2 38 5 47 9 3 1 8 3 13 4 80 17 132 31 132 36 0 6 8 8
48 11 9 1 22 6 29 11 7 5 17 7 23 3 5 -3 10 -1 10 5 0 6 4 8 10 5 5 -3 22 1
37 9 16 8 43 16 61 19 30 5 32 4 33 -26 1 -18 2 -50 4 -72 6 -96 15 -281 20
-415 6 -167 12 -226 25 -250 5 -10 7 -20 4 -22 -2 -3 0 -25 5 -49 5 -24 12
-80 16 -124 4 -44 8 -82 11 -86 2 -3 6 -35 10 -70 3 -35 13 -84 21 -108 18
-54 24 -78 27 -114 2 -16 7 -32 13 -35 5 -4 15 -20 22 -37 27 -67 75 -99 181
-122 36 -8 74 -16 85 -19 17 -4 93 -17 175 -30 14 -3 42 -5 62 -5 21 0 40 -5
43 -10 4 -5 11 -7 16 -3 12 7 199 6 284 -2 92 -9 376 -10 381 -2 3 4 27 6 54
4 28 -1 52 0 55 3 9 9 45 8 45 -1 0 -5 6 -6 12 -1 7 4 42 8 78 9 157 6 368 19
430 28 19 3 60 8 90 11 30 3 69 8 85 11 42 7 80 12 150 18 33 3 80 8 105 11
25 4 61 8 80 10 19 2 36 5 38 6 1 1 11 3 22 4 11 1 21 3 23 4 1 1 16 4 32 6
48 5 94 15 167 34 37 10 82 17 100 15 25 -3 58 10 132 49 136 71 135 69 136
309 1 103 -1 192 -5 198 -3 5 -2 10 3 10 6 0 9 8 7 17 -2 10 -6 86 -9 168 -3
83 -7 159 -10 170 -2 11 -7 58 -11 105 -3 47 -8 92 -10 100 -3 8 -7 46 -10 84
-2 38 -8 86 -11 105 l-6 36 47 -45 c26 -25 74 -81 108 -125 62 -81 144 -164
162 -165 6 0 22 -10 36 -22 14 -13 32 -27 41 -33 9 -5 49 -32 88 -59 40 -27
79 -49 86 -49 8 0 14 -4 14 -9 0 -4 7 -8 15 -8 9 0 37 -11 64 -25 27 -13 50
-22 52 -20 2 2 45 -2 94 -10 49 -7 101 -11 116 -10 14 2 52 5 83 7 31 1 56 7
56 12 0 4 6 6 14 3 8 -3 17 -3 21 1 3 3 18 7 33 7 26 1 84 27 109 49 31 28 43
36 43 31 0 -3 39 24 86 60 48 36 89 65 93 65 3 0 34 27 69 60 34 33 64 60 66
60 3 0 19 -30 37 -67 18 -38 47 -81 63 -97 17 -16 30 -33 28 -38 -1 -5 2 -7 8
-3 5 3 10 2 10 -3 0 -5 6 -9 13 -10 6 -1 32 -5 57 -11 36 -7 54 -5 100 11 30
12 57 25 58 30 2 4 8 6 13 2 5 -3 9 0 9 6 0 6 6 10 13 8 14 -3 90 32 95 45 2
4 8 7 14 7 5 0 35 25 66 55 31 30 60 55 64 55 4 0 8 6 8 13 0 7 18 31 40 52
22 21 40 43 40 47 0 8 51 78 105 144 14 18 25 37 25 43 0 6 4 11 8 11 4 0 20
24 34 53 46 89 49 92 85 73 17 -8 53 -20 79 -27 27 -6 60 -13 74 -16 61 -14
151 4 239 47 37 18 109 38 211 56 61 11 107 28 193 68 134 63 128 62 347 82
93 8 196 29 260 52 123 45 188 71 242 96 31 14 59 26 63 26 3 0 23 11 45 25
22 14 40 22 40 18 1 -5 7 3 15 17 8 14 14 21 15 17 0 -4 15 3 33 16 44 33 93
58 101 50 3 -4 6 -2 6 4 0 5 6 10 13 10 13 0 60 22 157 75 65 36 95 43 220 53
81 7 92 9 108 18 6 5 16 6 21 2 5 -3 12 -1 16 5 4 6 10 8 15 5 5 -3 18 -1 28
4 10 5 29 11 43 13 13 2 35 11 49 21 13 9 31 17 39 17 53 0 253 161 320 257
16 24 28 32 44 29 12 -2 27 0 32 5 12 9 55 19 100 23 17 2 59 11 95 20 36 10
70 19 75 20 6 1 15 4 20 8 6 3 27 9 48 13 20 4 37 11 37 16 0 5 3 8 8 7 8 -3
76 40 137 86 120 92 175 215 126 278 -13 15 -15 25 -8 26 26 2 71 14 89 23 11
6 27 12 36 14 68 13 295 85 302 96 3 5 15 10 25 12 11 2 29 8 40 14 11 6 45
18 75 28 30 10 132 55 225 100 94 45 194 92 223 105 28 13 52 27 52 32 0 4 6
8 13 8 11 1 75 45 168 117 90 69 129 184 144 423 1 25 8 73 14 107 7 34 14 82
16 105 3 24 9 75 15 113 16 117 20 162 25 304 6 186 4 181 78 216 34 17 71 38
81 48 11 9 24 17 29 17 5 0 31 16 57 35 26 19 58 35 71 35 42 1 101 72 83 101
-3 5 0 9 6 9 6 0 42 20 79 44 110 71 138 77 386 82 104 2 203 6 220 9 16 2 55
8 85 11 55 7 182 58 210 85 18 17 78 59 83 59 11 0 83 78 93 100 6 14 9 59 8
100 -3 61 -10 87 -36 140 -30 58 -37 66 -83 83 -27 10 -59 20 -70 22 -169 36
-256 70 -365 141 -187 122 -271 145 -373 102 -51 -22 -177 -114 -177 -130 0
-4 -6 -8 -14 -8 -7 0 -25 -11 -40 -25 -16 -14 -41 -26 -59 -27 -87 -4 -107 -8
-170 -33 -38 -15 -71 -34 -74 -41 -3 -8 -9 -11 -14 -9 -4 3 -27 -4 -50 -16
l-42 -21 5 26 c3 14 2 26 -1 26 -3 0 -7 39 -8 88 -1 48 -4 105 -8 127 -7 49
-7 55 1 127 6 56 6 58 -29 93 -19 19 -45 35 -57 35 -22 0 -23 2 -17 78 6 81
36 173 67 207 10 11 81 115 158 230 117 175 154 222 221 283 142 128 172 209
146 392 -3 25 -11 49 -16 54 -5 6 -9 20 -9 33 0 30 -41 47 -95 38 -49 -7 -174
-43 -197 -56 -10 -5 -26 -9 -36 -9 -10 0 -22 -3 -26 -7 -3 -4 -12 -8 -19 -9
-19 -3 -179 -75 -206 -93 -13 -8 -33 -17 -43 -18 -11 -2 -26 -10 -34 -18 -9
-8 -21 -15 -27 -15 -7 0 -23 -9 -37 -20 -14 -11 -33 -20 -43 -20 -11 0 -30 -9
-44 -20 -14 -11 -29 -17 -34 -14 -5 3 -9 0 -9 -5 0 -6 -6 -11 -14 -11 -8 0
-16 -7 -20 -15 -3 -8 -9 -14 -13 -13 -9 3 -72 -43 -112 -82 -14 -14 -28 -25
-31 -25 -3 0 -17 -13 -32 -28 -15 -15 -32 -27 -38 -27 -6 0 -8 -4 -5 -10 3 -5
1 -10 -6 -10 -12 0 -46 -29 -82 -69 -12 -13 -28 -29 -36 -35 -22 -18 -64 -61
-106 -109 -61 -69 -63 -73 -97 -133 -41 -75 -43 -159 -5 -230 9 -17 13 -34 10
-38 -4 -3 -1 -6 6 -6 7 0 9 -4 6 -10 -3 -5 -1 -10 4 -10 6 0 10 -3 9 -7 -1 -5
4 -26 10 -47 6 -22 9 -42 7 -46 -3 -4 2 -13 10 -20 8 -7 15 -20 15 -29 0 -9 5
-22 12 -29 9 -9 9 -12 0 -13 -7 -1 -15 -2 -19 -3 -5 0 -25 -14 -45 -29 -44
-34 -51 -51 -56 -128 -1 -16 -11 -31 -27 -39 -24 -13 -25 -15 -20 -104 3 -50
7 -104 9 -121 8 -52 10 -335 2 -342 -3 -4 -12 -8 -19 -9 -52 -9 -149 -42 -293
-99 -263 -105 -446 -166 -662 -220 -73 -18 -80 -14 -75 43 4 43 2 50 -29 79
-18 17 -42 33 -52 35 -14 2 -27 25 -48 88 -30 91 -33 101 -42 140 -25 118 -67
277 -83 320 -4 8 -5 18 -5 23 1 4 -3 7 -9 7 -5 0 -7 5 -4 10 3 6 2 10 -4 10
-5 0 -13 -4 -16 -10 -3 -5 -15 -10 -26 -10 -27 0 -25 -27 10 -135 16 -49 32
-110 36 -135 15 -97 95 -352 120 -384 9 -12 22 -17 34 -13 25 6 44 -14 35 -38
-5 -12 -13 -15 -28 -10 -34 11 -188 44 -231 50 -22 3 -49 8 -60 10 -11 2 -25
4 -31 4 -13 1 -54 94 -54 123 0 11 -8 32 -19 46 -42 61 -119 239 -126 292 -10
81 -14 90 -39 90 -12 0 -25 2 -27 5 -3 2 1 37 8 77 22 116 23 113 -19 116
l-36 3 -12 -53 c-6 -29 -16 -88 -23 -130 -12 -87 -7 -102 40 -103 15 0 27 -6
28 -15 12 -75 16 -94 25 -111 6 -10 8 -19 5 -19 -4 0 2 -12 13 -27 11 -16 22
-38 26 -50 4 -11 13 -27 21 -33 8 -7 15 -19 15 -26 0 -8 11 -32 24 -53 14 -21
25 -47 25 -57 0 -11 2 -30 3 -44 3 -21 -1 -25 -27 -27 -27 -1 -116 -12 -227
-28 -21 -2 -59 -10 -84 -15 -53 -12 -64 -8 -42 17 9 10 22 38 29 62 7 23 18
45 25 48 9 3 9 11 1 34 -6 16 -15 29 -19 29 -4 0 -8 4 -8 10 0 5 -18 38 -39
74 -22 35 -56 103 -76 152 -41 97 -63 149 -77 177 -5 10 -6 23 -2 29 4 6 3 8
-4 4 -6 -3 -13 3 -17 14 -7 24 -23 26 -31 5 -4 -8 -12 -15 -20 -15 -8 0 -14
-6 -14 -14 0 -28 140 -340 191 -427 18 -31 24 -51 18 -60 -5 -8 -9 -28 -9 -46
0 -25 -9 -38 -40 -63 -28 -23 -41 -41 -46 -68 -4 -25 -20 -50 -48 -77 -24 -22
-83 -85 -132 -140 -49 -55 -95 -104 -101 -108 -7 -4 -13 -12 -13 -16 0 -5 -44
-52 -97 -105 -88 -87 -109 -102 -137 -97 -4 1 -38 -7 -75 -19 -36 -11 -109
-24 -161 -29 -116 -11 -127 -14 -178 -40 -23 -12 -45 -21 -50 -21 -15 0 -63
53 -55 60 4 4 38 15 75 24 37 10 72 24 79 32 6 8 16 14 20 14 14 0 142 82 155
99 12 15 -4 63 -18 55 -5 -3 -8 -2 -8 2 0 9 49 54 59 54 14 0 107 104 133 150
29 49 51 147 38 169 -5 10 -9 10 -14 2 -5 -8 -13 -8 -26 -1 -16 9 -21 4 -35
-38 -34 -93 -46 -111 -115 -174 -71 -65 -148 -109 -255 -146 -79 -28 -105 -33
-198 -38 -67 -4 -83 -2 -113 16 -19 12 -40 28 -47 35 -6 7 -63 65 -126 128
l-113 115 38 25 c22 13 62 47 91 75 50 49 54 51 115 53 35 1 77 6 93 12 17 5
37 10 45 11 8 1 25 8 38 14 12 7 22 10 22 6 0 -3 6 -1 13 5 8 6 17 8 20 4 4
-3 7 -2 7 3 0 9 67 40 80 37 3 0 13 7 23 17 15 15 16 20 4 31 -7 8 -12 19 -10
25 8 25 -26 19 -102 -17 -44 -21 -90 -39 -102 -39 -13 0 -23 -3 -23 -7 0 -5
-27 -9 -60 -11 l-59 -3 -1 53 c-1 76 -2 88 -11 83 -3 -3 -12 9 -20 26 -29 71
-148 94 -222 43 -41 -27 -56 -56 -64 -117 -5 -37 15 -94 42 -122 10 -10 75
-40 104 -47 13 -4 -88 -88 -105 -88 -10 1 -94 119 -138 194 -16 28 -50 79 -76
116 -63 87 -66 93 -84 185 -9 44 -18 89 -21 101 -4 17 3 23 38 34 23 8 47 16
52 19 6 3 17 6 25 8 8 1 20 9 26 17 6 9 14 13 18 9 3 -4 13 2 22 13 8 10 13
13 9 7 -10 -21 8 -15 40 12 120 102 225 202 225 216 0 5 5 7 10 4 6 -3 13 2
17 12 4 10 17 26 29 35 12 10 25 33 28 53 4 19 11 35 16 35 6 0 10 5 10 11 0
11 19 33 105 124 61 64 75 81 75 94 0 26 27 13 41 -20 23 -50 83 -115 136
-146 32 -18 57 -25 96 -24 40 0 61 -6 92 -27 51 -34 172 -45 195 -17 11 13 11
18 1 24 -7 5 -12 11 -12 15 3 22 -4 26 -44 26 -58 0 -110 27 -162 83 -60 65
-75 93 -79 144 -3 51 -19 77 -30 49 -5 -14 -9 -15 -16 -4 -7 10 -12 9 -24 -7
-21 -28 -12 -95 21 -151 31 -52 19 -57 -27 -11 -60 58 -82 92 -84 122 0 17 -4
39 -8 51 -4 15 3 33 27 65 18 24 43 61 56 82 12 20 27 37 32 37 5 0 9 6 9 13
0 7 14 29 31 48 17 19 40 47 52 62 12 16 28 35 35 42 6 8 12 18 12 24 0 6 4
11 9 11 18 0 18 27 -1 50 -15 18 -21 21 -28 11 -4 -8 -12 -11 -18 -7 -6 3 -21
-8 -34 -26 -28 -40 -54 -72 -90 -110 -16 -16 -28 -33 -28 -38 0 -5 -13 -23
-29 -39 -16 -16 -27 -32 -24 -35 5 -4 -17 -36 -59 -86 -7 -9 -19 -28 -27 -43
-8 -15 -18 -27 -23 -27 -4 0 -8 -5 -8 -11 0 -6 -11 -25 -25 -43 -14 -18 -25
-35 -25 -39 0 -5 -29 -42 -62 -78 -10 -10 -18 -21 -18 -24 0 -6 -4 -12 -49
-66 -17 -20 -28 -39 -24 -43 3 -3 1 -6 -5 -6 -7 0 -12 -6 -12 -12 0 -7 -14
-26 -30 -42 -17 -16 -30 -35 -30 -43 0 -7 -4 -13 -9 -13 -4 0 -29 -20 -54 -45
-26 -25 -45 -45 -42 -45 3 0 -3 -8 -12 -18 -10 -10 -24 -17 -31 -14 -7 2 -12
1 -10 -4 4 -15 -72 -85 -84 -78 -6 4 -8 3 -5 -4 9 -14 -175 -104 -218 -107 -5
0 -21 36 -36 80 -26 76 -66 163 -89 190 -8 10 5 24 52 58 65 46 118 99 118
117 0 5 5 10 10 10 6 0 10 5 10 12 0 6 11 26 25 44 14 18 25 37 25 43 0 6 5
11 10 11 6 0 10 6 10 14 0 8 7 16 15 20 8 3 15 12 15 21 0 8 4 15 8 15 4 0 16
14 26 32 18 30 45 64 74 94 6 7 12 16 12 21 0 4 9 19 20 33 11 14 20 33 20 43
0 9 5 17 10 17 6 0 10 7 10 15 0 8 4 15 8 15 4 0 21 25 37 55 15 30 32 55 37
55 4 0 8 9 8 20 0 11 5 20 10 20 6 0 10 7 10 15 0 8 5 15 10 15 6 0 10 9 10
20 0 11 4 20 8 20 4 0 21 23 37 50 16 28 33 50 37 50 4 0 8 9 8 20 0 11 4 20
9 20 5 0 9 15 9 34 0 25 -6 36 -23 44 -19 9 -26 7 -44 -14 -11 -13 -21 -29
-21 -34 0 -6 -4 -10 -10 -10 -5 0 -10 -7 -10 -15 0 -8 -4 -15 -9 -15 -5 0 -11
-8 -15 -17 -3 -10 -17 -36 -31 -58 -14 -22 -28 -48 -32 -57 -3 -10 -9 -18 -14
-18 -5 0 -9 -7 -9 -15 0 -8 -4 -15 -8 -15 -5 0 -14 -16 -22 -35 -8 -19 -17
-35 -22 -35 -4 0 -8 -6 -8 -14 0 -10 -10 -6 -29 12 -46 42 -73 166 -53 237 16
53 16 52 -19 57 -24 4 -34 -1 -50 -24 -11 -15 -18 -28 -15 -28 2 0 1 -14 -4
-32 -20 -67 42 -263 82 -263 9 0 20 -4 24 -8 13 -12 26 -8 21 7 -3 8 1 17 9
20 8 3 14 3 14 0 0 -11 -73 -139 -81 -142 -5 -2 -9 -10 -9 -17 0 -7 -7 -15
-15 -19 -8 -3 -15 -12 -15 -20 0 -8 -3 -16 -7 -18 -14 -5 -93 -114 -93 -126 0
-7 -4 -12 -10 -12 -5 0 -10 -6 -10 -14 0 -8 -3 -16 -7 -18 -12 -5 -63 -86 -63
-98 0 -6 -4 -8 -10 -5 -5 3 -10 2 -10 -3 0 -14 -44 -62 -58 -62 -7 0 -12 -3
-12 -8 0 -4 -16 -16 -35 -26 -38 -21 -58 -13 -70 25 -4 11 -9 18 -13 16 -7 -4
-42 29 -42 38 1 3 -6 13 -15 21 -8 9 -15 12 -15 9 0 -4 -14 8 -32 26 -17 19
-35 33 -40 31 -5 -1 -11 5 -14 13 -4 8 -10 15 -15 15 -10 0 -143 92 -147 102
-2 4 -10 8 -17 8 -7 0 -15 7 -19 15 -3 8 -9 14 -13 13 -12 -3 -85 46 -108 72
l-20 23 25 -6 c14 -3 51 -11 83 -18 46 -11 62 -11 77 -1 11 7 25 12 31 12 6 0
16 6 23 13 8 6 24 19 36 27 13 8 33 25 45 37 13 12 25 20 27 17 3 -2 13 5 23
16 10 11 24 20 30 20 7 0 15 7 19 15 3 8 12 15 21 15 8 0 15 5 15 10 0 6 6 10
13 10 7 0 22 8 33 18 10 10 42 31 69 46 28 16 53 34 56 39 4 5 13 6 20 1 22
-14 38 -13 33 1 -11 27 31 9 44 -19 24 -56 67 -66 97 -23 13 19 13 23 -8 45
-32 34 -28 101 13 202 27 68 31 83 19 91 -8 5 -19 7 -26 4 -6 -2 -13 1 -16 8
-5 17 -56 -67 -72 -119 -16 -54 -15 -48 -15 -85 0 -18 -4 -28 -10 -24 -6 4 -8
15 -5 26 4 12 1 21 -9 25 -31 12 -9 138 26 149 18 6 26 35 8 35 -5 0 -7 6 -4
14 8 22 -24 27 -61 9 -30 -14 -38 -26 -51 -71 -9 -31 -14 -79 -13 -115 3 -54
0 -66 -19 -85 -12 -12 -25 -22 -29 -22 -3 0 -20 -10 -37 -23 -17 -13 -59 -40
-94 -61 -34 -21 -68 -43 -75 -50 -6 -7 -20 -15 -30 -19 -10 -4 -15 -11 -12
-17 3 -5 -1 -10 -10 -10 -10 0 -34 -13 -55 -30 -21 -16 -43 -30 -49 -30 -6 0
-11 -5 -11 -11 0 -6 -13 -8 -32 -5 -18 2 -33 5 -33 6 0 1 -11 3 -25 4 -14 2
-56 9 -95 16 -53 10 -70 10 -73 1 -2 -7 -41 24 -86 68 -44 44 -100 94 -123
113 -23 18 -42 39 -42 47 -1 8 2 11 5 8 10 -9 46 12 39 24 -4 5 -2 9 2 9 8 0
21 21 45 72 10 23 17 26 38 21 14 -3 27 -9 30 -12 5 -6 14 -7 63 -13 9 -1 17
-6 17 -11 0 -4 4 -6 9 -2 5 3 13 1 16 -5 11 -18 165 12 165 32 0 5 8 8 18 8
10 0 23 5 30 12 7 7 12 9 12 4 0 -8 55 21 84 44 10 8 21 14 25 14 12 -3 88 37
109 56 12 11 25 20 31 20 5 0 11 7 15 15 3 8 10 15 16 15 15 0 50 33 50 47 0
7 4 13 8 13 4 0 23 16 42 35 19 19 41 35 48 35 6 0 12 7 12 15 0 8 6 15 14 15
8 0 16 7 20 15 3 8 10 15 17 15 6 0 28 14 49 30 21 17 43 30 48 30 6 0 15 6
19 13 11 16 69 57 83 57 5 0 10 4 10 10 0 5 18 9 39 7 21 -1 37 -5 34 -10 -2
-4 14 -6 36 -4 23 2 41 1 41 -2 0 -3 40 -6 90 -6 49 0 90 2 90 5 0 3 37 5 83
6 148 2 208 7 246 20 20 7 30 13 22 14 -11 0 -9 4 5 15 19 14 19 14 -2 15 -12
0 -24 6 -27 14 -5 12 -19 15 -69 17 -7 0 -62 -3 -123 -7 -136 -8 -275 -9 -337
0 -27 3 -68 8 -91 11 -41 4 -106 20 -202 49 -38 12 -68 25 -200 85 -76 35
-160 110 -176 158 -16 50 -7 162 17 199 25 40 64 78 94 94 21 10 23 10 13 -1
-16 -16 -17 -83 -3 -109 15 -29 52 -65 80 -80 36 -19 120 -40 163 -40 40 0 97
33 97 57 0 8 5 11 10 8 6 -3 11 3 11 14 2 29 6 61 9 64 2 3 7 29 14 75 3 25 0
46 -9 59 -8 11 -11 24 -7 28 4 3 2 5 -5 3 -6 -2 -18 6 -26 17 -14 18 -27 20
-164 21 -81 0 -156 -2 -165 -4z m-2398 -802 c0 -12 -17 -12 -45 0 -17 7 -15 9
13 9 17 1 32 -3 32 -9z m8148 -123 c17 -21 9 -157 -12 -196 -10 -19 -57 -73
-105 -120 -47 -47 -97 -100 -111 -116 -26 -32 -177 -252 -196 -285 -6 -11 -18
-28 -27 -38 -10 -10 -17 -23 -17 -29 0 -5 -12 -20 -26 -34 -14 -13 -31 -35
-36 -49 -39 -96 -59 -169 -63 -232 -3 -40 -8 -83 -10 -95 -3 -14 -1 -23 6 -23
7 0 8 -5 3 -12 -10 -13 -10 -24 -1 -111 2 -26 0 -50 -4 -53 -13 -8 -281 -25
-369 -24 -38 1 -61 23 -125 118 -35 51 -92 175 -101 219 -2 12 -13 42 -24 67
-10 25 -17 46 -14 46 2 0 -2 14 -11 30 -9 17 -13 30 -11 30 3 0 1 11 -4 24
-24 65 114 232 370 445 63 53 117 98 120 101 7 8 140 90 145 90 8 0 240 113
245 119 6 8 128 61 150 66 8 2 39 12 68 24 28 11 52 18 52 14 0 -4 5 -2 12 5
7 7 22 12 34 12 13 0 26 5 29 10 8 14 20 13 33 -3z m-10776 -984 c-22 -32 -54
-74 -71 -93 -18 -19 -40 -46 -49 -60 -9 -14 -31 -41 -49 -60 -63 -70 -82 -94
-78 -101 3 -4 -6 -14 -19 -22 -13 -9 -32 -34 -44 -57 -11 -22 -24 -42 -28 -43
-5 -1 -27 -24 -48 -52 -22 -27 -47 -58 -58 -68 -24 -24 -98 -122 -98 -131 0
-4 -5 -12 -10 -19 -13 -16 -60 -77 -85 -113 -11 -16 -34 -42 -50 -59 -17 -16
-55 -59 -84 -95 -71 -85 -83 -94 -182 -128 l-85 -30 153 157 c83 86 175 179
203 207 27 28 50 55 50 61 0 6 6 13 13 16 7 3 26 24 42 48 26 38 72 97 137
174 10 11 31 38 48 60 28 35 93 111 155 181 11 12 42 48 70 80 54 64 192 204
201 204 2 0 -13 -26 -34 -57z m4755 -119 c43 -30 89 -63 102 -72 44 -31 123
-110 114 -114 -4 -2 -30 -4 -57 -3 -56 2 -49 -4 -177 158 -38 48 -67 87 -65
87 3 0 40 -25 83 -56z m-3392 -93 c32 -46 97 -125 145 -175 84 -88 100 -117
116 -200 2 -12 8 -30 13 -41 5 -11 22 -49 37 -85 16 -36 31 -67 34 -70 3 -3
12 -21 20 -40 7 -19 18 -39 24 -45 6 -5 21 -31 34 -57 13 -27 27 -48 31 -48 4
0 13 -16 20 -35 7 -19 17 -33 22 -30 5 4 9 0 9 -7 0 -8 11 -29 24 -47 l25 -33
-46 -44 c-25 -24 -48 -44 -52 -44 -18 0 -6 -42 17 -60 31 -25 58 -21 118 20
47 31 45 32 100 -31 37 -42 197 -193 244 -230 117 -92 245 -167 380 -224 163
-68 560 -264 560 -276 0 -5 6 -9 14 -9 7 0 25 -11 40 -25 14 -13 27 -24 29
-23 11 10 211 -194 237 -241 10 -20 10 -150 0 -156 -4 -3 -6 -19 -4 -37 2 -18
1 -40 -2 -48 -3 -8 -7 -33 -9 -55 -2 -22 -6 -51 -10 -65 -3 -14 -8 -45 -11
-70 -6 -46 -32 -147 -42 -165 -4 -5 -7 -15 -8 -22 -4 -24 -54 -142 -96 -221
-24 -46 -51 -100 -61 -119 -26 -51 -37 -60 -115 -93 -111 -47 -350 -102 -439
-100 -21 0 -62 -2 -90 -6 -47 -5 -53 -4 -54 12 -1 22 -5 83 -14 214 -4 52 -8
113 -9 135 -2 22 -6 51 -9 65 -4 14 -9 63 -11 110 -5 95 -13 140 -27 154 -5 6
-9 20 -9 32 0 13 -5 26 -10 29 -6 4 -8 10 -5 15 5 8 -48 54 -63 55 -4 1 -23 6
-42 13 -83 28 -256 42 -505 42 -251 -1 -289 -2 -465 -14 -111 -8 -714 -14
-812 -8 -51 3 -68 7 -68 18 0 8 7 17 15 20 8 4 15 12 15 18 0 7 8 21 18 32 36
39 176 389 226 565 38 134 97 382 123 514 l15 81 56 0 c77 -1 184 13 238 29
24 7 44 11 44 9 0 -3 14 2 30 11 34 18 38 30 13 44 -16 9 -16 12 -3 20 12 9
12 11 -3 17 -17 6 -136 -1 -188 -12 -13 -2 -57 -7 -96 -10 -84 -6 -79 -17 -61
119 10 84 14 93 50 131 21 23 38 47 38 53 0 7 5 13 10 13 6 0 10 6 10 14 0 8
4 16 8 18 4 2 26 32 47 68 21 36 41 67 45 70 21 19 54 139 74 271 12 83 13
347 1 379 -9 22 5 5 70 -89z m-160 -138 c-2 -115 -11 -213 -22 -243 -3 -8 -7
-22 -8 -30 -8 -43 -17 -65 -47 -123 -18 -34 -45 -79 -60 -100 l-27 -38 1 126
0 126 39 75 c21 41 36 74 33 74 -4 0 -2 6 4 13 6 6 11 15 11 20 2 22 14 57 20
57 4 0 8 14 9 32 2 18 6 35 11 38 5 3 12 24 16 48 13 78 22 43 20 -75z m9131
19 c1 -21 -4 -32 -12 -32 -9 0 -14 12 -14 36 0 45 25 41 26 -4z m-759 -19 c3
-10 12 -25 20 -34 20 -24 -15 -53 -49 -40 -51 19 -59 58 -15 79 31 15 37 14
44 -5z m-4516 -53 c20 -20 86 -151 97 -193 l10 -34 -42 12 c-36 11 -48 23
-104 106 -91 135 -88 124 -28 124 33 0 58 -5 67 -15z m-4157 -45 c5 -22 4 -26
-4 -15 -5 8 -10 24 -10 34 0 26 6 18 14 -19z m8627 -75 c8 0 20 -5 26 -11 11
-11 169 -14 243 -4 25 3 110 8 190 11 80 2 159 7 175 10 17 2 54 8 83 13 l52
8 1 -51 c0 -28 2 -71 4 -96 2 -25 5 -82 8 -127 3 -45 7 -86 9 -90 6 -13 2
-709 -6 -863 -5 -123 -12 -212 -31 -425 -1 -16 -5 -43 -8 -60 -7 -36 -35 -275
-42 -360 -3 -33 -8 -73 -11 -90 -7 -39 -37 -115 -45 -115 -4 0 -19 -18 -34
-40 -15 -22 -39 -43 -51 -46 -13 -3 -21 -10 -18 -15 3 -5 -3 -9 -14 -9 -10 0
-31 -13 -47 -30 -16 -16 -34 -30 -41 -30 -6 0 -17 -7 -24 -15 -7 -8 -21 -15
-31 -15 -11 0 -19 -4 -19 -10 0 -5 -6 -10 -14 -10 -8 0 -39 -13 -69 -29 -31
-16 -58 -27 -61 -23 -3 3 -6 0 -6 -6 0 -7 -8 -12 -19 -12 -10 0 -24 -7 -31
-15 -7 -8 -21 -15 -31 -15 -11 0 -19 -4 -19 -10 0 -5 -11 -10 -25 -10 -14 0
-25 -4 -25 -10 0 -5 -8 -10 -18 -10 -10 0 -22 -4 -28 -10 -5 -5 -50 -23 -99
-40 -50 -17 -98 -35 -107 -40 -10 -6 -25 -10 -33 -10 -8 0 -15 -3 -15 -8 0 -4
-21 -13 -47 -20 -67 -17 -193 -57 -283 -90 -8 -3 -17 -6 -20 -7 -110 -28 -107
-28 -145 0 -19 15 -35 24 -35 21 0 -4 -15 9 -34 27 -29 30 -43 59 -71 157 -1
3 -17 39 -37 81 -19 41 -40 103 -46 136 -12 69 -53 157 -86 184 -11 10 -18 18
-15 19 4 0 -37 44 -90 98 -53 55 -99 98 -102 98 -4 -1 -21 14 -38 31 -17 18
-31 30 -31 27 0 -3 -16 4 -35 16 -19 12 -35 19 -35 17 0 -3 -15 -1 -32 4 -18
6 -44 12 -58 15 -13 3 -30 10 -36 15 -7 5 -16 9 -20 8 -5 -1 -22 3 -39 10 -53
22 -80 32 -83 31 -2 -1 -15 11 -30 27 -36 39 -104 77 -153 87 -13 2 -46 10
-74 16 -27 7 -54 13 -60 14 -5 1 -17 6 -25 11 -8 5 -20 10 -27 11 -7 1 -26 12
-43 24 -16 12 -30 18 -30 14 0 -4 -9 1 -21 12 -12 10 -23 18 -25 16 -5 -4
-112 16 -134 25 -8 3 -19 7 -25 8 -5 1 -12 3 -15 4 -3 1 -16 5 -30 7 -14 3
-27 9 -28 14 -2 6 -7 8 -12 5 -10 -6 -76 21 -85 35 -3 5 -14 10 -23 10 -9 0
-30 7 -46 15 -15 8 -35 15 -42 15 -8 0 -17 7 -20 15 -4 8 -12 15 -19 15 -7 0
-23 9 -36 19 l-24 19 85 84 c47 46 112 115 145 152 115 132 230 243 273 265
50 26 363 72 447 66 98 -7 180 -18 190 -25 6 -5 30 -10 55 -13 25 -2 56 -9 70
-14 14 -6 41 -14 60 -18 19 -4 45 -14 58 -22 13 -8 31 -13 40 -11 9 2 62 -20
117 -49 55 -29 143 -74 195 -100 52 -26 97 -50 100 -53 3 -4 57 -33 120 -64
98 -49 216 -127 303 -200 46 -38 144 -104 207 -139 76 -42 156 -55 154 -24 -1
9 1 17 5 17 3 0 6 13 7 29 1 24 -6 32 -43 50 -39 19 -234 144 -230 147 1 1 28
4 60 8 31 3 67 8 80 11 12 3 33 7 47 9 14 3 35 7 48 10 41 11 99 23 147 31
145 25 197 43 193 69 -1 12 1 27 5 34 18 27 -18 34 -113 19 -19 -3 -53 -8 -75
-12 -23 -3 -52 -8 -65 -11 -14 -3 -41 -8 -62 -11 l-36 -5 3 39 c2 21 7 81 10
133 4 52 8 111 10 130 15 193 18 276 17 470 0 124 -3 241 -6 260 -3 19 -8 65
-12 103 l-7 67 29 -15 c16 -8 36 -15 45 -15z m1722 -12 c45 -24 89 -50 98 -59
32 -32 154 -98 219 -118 113 -36 185 -55 194 -53 25 7 75 -22 89 -51 40 -87
42 -120 8 -153 -39 -39 -87 -74 -100 -74 -6 0 -11 -6 -11 -13 0 -8 -24 -26
-54 -40 -90 -44 -175 -56 -431 -58 -162 -1 -292 -13 -309 -30 -6 -5 -20 -9
-33 -9 -13 0 -23 -4 -23 -9 0 -5 -9 -12 -19 -16 -28 -9 -108 -86 -113 -110 -6
-26 1 477 8 531 5 43 5 43 164 168 96 75 191 136 212 136 11 0 57 -19 101 -42z
m-9378 -221 c33 -37 58 -67 55 -67 -3 0 9 -12 25 -26 53 -45 119 -101 144
-122 l25 -19 -64 -47 c-35 -25 -66 -46 -70 -46 -21 0 -237 379 -269 472 -10
31 -8 30 41 -23 29 -31 80 -86 113 -122z m8800 34 c-3 -6 -8 -95 -11 -198 -3
-103 -9 -235 -15 -292 -5 -58 -9 -132 -9 -166 l0 -62 -47 -30 c-117 -73 -150
-93 -154 -93 -2 0 -4 54 -4 119 0 66 2 118 5 116 3 -2 5 113 5 256 0 166 4
259 10 260 6 0 57 22 115 49 120 56 113 53 105 41z m-4877 -326 c30 -9 40 -36
32 -88 -5 -40 -7 -42 -41 -41 -80 2 -114 43 -89 104 16 38 35 43 98 25z
m-3516 -63 c35 -27 68 -59 74 -71 6 -12 20 -30 30 -40 11 -10 44 -47 74 -82
112 -129 243 -249 272 -249 9 0 18 -6 21 -14 3 -8 63 -45 134 -83 133 -73 173
-91 210 -96 12 -2 26 -6 29 -10 4 -4 18 -7 31 -7 13 0 23 -5 23 -11 0 -8 5 -8
15 1 8 7 15 8 15 3 0 -16 75 -20 155 -10 l51 7 37 -50 c41 -55 117 -267 117
-327 l0 -33 -54 53 c-30 28 -82 75 -116 102 -34 28 -71 58 -81 68 -26 23 -390
208 -399 202 -4 -3 -13 2 -20 10 -7 8 -19 15 -26 15 -8 0 -14 5 -14 12 0 6 -3
9 -6 6 -6 -7 -88 29 -259 113 -160 79 -247 144 -421 316 -57 56 -104 106 -104
112 0 9 128 109 142 110 4 1 35 -21 70 -47z m7084 -79 c-3 -38 -8 -104 -12
-148 -3 -44 -7 -86 -9 -93 -3 -7 -5 -75 -6 -151 l-1 -140 -51 -11 c-29 -6 -78
-13 -110 -15 -32 -2 -62 -7 -66 -10 -5 -3 -29 10 -53 28 -24 18 -108 66 -188
107 -80 40 -162 84 -182 97 -21 12 -41 23 -45 23 -14 0 -153 73 -153 80 0 7
88 33 100 29 3 0 23 6 45 15 22 9 99 33 170 55 72 22 146 46 165 54 59 24 75
30 80 31 9 2 165 68 194 82 16 8 42 14 57 14 15 0 31 5 34 10 3 6 13 10 22 10
13 0 15 -10 9 -67z m-5921 -13 c4 -6 -2 -9 -14 -7 -29 4 -39 17 -13 17 11 0
24 -5 27 -10z m-4485 -33 c0 -8 -79 -84 -116 -112 -21 -16 -52 -42 -69 -57
-16 -15 -33 -28 -37 -28 -8 0 -35 -20 -78 -60 -38 -35 -75 -60 -134 -94 -45
-25 -33 -11 97 115 129 125 160 150 240 191 97 50 97 50 97 45z m3955 -192
c289 -87 308 -96 380 -196 l33 -46 -34 -1 c-57 -2 -185 36 -279 84 -102 51
-198 104 -205 114 -3 3 -21 17 -40 30 -19 13 -55 43 -80 67 l-45 43 90 -34
c50 -19 131 -47 180 -61z m1171 -135 c13 -5 24 -14 24 -20 0 -5 6 -10 13 -10
12 0 65 -70 59 -78 -2 -3 1 -8 6 -11 21 -14 42 -139 42 -253 0 -104 -3 -122
-29 -185 -39 -95 -86 -166 -160 -240 -64 -65 -86 -76 -87 -45 -1 31 -16 147
-20 153 -2 3 -6 25 -9 49 -3 24 -9 48 -14 54 -4 6 -11 28 -14 49 -3 20 -15 51
-27 67 -12 17 -18 30 -14 30 4 0 1 8 -8 18 -15 18 -38 67 -38 82 0 5 7 7 15 4
10 -4 15 0 15 13 0 27 48 93 68 93 10 0 28 9 41 21 21 19 21 22 5 33 -12 9
-14 15 -5 20 13 8 67 -27 80 -52 5 -9 6 -39 2 -67 -4 -27 -7 -81 -6 -120 0
-57 3 -69 15 -67 8 2 23 6 34 8 25 5 24 3 36 65 17 87 11 198 -12 237 -49 80
-132 106 -202 62 -20 -12 -36 -25 -36 -30 0 -5 -11 -21 -24 -37 -14 -16 -35
-49 -48 -74 -20 -37 -27 -43 -37 -32 -38 42 34 198 106 229 21 9 47 21 58 27
50 26 114 28 171 7z m-5701 -240 c-3 -5 -11 -10 -16 -10 -6 0 -7 5 -4 10 3 6
11 10 16 10 6 0 7 -4 4 -10z m8421 -219 c18 -17 82 -53 141 -82 60 -28 120
-58 134 -65 15 -8 51 -19 80 -25 30 -6 59 -15 64 -19 6 -4 32 -11 58 -14 53
-8 88 -21 192 -71 39 -19 81 -36 95 -38 14 -2 32 -7 40 -10 8 -3 33 -8 55 -12
47 -8 81 -25 117 -59 32 -31 114 -76 137 -76 10 0 21 -4 26 -9 6 -5 46 -19 90
-31 44 -12 98 -31 120 -43 34 -17 240 -215 285 -274 16 -20 16 -21 25 -75 9
-50 24 -98 51 -153 26 -55 64 -152 69 -175 2 -8 5 -22 7 -30 5 -26 61 -104 88
-125 14 -10 39 -33 55 -51 19 -18 46 -34 68 -38 21 -4 47 -16 58 -27 20 -20
20 -20 -2 -59 -12 -22 -26 -37 -31 -34 -4 3 -8 0 -8 -5 0 -15 -38 -53 -71 -71
-14 -8 -38 -23 -52 -33 -14 -10 -35 -19 -46 -20 -12 -1 -21 -5 -21 -9 0 -4
-10 -8 -23 -8 -13 0 -28 -5 -33 -10 -10 -10 -190 -60 -213 -60 -10 0 39 130
57 152 6 8 9 18 5 21 -3 4 -2 7 4 7 5 0 9 10 7 23 -1 12 -3 29 -4 37 -1 10 -3
11 -7 3 -2 -7 -9 -13 -14 -13 -6 0 -8 4 -5 8 2 4 -6 8 -19 7 -32 0 -70 -53
-121 -170 -10 -22 -31 -58 -48 -80 -54 -72 -200 -217 -251 -250 -56 -36 -211
-104 -253 -111 -15 -3 -40 -9 -57 -14 -16 -5 -73 -12 -125 -15 -52 -3 -97 -9
-100 -13 -3 -4 -12 -8 -20 -10 -36 -7 -353 -172 -429 -224 -47 -31 -89 -54
-93 -52 -4 3 -8 1 -8 -5 0 -6 -19 -16 -42 -22 -24 -7 -45 -13 -48 -14 -3 -1
-18 -7 -33 -13 -16 -7 -35 -12 -43 -12 -8 0 -14 -4 -14 -9 0 -7 -41 -21 -112
-37 -5 -1 -9 -2 -10 -4 -8 -5 -150 -23 -293 -35 -71 -6 -116 -15 -130 -24 -5
-4 -32 -16 -60 -26 -27 -10 -79 -33 -115 -50 -36 -18 -105 -40 -155 -50 -49
-9 -96 -22 -102 -27 -7 -6 -13 -8 -13 -5 0 6 -39 -9 -125 -48 -58 -26 -106
-37 -133 -30 -15 4 -45 9 -67 11 -51 6 -105 23 -105 34 0 6 39 49 173 190 13
14 32 39 42 55 10 17 24 35 30 40 18 16 115 184 115 199 0 7 6 19 14 25 35 30
58 248 29 283 -7 8 -10 18 -7 21 3 3 1 12 -5 19 -6 7 -19 24 -29 37 -14 18
-28 24 -53 23 -18 0 -35 -6 -37 -11 -2 -6 -10 -11 -17 -11 -21 0 -26 -15 -12
-44 7 -14 20 -26 30 -26 24 0 37 -40 37 -115 0 -54 -6 -75 -38 -137 -69 -134
-175 -281 -287 -398 -91 -96 -121 -136 -173 -231 -84 -152 -277 -410 -315
-420 -29 -8 -28 -10 -42 71 -3 19 -27 73 -54 120 -27 47 -57 105 -67 130 -23
57 -88 173 -128 225 -31 41 -76 86 -142 143 -22 18 -55 46 -74 63 -82 71 -181
141 -250 178 -41 21 -76 43 -78 49 -5 16 138 142 246 214 57 38 126 90 155
116 29 26 68 58 87 71 19 14 67 54 105 91 39 37 84 75 100 86 17 10 38 26 47
34 24 22 119 72 125 66 3 -3 11 1 19 8 7 8 39 22 71 32 32 10 82 28 111 41 29
13 65 23 80 23 15 0 37 7 49 15 12 8 36 17 55 19 101 14 161 33 155 51 -3 8
72 31 121 37 6 1 12 4 12 8 0 4 6 7 13 8 20 1 97 31 123 48 13 9 24 14 24 10
0 -11 90 52 143 100 103 94 98 90 227 162 61 34 204 125 210 133 3 4 47 22 99
39 121 40 311 73 374 65 26 -3 71 -8 100 -11 29 -3 59 -8 67 -11 8 -3 20 -7
25 -7 37 -4 152 -53 170 -72 12 -13 31 -24 43 -24 11 0 43 -18 71 -40 28 -22
54 -40 58 -40 7 0 30 -10 115 -51 33 -17 191 -39 277 -40 66 0 102 5 157 24
111 38 208 111 219 165 2 9 6 24 10 33 7 18 -3 28 -34 34 -12 2 -33 -12 -60
-41 -54 -59 -195 -123 -276 -126 -29 -1 -166 11 -195 17 -48 10 -131 38 -136
46 -5 9 7 11 76 14 96 4 220 58 289 125 20 20 54 49 76 65 81 60 126 121 139
187 6 31 3 41 -14 55 -11 10 -20 24 -20 31 0 8 -9 12 -22 10 -13 -2 -22 -9
-21 -15 2 -7 -4 -10 -13 -6 -11 4 -14 0 -10 -20 3 -15 -1 -31 -10 -38 -12 -10
-13 -9 -8 7 5 18 5 18 -10 0 -9 -11 -16 -14 -16 -8 0 7 -6 12 -14 12 -7 0 -20
-21 -28 -47 -14 -42 -19 -48 -39 -45 -13 2 -21 0 -16 -4 4 -4 -12 -17 -35 -28
-92 -45 -450 -19 -496 35 -10 11 -32 36 -49 56 -18 19 -33 39 -33 44 0 5 -6 9
-14 9 -7 0 -39 25 -71 55 -32 30 -61 55 -63 55 -3 0 -13 10 -23 22 -11 11 -19
17 -19 12 0 -5 -7 0 -15 10 -8 11 -15 17 -15 13 0 -9 -77 40 -105 67 -11 10
-38 31 -59 47 -21 16 -36 29 -32 29 4 0 1 6 -6 14 -7 8 -16 12 -19 10 -3 -2
-17 8 -30 22 -13 14 -41 35 -61 47 -21 11 -38 24 -38 28 0 4 -8 10 -18 13 -24
8 -132 119 -132 136 0 7 17 17 50 28 8 3 47 7 85 8 98 4 144 11 190 29 59 23
128 13 171 -24z m-2499 -143 c-3 -8 -6 -5 -6 6 -1 11 2 17 5 13 3 -3 4 -12 1
-19z m-3747 -242 c0 -8 -4 -17 -9 -21 -6 -3 -9 4 -8 15 1 23 17 28 17 6z
m-384 -91 c-8 -8 -20 -15 -27 -15 -7 0 -4 6 7 15 25 19 40 19 20 0z m2049
-209 c17 -3 53 -9 80 -12 28 -3 55 -9 60 -14 6 -4 23 -10 38 -14 15 -4 25 -11
22 -16 -4 -6 1 -13 10 -16 24 -9 35 -37 40 -101 3 -32 8 -78 10 -103 3 -25 8
-83 11 -130 3 -47 7 -103 9 -125 2 -22 7 -107 10 -190 3 -82 8 -186 10 -230 3
-44 7 -192 10 -330 7 -300 11 -379 21 -423 l7 -33 -39 16 c-37 16 -108 37
-184 56 -46 11 -181 23 -252 22 -61 0 -97 -17 -123 -57 -25 -38 -45 -263 -31
-353 11 -76 28 -143 37 -149 5 -3 7 -10 4 -15 -4 -5 -2 -9 3 -9 4 0 15 -16 22
-36 8 -20 26 -42 40 -49 14 -7 36 -23 50 -35 59 -52 169 -91 346 -124 49 -10
99 -19 112 -22 14 -3 22 -12 22 -24 0 -11 6 -20 13 -21 9 0 9 -2 0 -5 -8 -4
-9 -13 -4 -27 5 -12 12 -49 16 -82 4 -32 9 -68 12 -80 10 -45 17 -288 17 -600
l-1 -330 -39 -22 c-39 -21 -78 -31 -304 -77 -163 -33 -219 -42 -415 -61 -33
-4 -121 -15 -195 -25 -134 -18 -329 -34 -382 -31 -16 1 -28 -2 -28 -6 0 -5
-69 -8 -153 -8 -83 0 -170 -4 -192 -9 -22 -4 -170 -8 -330 -7 -311 1 -404 4
-475 15 -25 4 -56 8 -70 10 -14 1 -30 5 -35 7 -6 3 -21 5 -35 5 -14 -1 -28 2
-31 7 -3 4 -23 8 -45 9 -43 1 -101 26 -125 54 -24 28 -59 118 -63 162 -2 22
-8 48 -14 58 -5 11 -13 62 -17 114 -3 52 -8 97 -10 100 -1 3 -6 44 -9 92 -3
48 -10 97 -15 111 -13 34 -20 111 -26 297 -3 91 -8 194 -11 230 -3 36 -7 189
-9 340 -2 151 -6 340 -10 420 -4 80 -8 183 -10 230 -4 81 -7 142 -21 410 -12
249 -1 767 20 864 7 34 12 70 10 79 -1 9 1 17 5 17 5 0 6 11 3 25 -2 13 -1 33
4 42 4 10 8 21 9 26 2 4 4 10 5 15 1 4 2 15 1 24 -3 22 49 44 121 52 67 8 114
14 154 20 17 3 71 8 120 11 49 4 107 11 130 15 62 14 262 21 694 25 217 2 442
6 500 9 58 3 163 8 235 11 71 4 131 7 132 9 5 4 500 -3 528 -8z m-5432 -113
c-3 -10 -11 -25 -18 -33 -6 -8 -25 -42 -41 -74 -48 -97 -57 -113 -99 -162 -76
-91 -241 -264 -252 -264 -2 0 -30 -22 -62 -50 -31 -27 -73 -56 -94 -65 -20 -8
-37 -19 -37 -24 0 -13 -79 -34 -140 -36 -43 -3 -62 2 -87 18 -18 12 -33 24
-33 27 0 4 18 17 41 30 22 14 46 30 52 35 24 20 82 62 92 66 6 2 51 31 100 63
64 42 132 102 235 207 125 128 233 219 260 219 4 0 24 14 45 30 44 35 46 36
38 13z m10474 -91 c-24 -5 -67 6 -67 17 0 5 19 4 43 -2 26 -7 35 -13 24 -15z
m-8643 -481 c3 -4 -6 -6 -19 -3 -14 2 -25 6 -25 8 0 8 39 4 44 -5z m4561 -82
c3 -3 -6 -32 -19 -65 -24 -59 -35 -141 -23 -179 10 -31 18 -75 24 -126 6 -51
-18 -139 -43 -160 -28 -23 -83 -135 -98 -199 -9 -36 -16 -96 -16 -135 0 -73
-21 -137 -53 -164 -10 -7 -17 -20 -17 -27 0 -16 -26 -19 -34 -5 -12 19 -169
68 -222 70 -11 1 -21 7 -21 14 -1 6 -4 44 -8 82 -3 39 -8 160 -11 270 -2 110
-5 226 -7 258 -2 52 -1 57 19 57 43 0 164 73 227 137 34 35 57 66 58 79 1 7 2
19 3 26 0 6 17 16 36 21 19 5 40 13 46 18 12 10 122 37 141 34 7 0 15 -3 18
-6z m-346 -86 c-31 -42 -74 -83 -86 -83 -7 0 -13 -4 -13 -8 0 -13 -75 -44 -96
-40 -14 2 -19 12 -19 41 0 32 5 42 31 58 17 10 66 25 110 33 43 8 81 15 83 15
2 1 -2 -7 -10 -16z m-3544 -83 c-3 -5 -14 -10 -23 -9 -14 0 -13 2 3 9 27 11
27 11 20 0z m-51 -12 c-3 -5 -18 -7 -34 -6 -16 1 -26 6 -24 10 3 5 18 7 34 6
16 -1 26 -6 24 -10z m-2528 -13 c-22 -16 -57 -21 -40 -6 7 8 29 15 54 20 3 0
-4 -6 -14 -14z m2761 -738 c0 -39 4 -192 9 -338 l7 -266 -69 -18 c-38 -9 -80
-21 -94 -26 -14 -5 -38 -11 -53 -13 -15 -3 -51 -11 -80 -19 -29 -8 -79 -20
-112 -27 -33 -8 -80 -25 -105 -39 -25 -14 -48 -26 -51 -26 -3 0 -14 -8 -24
-18 -17 -18 -18 -17 -37 25 -10 23 -22 45 -26 48 -8 6 -46 88 -48 105 -1 5 -2
16 -3 23 0 6 -12 12 -26 12 -14 0 -28 6 -31 14 -3 9 -12 12 -21 9 -10 -4 -14
-2 -10 4 4 7 -20 10 -72 9 -78 -1 -78 -1 -92 29 -7 17 -12 34 -10 40 1 5 0 7
-4 3 -11 -10 -55 33 -55 54 0 12 12 24 33 32 17 7 41 17 52 21 75 30 245 26
245 -6 0 -22 52 -7 83 24 18 17 57 52 86 77 30 25 63 54 75 66 12 11 38 31 59
43 21 13 44 29 52 37 8 8 16 14 17 14 7 -3 44 15 56 27 7 7 20 13 28 13 8 0
14 4 14 8 0 5 19 17 43 28 23 10 47 22 52 27 77 59 101 77 105 77 3 0 6 -33 7
-73z m2863 -77 c89 -22 152 -44 186 -66 30 -20 84 -28 84 -12 0 7 20 9 67 5
57 -6 91 -19 241 -94 97 -48 216 -112 266 -142 95 -58 168 -77 228 -60 28 8
122 76 168 121 14 14 62 52 106 85 45 33 92 70 105 82 13 12 29 19 35 17 7 -3
18 9 24 25 7 16 13 29 14 29 1 0 36 -17 78 -39 84 -42 218 -130 218 -143 0 -4
14 -20 32 -35 121 -106 218 -199 218 -210 0 -7 4 -13 9 -13 5 0 12 -8 15 -17
3 -10 22 -45 40 -78 33 -58 46 -102 27 -90 -5 3 -16 -1 -23 -9 -8 -7 -28 -21
-46 -30 -18 -9 -32 -21 -32 -26 0 -5 -8 -11 -19 -15 -10 -3 -31 -19 -47 -35
-16 -16 -33 -30 -38 -30 -5 0 -50 -38 -101 -84 -51 -46 -119 -102 -152 -124
-32 -22 -67 -49 -79 -60 -11 -11 -36 -28 -55 -37 -19 -10 -36 -21 -39 -24 -37
-45 -163 -72 -309 -66 -78 3 -209 30 -221 45 -5 6 -38 22 -50 24 -3 1 -36 21
-74 46 -38 25 -77 49 -87 55 -11 5 -19 13 -19 17 0 5 -7 8 -15 8 -8 0 -15 3
-15 8 0 4 -16 16 -35 27 -31 16 -80 61 -140 126 -8 9 -15 20 -15 25 0 5 -8 17
-17 25 -10 9 -34 34 -53 55 -71 78 -92 91 -172 98 -66 7 -145 22 -308 58 -63
14 -180 76 -227 121 -65 61 -84 167 -67 362 10 109 9 108 122 100 54 -4 131
-15 172 -25z m1325 -70 c-3 -5 -12 -10 -18 -10 -7 0 -6 4 3 10 19 12 23 12 15
0z m-5097 -520 c33 0 52 -16 52 -45 0 -11 8 -32 17 -45 10 -14 35 -58 56 -99
l37 -74 -46 7 c-26 3 -55 6 -65 6 -19 0 -32 11 -69 60 -38 49 -49 83 -46 142
3 64 14 89 28 64 5 -9 21 -16 36 -16z m432 -695 c0 -13 -18 -3 -23 13 -2 9 -8
26 -12 37 -4 11 2 5 14 -13 12 -18 21 -35 21 -37z"/>
<path d="M7780 7370 c-49 -9 -75 -25 -106 -65 -23 -31 -26 -42 -21 -84 9 -78
63 -160 106 -161 9 -1 39 -3 67 -6 40 -4 61 -1 90 14 34 17 41 28 56 77 l17
58 -28 61 c-48 102 -84 123 -181 106z"/>
<path d="M6555 7211 c-56 -34 -82 -70 -101 -137 -17 -64 -17 -65 4 -94 12 -16
22 -33 23 -37 0 -4 23 -23 51 -42 39 -25 62 -33 94 -33 52 1 121 36 130 65 3
12 16 32 27 45 11 12 17 22 13 22 -4 0 -2 8 3 19 20 37 -34 146 -99 198 -24
19 -110 16 -145 -6z"/>
<path d="M7954 6987 c-23 -14 -46 -16 -112 -14 -45 2 -84 1 -86 -2 -2 -3 -2
-18 1 -33 17 -87 293 -49 288 40 -1 23 -5 27 -32 27 -17 0 -43 -8 -59 -18z"/>
<path d="M7215 6879 c-22 -10 -59 -23 -82 -29 -43 -11 -98 -51 -86 -63 3 -4 1
-7 -5 -7 -15 0 -16 -65 0 -93 16 -31 38 -52 38 -36 0 8 7 5 20 -6 19 -17 20
-17 21 1 1 10 1 22 0 27 0 4 4 7 9 7 7 0 8 13 5 34 -6 31 -5 34 27 40 62 12
138 50 138 69 0 10 5 15 10 12 17 -11 11 21 -7 37 -30 25 -46 26 -88 7z"/>
<path d="M6529 6822 c-1 -4 -1 -11 0 -16 1 -5 -4 -4 -12 3 -12 9 -16 7 -20
-11 -15 -55 45 -84 150 -73 69 7 106 21 96 37 -4 7 -6 21 -5 31 3 16 -4 17
-68 12 -49 -3 -81 0 -106 10 -18 7 -35 11 -35 7z"/>
<path d="M5268 6289 c-21 -5 -57 -20 -79 -35 -23 -14 -47 -27 -53 -28 -37 -6
-40 -24 -39 -266 0 -143 3 -180 16 -205 9 -16 17 -35 17 -41 0 -6 9 -21 20
-34 17 -20 31 -23 107 -26 203 -8 227 -7 273 14 25 11 59 22 76 26 16 4 41 21
56 39 26 33 26 36 23 173 -3 152 -4 165 -34 271 -25 91 -24 90 -69 102 -50 14
-268 21 -314 10z m82 -102 c0 -4 5 -5 12 -1 11 7 57 8 156 5 27 -1 29 -5 46
-75 9 -40 19 -93 21 -117 20 -209 23 -198 -78 -233 -73 -25 -93 -27 -181 -24
l-99 3 -19 34 c-15 26 -19 58 -22 158 -4 185 -2 191 66 228 56 30 98 40 98 22z"/>
<path d="M5252 6131 c-11 -15 -23 -48 -27 -74 -6 -38 -4 -47 11 -54 31 -15 91
-16 100 -1 13 20 15 86 4 93 -6 4 -8 11 -5 16 8 12 -19 39 -44 44 -11 2 -26
-7 -39 -24z"/>
<path d="M5261 5924 c-20 -23 -16 -73 8 -96 12 -10 21 -16 21 -12 0 3 6 1 13
-5 20 -16 50 21 54 68 4 44 2 47 -47 55 -25 4 -39 2 -49 -10z"/>
<path d="M6505 5370 c-49 -25 -118 -98 -142 -153 -12 -26 -10 -30 17 -57 39
-38 69 -45 128 -30 116 29 166 92 143 179 -20 80 -68 99 -146 61z"/>
<path d="M6609 5096 c-2 -2 -20 -6 -40 -8 -20 -2 -62 -19 -95 -38 -55 -33 -61
-34 -88 -21 -41 19 -161 20 -216 1 -43 -15 -74 -51 -85 -97 -2 -10 -9 -36 -14
-58 -9 -36 -23 -134 -23 -160 -1 -66 50 -194 108 -271 25 -32 114 -83 155 -88
13 -2 31 -6 39 -9 58 -22 238 -27 265 -7 6 4 30 10 55 13 131 16 280 152 280
254 0 34 -19 63 -72 111 -46 42 -57 79 -44 152 23 134 6 201 -56 215 -38 8
-163 16 -169 11z m138 -110 c3 -3 0 -21 -7 -40 -15 -45 -20 -196 -7 -196 6 0
8 -3 4 -6 -12 -12 22 -61 67 -98 l46 -38 -17 -30 c-31 -51 -84 -97 -132 -112
-125 -41 -195 -43 -338 -12 -60 13 -153 68 -153 90 0 3 -14 29 -31 58 -30 50
-31 57 -26 128 6 78 11 110 28 172 8 32 15 38 44 44 30 5 77 2 137 -9 9 -2 22
-8 30 -14 21 -16 48 -23 48 -13 0 6 8 10 17 10 9 0 31 14 49 31 22 21 45 32
80 38 50 7 153 5 161 -3z"/>
<path d="M11055 10600 c-3 -5 -2 -10 4 -10 5 0 13 5 16 10 3 6 2 10 -4 10 -5
0 -13 -4 -16 -10z"/>
<path d="M12386 10254 c-24 -24 -20 -39 24 -81 54 -51 97 -73 142 -73 25 0 38
-5 38 -13 0 -13 6 -15 43 -18 25 -2 233 30 259 40 24 9 27 15 24 43 -3 32 -4
32 -52 29 -27 -1 -65 -6 -84 -11 -54 -14 -170 -20 -188 -10 -10 5 -29 11 -45
15 -15 3 -44 20 -65 39 -56 50 -77 59 -96 40z"/>
<path d="M13003 10115 c-71 -66 -204 -114 -225 -82 -11 16 -28 -11 -20 -31 3
-10 1 -13 -6 -8 -17 10 -15 -5 4 -32 18 -27 82 -30 137 -7 20 8 38 15 41 15 7
0 -18 -65 -29 -72 -13 -10 3 -25 36 -33 24 -6 29 -1 60 52 19 32 36 63 38 68
2 6 7 12 10 15 13 10 61 99 61 113 0 13 -39 37 -60 37 -5 0 -26 -16 -47 -35z"/>
<path d="M14015 10116 c-25 -7 -37 -24 -72 -97 -63 -129 -164 -225 -262 -247
-47 -10 -165 -4 -209 12 -27 10 -50 13 -60 7 -22 -11 -43 -4 -63 21 -14 17
-23 19 -73 13 -56 -7 -56 -8 -34 -23 13 -9 26 -21 30 -26 3 -6 18 -24 33 -41
14 -16 44 -66 65 -110 46 -94 65 -210 56 -349 -7 -104 -13 -131 -41 -176 -12
-19 -25 -45 -29 -57 -10 -30 -17 -29 -50 6 -37 39 -80 38 -84 -1 -2 -20 8 -38
42 -75 25 -26 55 -67 66 -90 11 -24 24 -43 29 -43 5 0 16 -3 24 -6 25 -9 37
44 19 89 -13 35 -13 39 4 52 11 8 15 15 9 15 -6 0 -6 3 0 8 6 4 29 43 50 87
l40 80 0 188 c0 162 2 186 15 181 25 -10 103 -15 119 -8 9 4 26 8 37 10 88 11
244 151 336 301 61 99 102 210 86 230 -6 7 -14 11 -18 8 -4 -3 -14 8 -21 23
-13 24 -17 26 -44 18z m-195 -392 c-88 -89 -196 -131 -285 -110 -56 13 -72 24
-94 61 -19 33 -20 37 -4 31 96 -37 239 -29 331 18 18 9 32 14 32 10 0 -3 14 6
31 20 52 44 46 29 -11 -30z"/>
<path d="M13140 9968 c-43 -23 -92 -89 -70 -96 5 -2 10 -9 10 -17 0 -7 8 -19
17 -26 11 -10 14 -10 9 -1 -5 8 0 12 14 12 12 0 24 9 29 23 15 38 37 49 86 45
25 -2 45 0 45 4 0 5 7 8 16 8 8 0 12 5 9 10 -3 6 -2 10 3 10 6 0 8 9 5 19 -10
38 -107 42 -173 9z"/>
<path d="M11880 9236 c-29 -36 7 -131 92 -237 11 -13 70 -50 88 -54 3 -1 16
-5 30 -9 39 -11 132 -14 163 -5 25 7 28 6 21 -9 -21 -45 1 -206 38 -276 17
-32 48 -70 48 -59 0 12 40 12 41 1 8 -68 45 -164 66 -172 9 -4 11 -1 7 5 -4 7
-1 10 7 7 8 -3 20 2 28 9 11 11 11 22 1 58 -18 63 -20 163 -4 210 11 34 11 41
-1 48 -8 4 -15 15 -15 22 0 8 -9 15 -20 15 -11 0 -20 -7 -20 -15 0 -8 -4 -15
-8 -15 -13 0 -32 -47 -32 -78 l-1 -27 -19 23 c-17 21 -50 138 -50 180 0 17 10
20 84 25 79 6 175 27 204 46 14 8 24 60 13 62 -3 0 -17 2 -30 5 -14 2 -45 -2
-71 -11 -55 -18 -179 -35 -185 -24 -3 4 -21 10 -40 13 -26 5 -35 12 -35 27 0
11 -4 18 -9 14 -16 -9 -144 -7 -172 3 -61 24 -147 137 -152 199 -2 26 -37 44
-37 20 0 -8 -3 -8 -9 1 -6 10 -10 10 -21 -2z"/>
<path d="M13260 8865 c-15 -18 -6 -47 31 -103 36 -54 47 -68 83 -104 l29 -29
19 32 20 32 -60 86 c-33 47 -64 86 -70 86 -6 0 -14 3 -18 8 -11 11 -20 9 -34
-8z"/>
<path d="M12881 8825 c-44 -58 -79 -220 -48 -223 6 0 22 -4 33 -7 20 -6 23 -2
29 37 4 23 18 74 31 111 12 38 20 75 17 83 -6 15 -50 15 -62 -1z"/>
<path d="M11595 8659 c-4 -6 -5 -12 -2 -15 2 -3 7 2 10 11 7 17 1 20 -8 4z"/>
</g>
</svg>
