<?xml version="1.0" standalone="no"?>
<!DOCTYPE svg PUBLIC "-//W3C//DTD SVG 20010904//EN"
 "http://www.w3.org/TR/2001/REC-SVG-20010904/DTD/svg10.dtd">
<svg version="1.0" xmlns="http://www.w3.org/2000/svg"
 width="2048.000000pt" height="2048.000000pt" viewBox="0 0 2048.000000 2048.000000"
 preserveAspectRatio="xMidYMid meet">

<g transform="translate(0.000000,2048.000000) scale(0.100000,-0.100000)"
fill="hsl(224, 59%, 37%)" stroke="none">
<path d="M5857 17699 c-59 -9 -116 -21 -125 -25 -9 -4 -23 -8 -30 -10 -8 -1
-21 -6 -30 -10 -9 -4 -24 -8 -33 -10 -15 -3 -34 -12 -186 -87 -35 -17 -63 -34
-63 -39 0 -4 -8 -8 -17 -8 -10 0 -38 -11 -62 -25 -23 -14 -47 -25 -51 -25 -5
0 -39 -14 -77 -32 -37 -18 -74 -33 -81 -34 -7 -1 -37 -18 -66 -38 -30 -20 -58
-36 -63 -36 -13 0 -71 -49 -142 -120 -38 -37 -93 -79 -131 -98 -121 -63 -289
-203 -306 -254 -3 -10 -9 -18 -12 -18 -4 0 -16 -16 -26 -35 -11 -19 -23 -35
-28 -35 -4 0 -8 -5 -8 -11 0 -6 -13 -29 -28 -52 -16 -23 -36 -55 -44 -72 -31
-60 -81 -145 -144 -245 -23 -36 -44 -73 -47 -82 -4 -10 -11 -18 -17 -18 -6 0
-8 -4 -5 -10 3 -5 2 -10 -4 -10 -5 0 -12 -9 -16 -19 -3 -10 -23 -46 -45 -80
-22 -34 -37 -61 -35 -61 3 0 -3 -17 -13 -37 -11 -21 -19 -56 -18 -78 1 -22 -4
-53 -10 -70 -9 -24 -13 -160 -4 -160 1 0 4 -15 7 -33 2 -18 13 -65 23 -104 10
-40 17 -76 14 -80 -3 -4 -1 -8 4 -8 4 0 16 -26 26 -57 25 -77 128 -275 172
-328 19 -24 31 -45 27 -48 -4 -2 -27 -5 -50 -5 -23 -1 -57 -11 -75 -22 -18
-11 -40 -23 -48 -27 -48 -21 -122 -135 -76 -117 8 3 16 -3 19 -15 4 -16 10
-19 24 -14 32 14 63 37 63 49 0 19 53 36 125 39 91 5 117 -14 139 -99 9 -33
20 -64 25 -69 5 -5 -3 -36 -21 -75 -24 -53 -31 -83 -33 -144 -1 -43 2 -75 6
-72 5 3 9 -1 9 -9 0 -7 13 -33 29 -58 l30 -44 -19 -80 c-11 -44 -19 -102 -20
-130 0 -53 30 -147 49 -153 6 -2 11 -10 11 -18 0 -8 3 -14 8 -14 4 0 14 -13
23 -29 18 -30 94 -83 167 -116 l43 -19 -29 -23 c-16 -12 -33 -34 -36 -48 -4
-14 -10 -24 -14 -21 -4 2 -17 -9 -27 -25 -11 -16 -23 -29 -27 -29 -5 0 -8 -6
-8 -14 0 -8 -3 -16 -8 -18 -4 -2 -28 -32 -54 -68 -26 -36 -63 -86 -83 -112
-19 -25 -35 -51 -35 -57 0 -6 -4 -11 -9 -11 -5 0 -14 -13 -21 -30 -7 -16 -23
-42 -36 -57 -13 -16 -36 -53 -51 -83 -14 -30 -30 -57 -33 -60 -12 -8 -50 -83
-50 -98 0 -7 -7 -15 -15 -18 -8 -4 -15 -14 -15 -23 0 -10 -7 -26 -15 -37 -8
-10 -15 -25 -15 -32 0 -7 -10 -33 -21 -57 -12 -25 -19 -48 -16 -52 3 -3 0 -12
-8 -20 -8 -8 -15 -23 -15 -33 0 -23 -72 -162 -99 -192 -12 -12 -21 -28 -21
-35 0 -7 -3 -13 -7 -13 -5 0 -19 -25 -33 -55 -14 -30 -28 -55 -31 -55 -6 0
-25 -39 -61 -127 -6 -15 -10 -34 -9 -40 1 -7 -2 -13 -7 -13 -4 0 -9 -17 -10
-37 -1 -21 -7 -60 -13 -87 -8 -31 -9 -83 -4 -145 13 -176 13 -211 0 -268 -7
-32 -11 -61 -9 -65 3 -5 2 -14 -2 -20 -9 -14 -11 -25 -18 -80 -5 -43 -84 -182
-161 -283 -15 -20 -32 -50 -99 -182 -21 -40 -41 -73 -47 -73 -5 0 -8 -3 -7 -7
4 -12 -44 -105 -66 -130 -11 -13 -17 -23 -13 -23 3 0 -7 -26 -22 -57 -46 -92
-64 -190 -62 -328 1 -87 2 -99 11 -105 5 -3 9 -18 11 -35 2 -16 7 -36 12 -42
5 -7 6 -13 2 -13 -4 0 -2 -7 5 -15 7 -8 10 -15 6 -15 -4 0 0 -13 9 -29 8 -17
17 -38 18 -48 2 -10 9 -31 16 -47 88 -215 138 -300 256 -431 57 -63 72 -87 73
-112 0 -18 4 -38 8 -45 4 -7 9 -28 11 -47 2 -20 7 -38 11 -41 4 -3 8 -18 10
-35 2 -16 9 -43 17 -60 17 -40 28 -68 29 -77 1 -4 8 -16 17 -26 9 -10 24 -40
34 -65 10 -26 22 -47 26 -47 5 0 8 -6 7 -12 -2 -7 3 -12 11 -10 8 2 11 -3 8
-13 -4 -8 -2 -15 3 -15 6 0 10 -8 10 -18 0 -11 8 -28 17 -40 10 -11 29 -34 43
-52 46 -58 161 -169 254 -243 158 -127 210 -158 481 -287 110 -52 202 -97 205
-101 3 -3 48 -27 101 -54 l95 -48 -3 -51 c-8 -109 -25 -234 -39 -289 -18 -71
-73 -186 -109 -229 -24 -29 -25 -33 -11 -44 10 -7 14 -18 10 -28 -6 -16 8 -21
46 -17 18 2 70 60 70 78 0 7 4 13 8 13 11 0 82 153 88 190 1 8 7 38 12 65 6
28 13 77 16 110 14 129 18 160 21 164 6 5 135 -20 136 -28 3 -14 7 -51 13
-133 3 -47 9 -93 12 -102 4 -10 0 -18 -10 -22 -9 -3 -16 -16 -16 -29 0 -25
-38 -154 -50 -170 -4 -5 -12 -26 -19 -45 -11 -35 -108 -210 -146 -264 -34 -49
-145 -156 -161 -156 -10 0 -43 -44 -44 -57 0 -7 7 -13 15 -13 8 0 15 -6 15
-14 0 -34 18 -27 144 56 11 7 26 22 35 32 9 10 28 33 44 51 15 18 27 36 27 39
0 4 9 16 20 28 11 12 20 28 20 35 0 7 5 13 10 13 6 0 20 21 33 48 12 26 30 56
40 66 9 11 17 25 17 32 0 7 7 25 15 41 8 15 22 46 31 68 l17 40 14 -65 c16
-73 30 -124 80 -290 32 -108 48 -154 95 -275 11 -27 21 -54 22 -60 8 -28 26
-64 35 -70 6 -3 11 -14 11 -24 0 -10 7 -24 16 -32 8 -7 27 -34 40 -61 14 -28
31 -48 41 -48 9 0 13 -3 10 -7 -11 -10 163 -173 185 -173 6 0 9 -3 5 -6 -10
-11 86 -56 106 -50 11 3 29 1 39 -5 13 -7 24 -6 39 5 l21 14 -21 11 c-17 10
-19 15 -9 30 14 23 -3 42 -85 96 -33 21 -61 44 -64 51 -3 7 -13 16 -22 19 -10
3 -24 18 -32 33 -7 15 -21 38 -31 51 -10 13 -18 35 -18 50 0 14 -7 35 -15 45
-8 11 -15 30 -15 42 0 13 -4 25 -9 28 -4 3 -11 33 -15 67 -4 33 -12 72 -17 86
-5 14 -14 59 -20 99 -5 40 -12 83 -15 96 -16 75 -26 552 -13 643 4 28 10 68
12 90 8 73 9 73 81 55 76 -19 92 -31 102 -73 12 -57 102 -225 124 -232 11 -3
45 -33 76 -65 32 -32 75 -66 98 -76 23 -10 47 -25 55 -32 7 -7 26 -16 42 -19
16 -3 29 -9 29 -14 0 -5 5 -9 11 -9 5 0 43 -16 83 -36 40 -19 83 -36 94 -37
12 -1 22 -5 22 -10 0 -4 5 -5 10 -2 6 3 10 1 10 -5 0 -7 7 -9 16 -6 8 3 29 -1
45 -9 16 -9 34 -13 39 -10 6 3 10 2 10 -4 0 -5 9 -8 20 -6 11 2 20 -1 20 -7 0
-5 6 -8 14 -5 7 3 31 1 52 -4 22 -6 53 -12 69 -15 77 -11 94 -14 119 -23 14
-6 26 -8 26 -6 0 3 10 -1 23 -9 12 -7 31 -12 42 -10 10 1 24 -1 30 -6 5 -4 32
-11 60 -15 27 -3 52 -9 55 -13 6 -8 21 -12 73 -19 20 -3 37 -9 37 -13 0 -4 12
-7 26 -7 15 0 29 -5 33 -10 3 -6 18 -9 34 -7 15 1 27 0 27 -4 0 -4 17 -8 37
-10 20 -1 42 -7 50 -13 9 -9 13 -8 13 0 0 8 6 9 18 2 9 -5 20 -9 25 -10 4 -1
8 -1 10 -2 24 -7 165 -17 334 -22 69 -2 91 -17 145 -96 45 -64 64 -139 73
-288 3 -46 6 -88 7 -95 2 -8 -5 -12 -17 -9 -84 15 -294 -54 -548 -180 -144
-72 -203 -107 -255 -152 -134 -118 -238 -226 -271 -283 -19 -33 -59 -93 -88
-136 -29 -42 -53 -79 -53 -83 0 -4 -6 -21 -14 -38 -22 -53 -38 -92 -37 -94 0
-2 -6 -22 -15 -45 -35 -99 -40 -208 -10 -246 11 -15 26 -30 33 -35 28 -18 46
-41 33 -45 -6 -2 -37 -30 -68 -61 -32 -32 -66 -64 -78 -72 -27 -18 -97 -76
-138 -114 -17 -16 -63 -57 -101 -90 -38 -33 -87 -77 -108 -98 -22 -20 -42 -37
-46 -37 -4 0 -14 -8 -22 -17 -28 -32 -133 -128 -169 -155 -19 -14 -93 -83
-164 -152 -72 -69 -134 -126 -139 -126 -11 0 -87 -79 -87 -91 0 -4 -6 -12 -13
-16 -8 -4 -22 -23 -32 -40 -11 -18 -23 -33 -27 -33 -4 0 -22 -16 -40 -36 -18
-20 -43 -47 -55 -60 -12 -13 -19 -24 -16 -24 3 0 -13 -18 -35 -41 -23 -22 -42
-43 -42 -45 0 -3 -6 -11 -12 -18 -7 -7 -24 -28 -38 -46 -14 -18 -33 -42 -43
-54 -10 -11 -28 -34 -40 -49 -12 -16 -28 -35 -34 -42 -7 -8 -13 -21 -13 -29 0
-9 -4 -16 -8 -16 -5 0 -16 -19 -27 -43 -10 -23 -21 -44 -25 -47 -4 -3 -29 -72
-55 -155 -25 -82 -53 -164 -60 -180 -8 -17 -16 -42 -19 -55 -2 -14 -11 -46
-19 -72 -8 -26 -12 -49 -10 -52 11 -11 -7 -37 -19 -29 -7 4 -19 8 -27 10 -17
2 -114 5 -121 3 -3 0 -68 -3 -145 -6 -77 -2 -165 -6 -195 -9 -30 -2 -93 -7
-140 -10 -96 -5 -110 -7 -128 -19 -7 -4 -16 -6 -18 -3 -3 3 -20 1 -37 -4 -33
-9 -287 -12 -367 -4 -25 3 -106 4 -180 4 -155 -2 -427 -1 -545 1 -68 2 -137 2
-240 0 -70 0 -111 2 -222 12 -13 1 -23 6 -23 10 0 5 -9 4 -20 -2 -11 -6 -20
-17 -20 -25 0 -8 -4 -15 -10 -15 -26 0 -6 -30 28 -41 82 -28 148 -31 888 -34
557 -3 724 0 775 10 35 7 125 16 199 20 74 4 138 9 142 11 4 3 71 5 150 5 194
-1 258 7 258 29 0 34 14 29 39 -14 47 -79 137 -186 158 -186 7 0 13 -4 13 -9
0 -5 26 -22 58 -37 31 -16 63 -34 70 -41 7 -7 20 -13 28 -13 8 0 31 -10 52
-23 53 -32 92 -48 103 -42 5 4 9 2 9 -3 0 -10 91 -41 142 -48 18 -3 50 -12 72
-20 92 -36 492 -108 716 -129 36 -4 72 -9 80 -12 8 -3 31 -5 50 -5 19 0 55 -4
80 -10 25 -6 70 -12 100 -14 103 -7 305 -16 325 -15 11 1 54 1 95 1 41 -1 91
-1 110 -1 19 0 118 5 220 11 102 6 199 9 215 7 17 -3 84 -21 149 -41 90 -27
137 -36 192 -36 79 0 99 -13 88 -56 -8 -31 13 -72 45 -88 25 -13 94 -15 472
-14 276 0 495 -4 579 -11 117 -11 399 -11 841 0 26 1 56 -2 68 -6 11 -3 21 -2
21 3 0 17 177 24 645 23 1398 -2 1808 -1 1875 4 41 3 167 7 280 10 208 5 287
10 395 21 98 10 105 11 235 18 69 4 292 9 495 11 204 3 395 7 425 9 30 3 144
7 254 11 109 3 201 7 205 9 7 4 123 14 266 22 195 11 357 24 367 30 4 2 38 7
75 10 75 5 204 27 221 37 5 4 30 9 53 12 63 8 198 41 241 59 34 14 59 35 133
105 39 37 95 103 95 113 0 5 4 7 8 4 4 -2 13 8 20 23 7 15 21 37 32 49 11 12
20 26 20 31 0 6 9 16 20 23 11 7 20 21 20 30 0 10 5 18 10 18 6 0 10 4 10 10
0 5 14 32 30 59 l31 49 130 1 c72 0 134 3 139 6 9 5 371 7 548 2 57 -2 106 1
108 5 3 5 10 6 15 2 6 -3 120 -6 254 -6 275 0 315 6 315 50 0 40 -12 52 -56
57 -21 2 -39 4 -39 5 0 1 -161 2 -358 3 -196 1 -357 -2 -357 -6 0 -5 -5 -5
-11 -2 -15 10 -119 13 -157 4 -17 -4 -34 -3 -37 1 -3 5 -15 6 -28 4 -12 -3
-56 -7 -97 -8 -41 -2 -75 -4 -75 -5 0 -1 -25 -4 -55 -6 -30 -2 -81 -7 -112 -9
-64 -6 -69 0 -40 45 32 50 55 84 73 111 11 15 19 35 19 44 0 10 3 14 7 11 7
-8 33 38 33 59 0 8 4 14 9 14 4 0 23 29 41 65 18 36 36 65 40 65 4 0 19 24 34
53 14 28 44 81 66 117 22 36 52 90 67 120 15 30 30 57 34 60 3 3 17 25 29 50
13 25 36 64 51 87 16 23 29 46 29 52 0 6 4 11 9 11 7 0 54 87 79 148 10 24 85
156 92 162 11 9 113 223 113 237 0 7 4 13 9 13 4 0 8 7 8 15 0 8 9 29 20 47
11 18 20 39 20 47 0 8 20 40 45 72 25 31 49 69 55 83 5 14 14 26 19 26 5 0 21
24 35 53 28 54 48 89 56 97 3 3 14 23 24 45 11 22 35 63 53 92 18 28 33 57 33
63 0 6 4 9 8 6 5 -3 15 10 22 29 8 19 18 35 22 35 5 0 6 5 3 10 -3 6 -2 10 3
10 4 0 18 17 29 38 12 20 33 51 47 67 14 17 26 40 26 53 0 13 4 21 9 17 5 -3
12 4 16 15 3 11 11 20 16 20 5 0 9 5 9 11 0 11 97 159 110 169 13 9 84 131
144 245 32 61 68 124 80 140 13 17 40 62 61 100 63 117 87 157 130 220 68 99
104 163 109 191 3 15 7 29 10 31 2 3 -2 22 -9 44 -8 21 -11 39 -7 39 14 0
-110 108 -130 113 -11 3 -36 0 -56 -7 -27 -10 -117 -12 -342 -11 -168 1 -305
3 -305 4 0 2 -169 4 -375 5 -206 2 -390 6 -407 10 -18 4 -33 4 -33 -1 0 -4
-204 -9 -452 -9 -776 -2 -1608 -20 -1788 -39 -19 -2 -96 -7 -170 -10 -131 -6
-358 -20 -470 -30 -261 -23 -458 -35 -640 -40 -118 -2 -271 -8 -340 -11 -159
-9 -178 -10 -335 -18 -160 -9 -244 -15 -270 -19 -24 -5 -85 -39 -85 -49 0 -4
-6 -13 -13 -20 -7 -7 -24 -31 -37 -53 -13 -22 -29 -43 -34 -47 -6 -4 -7 -8 -3
-8 4 0 -2 -15 -15 -32 -30 -42 -46 -69 -55 -88 -7 -16 -84 -141 -138 -225 -18
-27 -48 -79 -67 -115 -57 -106 -176 -314 -187 -326 -16 -20 -51 -88 -51 -101
0 -7 -4 -13 -10 -13 -5 0 -10 -6 -10 -13 0 -13 -47 -107 -105 -212 -24 -43
-101 -190 -177 -335 -12 -25 -25 -47 -28 -50 -18 -17 -73 -110 -120 -202 -30
-59 -63 -117 -73 -129 -10 -11 -23 -33 -30 -47 -6 -15 -27 -52 -47 -82 -20
-30 -63 -104 -95 -165 -101 -192 -128 -235 -170 -281 -11 -11 -63 -115 -90
-176 -8 -20 -20 -40 -25 -43 -6 -3 -10 -15 -10 -26 0 -10 -4 -19 -10 -19 -5 0
-10 -4 -10 -9 0 -17 -82 -151 -92 -151 -23 0 -47 39 -136 230 -9 19 -23 42
-30 51 -7 9 -12 20 -10 25 4 11 -44 124 -53 124 -3 0 -16 22 -29 50 -13 27
-27 47 -32 44 -4 -3 -8 4 -8 16 0 12 -20 53 -45 91 -24 38 -41 69 -37 69 4 0
-2 7 -12 15 -11 8 -16 15 -11 15 4 0 0 9 -9 19 -10 11 -15 25 -11 30 3 6 1 11
-4 11 -6 0 -11 6 -11 13 0 12 -9 31 -48 100 -12 20 -21 38 -20 40 0 1 -9 22
-22 47 -13 25 -22 46 -21 48 6 10 -1 22 -11 16 -8 -5 -9 -2 -5 9 3 10 2 17 -3
17 -5 0 -12 11 -16 25 -3 14 -9 25 -13 25 -7 0 -34 57 -29 64 2 2 -5 12 -14
22 -9 11 -18 24 -19 29 -1 6 -8 19 -15 30 -7 11 -15 34 -17 50 -3 17 -18 55
-34 85 -16 30 -46 98 -68 150 -21 52 -47 107 -57 122 -10 14 -18 29 -18 32 0
3 -20 37 -45 75 -56 86 -130 168 -187 206 -80 54 -81 58 -42 95 51 48 75 103
79 177 2 36 6 67 9 70 3 3 0 15 -6 27 -6 11 -12 35 -14 52 -1 17 -9 44 -17 61
-9 17 -14 33 -11 35 2 3 -3 22 -11 42 -9 20 -13 41 -10 46 4 6 1 10 -4 10 -6
0 -11 6 -11 13 0 16 -89 157 -99 157 -3 0 -17 10 -31 23 -14 12 -41 33 -60 47
-19 13 -37 27 -40 31 -7 9 -86 48 -107 53 -10 1 -25 6 -33 9 -25 10 -93 28
-125 33 -58 9 -58 9 -51 77 3 34 8 96 11 137 19 247 23 299 28 307 3 5 25 10
49 12 24 1 60 6 81 10 23 6 37 5 37 -1 0 -6 8 -7 18 -3 9 3 85 24 167 46 133
34 162 38 255 37 74 -2 126 3 175 16 39 10 81 19 95 21 14 1 25 3 25 5 0 1 9
3 20 4 22 3 210 50 267 68 25 7 38 18 40 31 2 13 16 25 43 34 22 7 47 16 55
20 8 3 21 7 28 9 25 5 140 63 247 124 61 35 137 78 170 97 34 19 89 59 124 88
35 30 67 52 71 50 4 -3 6 -26 4 -52 -6 -97 -15 -187 -19 -193 -2 -4 -7 -29
-11 -56 -3 -27 -10 -59 -15 -71 -5 -13 -7 -23 -4 -23 14 0 -92 -269 -115 -290
-3 -3 -27 -36 -54 -74 -32 -45 -68 -80 -105 -105 -55 -36 -78 -71 -46 -71 8 0
14 -6 13 -12 -5 -21 61 -12 86 11 12 12 27 21 33 21 6 0 27 18 46 39 19 22 38
37 40 35 3 -3 11 9 18 25 8 17 17 31 21 31 5 0 8 6 8 14 0 8 4 16 8 18 13 5
52 74 52 91 0 8 4 17 10 19 16 5 69 164 89 268 32 160 33 170 37 335 l3 160
40 75 c22 41 41 68 41 60 0 -8 12 -42 26 -75 14 -33 27 -68 29 -78 8 -36 29
-87 36 -87 4 0 13 -17 20 -37 6 -21 15 -40 18 -43 4 -3 19 -26 34 -53 42 -71
134 -158 207 -194 78 -38 141 -54 164 -41 9 5 19 7 24 5 4 -3 13 1 19 9 8 8 9
15 3 19 -5 3 -7 19 -4 35 5 22 1 31 -15 42 -12 7 -21 17 -21 22 0 5 -9 16 -19
25 -10 9 -29 35 -41 56 -11 22 -25 47 -31 55 -7 12 -25 53 -34 80 -1 3 -4 12
-8 20 -7 20 -41 124 -42 130 0 3 -4 11 -8 17 -5 7 -6 13 -2 13 3 0 -1 15 -9
34 -8 19 -21 79 -30 133 -9 54 -19 112 -22 128 -18 93 -24 384 -13 548 7 86 7
88 45 120 21 18 49 45 63 62 14 16 36 39 48 52 12 13 19 23 15 23 -4 0 -2 4 4
8 14 9 66 92 58 92 -3 0 2 7 10 16 9 8 17 22 17 30 2 22 4 28 17 51 7 12 14
41 17 64 3 22 9 49 14 58 4 9 7 30 6 48 -1 18 2 30 7 27 4 -3 8 3 9 13 2 51
13 81 39 108 89 94 185 278 197 377 3 27 14 57 23 67 14 13 30 77 44 171 1 9
5 21 9 27 4 6 10 38 13 70 3 32 7 72 10 88 12 81 14 275 4 400 -15 180 -39
324 -94 565 -24 107 -58 263 -76 345 -56 258 -116 449 -254 800 -37 94 -94
262 -127 375 -33 112 -72 234 -86 270 -33 84 -113 244 -167 334 -23 39 -61
109 -85 155 -23 46 -64 112 -89 148 -26 36 -46 69 -45 73 1 4 -8 13 -20 20
-23 12 -49 44 -142 167 -46 61 -57 85 -75 160 -60 256 -132 378 -349 593 -129
129 -194 177 -416 308 -258 153 -310 174 -600 247 -344 87 -599 117 -755 91
-25 -4 -175 -9 -335 -12 l-290 -4 70 36 c38 19 77 41 85 48 8 8 33 23 55 34
62 31 202 136 269 201 80 77 128 135 115 139 -5 2 -7 18 -3 38 l6 34 -42 -4
c-29 -2 -46 -10 -53 -22 -12 -22 -70 -79 -142 -142 -68 -58 -68 -58 -96 -72
-13 -7 -26 -16 -29 -19 -12 -16 -132 -91 -145 -91 -2 0 3 16 11 35 8 19 11 35
7 35 -5 0 -3 4 4 8 13 8 42 139 49 227 3 33 6 62 7 65 5 23 -19 73 -39 82 -13
6 -24 17 -24 25 0 22 -20 14 -30 -12 -5 -14 -14 -25 -18 -25 -5 0 -7 -33 -5
-72 5 -90 -36 -301 -65 -330 -6 -6 -12 -17 -12 -24 0 -6 -7 -17 -15 -24 -9 -7
-13 -15 -11 -17 2 -3 -3 -13 -12 -23 -10 -10 -24 -26 -32 -36 -8 -11 -24 -26
-35 -34 -17 -13 -16 -11 3 17 13 18 27 35 32 38 5 3 7 12 4 20 -4 8 1 18 10
21 9 3 20 23 26 44 13 47 22 362 11 355 -5 -2 -8 7 -8 22 0 15 -6 29 -12 31
-6 2 -11 8 -11 14 0 5 -23 30 -52 56 -28 26 -62 57 -75 69 -12 12 -44 36 -70
54 -27 18 -57 40 -68 50 -35 31 -113 52 -164 43 -63 -11 -65 -11 -71 -14 -3
-1 -16 -4 -30 -6 -13 -2 -27 -8 -30 -12 -8 -11 -28 -14 -166 -21 l-131 -6 4
76 c4 63 1 84 -16 119 -11 24 -18 47 -15 51 3 5 0 9 -5 9 -6 0 -10 3 -9 8 1 4
-3 16 -9 27 -6 11 -11 22 -11 25 2 14 -15 50 -23 50 -5 0 -9 11 -9 25 0 14 -4
25 -9 25 -5 0 -19 26 -31 57 -11 31 -27 61 -35 67 -7 6 -25 50 -38 97 -14 48
-31 98 -38 110 -7 13 -12 27 -11 32 1 4 -2 7 -6 7 -5 0 -14 17 -20 39 -7 21
-23 55 -37 75 -14 20 -25 40 -25 45 0 18 -138 123 -177 135 -13 4 -23 11 -23
16 0 7 -73 42 -95 45 -5 0 -34 8 -64 18 -29 9 -57 14 -61 12 -5 -3 -10 0 -12
6 -2 7 -67 12 -188 15 -263 5 -330 8 -330 14 0 12 -163 6 -263 -11z m383 -103
c61 -6 247 -9 266 -5 5 1 11 0 14 -1 3 -1 23 -3 45 -5 68 -6 146 -24 161 -36
8 -7 17 -9 21 -6 5 6 83 -33 111 -55 6 -6 12 -7 12 -2 0 4 11 -3 25 -16 13
-12 34 -28 46 -34 53 -27 121 -156 83 -156 -8 0 -17 7 -20 15 -4 8 -10 12 -16
9 -5 -3 -17 1 -26 9 -35 29 -147 73 -357 140 -94 30 -368 67 -512 70 -136 2
-416 -9 -481 -19 -58 -9 -27 13 56 40 98 32 145 43 207 52 28 3 52 8 55 11 5
5 194 -2 310 -11z m1690 -1174 c13 -8 36 -26 50 -39 14 -13 28 -23 31 -23 4 0
20 -12 37 -27 16 -16 53 -48 82 -73 l52 -45 -6 -139 c-5 -132 -7 -143 -39
-210 -19 -39 -52 -93 -75 -121 l-40 -50 -105 -1 -106 -1 18 46 c32 80 53 291
30 291 -7 0 -17 8 -24 17 -11 15 -15 14 -39 -12 -14 -15 -26 -40 -26 -54 0
-44 -2 -64 -17 -131 -8 -36 -16 -72 -17 -80 -8 -35 -19 -60 -28 -60 -5 0 -6
-5 -3 -10 3 -6 -4 -14 -17 -19 -22 -8 -226 -34 -358 -46 -153 -14 -195 -25
-231 -59 -19 -18 -56 -40 -84 -50 -27 -11 -57 -25 -66 -32 -8 -8 -21 -14 -27
-14 -21 0 -362 -169 -362 -179 0 -6 -6 -8 -12 -6 -16 6 -462 -216 -474 -236
-3 -5 -20 -16 -37 -24 -18 -8 -45 -24 -62 -35 -16 -10 -51 -31 -77 -46 -27
-15 -48 -31 -48 -36 0 -6 -6 -8 -12 -6 -7 3 -17 1 -23 -4 -43 -36 -89 -58 -95
-47 -4 6 -12 9 -18 5 -6 -3 -12 -1 -14 5 -2 7 -31 -2 -78 -24 -155 -72 -347
-102 -462 -73 -45 12 -48 12 -68 -12 -21 -24 -21 -52 0 -52 6 0 8 -5 5 -10 -4
-6 -3 -10 2 -9 4 1 21 -3 38 -10 66 -27 260 -24 342 6 10 3 0 -8 -22 -26 -22
-17 -48 -38 -58 -46 -9 -8 -20 -15 -23 -15 -3 0 -11 -6 -18 -12 -7 -7 -30 -26
-52 -43 -62 -49 -116 -93 -173 -143 -30 -26 -65 -56 -77 -67 -13 -11 -24 -26
-24 -33 0 -7 -8 -12 -18 -12 -10 0 -33 -16 -52 -35 -19 -19 -41 -35 -47 -35
-7 0 -13 -5 -13 -11 0 -6 -21 -30 -47 -52 -25 -23 -51 -48 -57 -55 -6 -8 -24
-28 -41 -46 -16 -18 -43 -49 -58 -69 -29 -38 -41 -41 -92 -21 -32 12 -108 66
-139 98 -37 40 -75 124 -72 162 6 62 19 124 27 130 5 3 9 1 9 -4 0 -12 49 -34
61 -27 5 4 9 2 9 -4 0 -8 17 -17 55 -28 80 -22 86 -27 82 -66 -5 -50 10 -61
59 -41 49 20 44 15 55 64 7 32 6 46 -6 63 -8 12 -15 29 -15 39 0 10 -3 17 -7
16 -12 -3 -104 28 -156 51 -25 12 -50 21 -55 21 -5 0 -15 7 -22 15 -7 9 -15
14 -17 11 -3 -2 -18 10 -34 26 -16 17 -29 27 -29 22 -1 -5 -8 5 -17 21 -31 57
-11 146 53 234 20 29 93 102 162 163 151 132 202 193 209 248 4 26 2 40 -6 40
-6 0 -11 9 -11 19 0 16 -6 18 -36 15 -44 -4 -43 -2 -46 -44 -2 -26 -16 -47
-60 -91 -32 -32 -58 -55 -58 -51 0 4 -5 -1 -11 -11 -19 -32 -31 -8 -24 47 10
69 26 106 70 155 41 45 147 121 169 121 7 0 19 6 25 14 7 8 21 13 31 11 11 -2
22 1 25 6 4 5 11 7 16 4 5 -4 9 -1 9 5 0 6 8 10 18 9 9 -1 19 0 22 1 20 7 52
11 95 10 118 -2 181 -6 192 -13 6 -4 15 -3 18 3 4 6 25 10 48 9 23 0 80 3 127
7 111 12 379 11 405 0 11 -5 38 -10 60 -12 22 -1 51 -5 65 -8 14 -3 54 -11 90
-17 36 -6 76 -14 89 -18 27 -8 155 4 173 16 7 4 16 8 19 8 12 0 40 35 28 35
-8 0 -9 4 -1 13 9 10 6 17 -8 30 -18 15 -20 15 -29 -1 -6 -9 -11 -12 -11 -6 0
6 -31 9 -86 8 -47 -1 -105 3 -127 8 -23 5 -53 11 -67 13 -14 1 -68 9 -120 18
-52 8 -121 18 -152 22 -32 3 -58 9 -58 13 1 12 166 144 253 202 81 54 205 120
237 126 85 16 106 17 285 10 248 -9 473 -31 490 -48 3 -2 6 -26 6 -52 2 -47
12 -66 24 -46 4 7 13 7 26 -1 17 -8 23 -7 35 8 15 21 19 119 4 128 -5 3 -10
15 -10 26 0 10 -7 19 -15 19 -8 0 -15 4 -15 8 0 5 -6 9 -12 10 -7 0 -51 7 -98
15 -47 9 -124 18 -172 22 -49 4 -90 11 -94 16 -3 5 -2 9 3 9 4 0 80 70 167
155 203 198 294 257 384 251 17 -1 45 -3 60 -4 19 -1 33 -10 42 -27 18 -34 55
-43 81 -19 17 15 40 18 147 20 102 2 145 7 217 28 97 27 150 27 195 -2z m1766
-942 c87 -23 193 -52 234 -67 79 -27 360 -170 360 -183 0 -4 11 -11 25 -14 14
-4 25 -11 25 -16 0 -6 5 -10 11 -10 11 0 29 -11 155 -98 80 -56 268 -250 325
-337 56 -85 82 -135 75 -142 -3 -3 -11 6 -17 20 -7 15 -16 24 -20 21 -5 -3 -9
-1 -9 4 0 5 -16 27 -35 48 -19 21 -35 35 -35 31 0 -6 -11 4 -95 82 -22 21 -57
49 -77 62 -21 13 -38 27 -38 32 0 4 -4 7 -9 7 -5 0 -22 12 -38 28 -60 58 -117
103 -156 127 -46 27 -97 71 -97 84 0 4 -24 21 -52 36 -29 16 -68 39 -86 51
-18 13 -72 41 -120 64 -48 23 -95 46 -104 51 -28 14 -241 99 -258 103 -8 2
-32 10 -52 20 -21 9 -43 16 -50 16 -16 0 -47 20 -32 20 5 0 82 -18 170 -40z
m-5295 -564 c15 9 10 -2 -6 -16 -13 -10 -15 -9 -14 11 0 13 3 18 6 11 2 -6 9
-10 14 -6z m6654 -874 c-3 -3 -11 0 -18 7 -9 10 -8 11 6 5 10 -3 15 -9 12 -12z
m-2385 -746 c195 -132 494 -380 636 -527 132 -137 259 -327 358 -534 89 -185
224 -453 250 -493 12 -21 40 -71 61 -112 58 -114 98 -189 139 -257 20 -34 36
-65 36 -70 -1 -4 -26 -24 -57 -43 -120 -74 -194 -169 -361 -460 -11 -19 -43
-75 -72 -125 -67 -115 -84 -165 -125 -360 -35 -169 -36 -203 -14 -390 5 -49
11 -99 12 -110 1 -12 -3 -19 -11 -17 -25 5 -178 13 -237 13 -71 -1 -195 -21
-195 -32 0 -4 -18 -10 -40 -14 -22 -4 -43 -12 -47 -18 -12 -20 -23 51 -28 183
-3 69 -7 134 -10 146 -3 12 -7 39 -10 60 -4 21 -12 66 -20 99 -8 33 -16 85
-20 115 -3 30 -12 65 -20 77 -8 12 -15 29 -15 37 0 9 -9 31 -20 51 -11 20 -20
45 -20 56 0 11 -4 18 -9 15 -7 -5 -12 5 -21 41 -8 33 -48 100 -81 138 -73 81
-108 115 -119 115 -6 0 -8 5 -5 10 3 6 2 10 -2 10 -5 0 -33 21 -63 48 -29 26
-67 59 -84 74 -17 15 -65 45 -108 67 -42 22 -84 44 -95 50 -39 21 -124 41
-150 35 -16 -3 -32 -6 -38 -6 -15 -1 -86 12 -95 17 -23 14 -221 36 -318 36
l-114 -2 33 47 c45 62 94 111 119 119 11 3 20 11 20 16 0 5 6 9 13 9 40 1 437
342 437 377 0 7 4 13 10 13 5 0 22 19 37 43 15 23 31 44 34 47 3 3 9 15 13 28
4 12 19 36 33 52 13 17 22 30 18 30 -3 0 8 25 24 55 17 30 28 55 25 55 -3 0 2
7 10 16 9 8 13 20 10 26 -4 6 -2 13 3 17 20 13 66 167 87 295 3 16 13 77 23
135 13 79 18 158 17 311 -1 213 -14 322 -55 461 -10 36 -19 69 -19 72 0 8 115
-62 240 -147z m1060 -16 c0 -5 -4 -10 -10 -10 -5 0 -10 5 -10 10 0 6 5 10 10
10 6 0 10 -4 10 -10z m-1322 -216 c17 -179 -1 -412 -48 -638 -33 -159 -101
-326 -192 -476 -71 -116 -141 -191 -342 -365 -7 -5 -22 -16 -35 -23 -19 -11
-22 -11 -17 0 3 7 9 21 12 31 4 9 10 17 14 17 4 0 13 14 20 30 7 17 16 30 21
30 5 0 9 4 9 10 0 5 22 48 50 96 27 47 61 109 75 137 15 29 42 81 61 117 19
35 34 70 34 77 0 7 5 13 10 13 6 0 10 5 10 11 0 5 8 29 19 52 33 76 60 155 54
161 -4 3 -2 6 4 6 9 0 27 45 21 52 -1 2 4 13 11 26 7 13 14 31 17 40 2 9 15
55 28 102 45 161 84 380 70 401 -3 5 0 9 7 9 7 0 10 2 7 6 -3 3 1 26 9 52 7
26 16 65 20 87 3 22 9 42 14 43 5 2 9 18 10 35 l1 32 9 -36 c4 -20 12 -80 17
-135z m1533 -191 c13 -15 12 -15 -8 -4 -24 12 -29 21 -14 21 5 0 15 -7 22 -17z
m134 -143 c3 -5 1 -10 -4 -10 -6 0 -11 5 -11 10 0 6 2 10 4 10 3 0 8 -4 11
-10z m-2785 -590 c0 -5 -2 -10 -4 -10 -3 0 -8 5 -11 10 -3 6 -1 10 4 10 6 0
11 -4 11 -10z m2691 -247 c13 -16 12 -17 -3 -4 -10 7 -18 15 -18 17 0 8 8 3
21 -13z m-6405 -641 c-6 -10 -18 -85 -22 -142 -2 -25 -6 -61 -8 -80 -15 -118
-23 -552 -11 -610 3 -14 5 -47 5 -75 -1 -103 7 -344 14 -429 l5 -69 -29 28
c-17 16 -30 35 -30 42 0 8 -7 16 -15 19 -8 4 -12 10 -9 15 3 5 1 9 -3 9 -9 0
-44 53 -44 67 0 5 -6 15 -13 23 -16 19 -69 141 -69 157 0 7 -4 13 -9 13 -4 0
-8 7 -8 15 0 8 -4 23 -10 33 -5 9 -16 49 -26 87 -9 39 -20 75 -26 82 -29 36
-6 237 38 333 52 111 78 166 83 170 3 3 24 41 46 85 22 44 51 97 65 119 14 21
25 42 25 46 0 10 44 70 51 70 3 0 3 -3 0 -8z m6759 -188 c27 -33 87 -98 133
-146 l84 -87 -68 1 c-79 1 -185 -17 -226 -38 -38 -20 -62 -58 -54 -88 9 -36
35 -41 65 -12 45 43 167 57 346 40 58 -6 77 -12 110 -39 70 -57 217 -151 320
-206 203 -109 198 -107 353 -136 l82 -16 2 -49 c2 -52 3 -66 15 -173 7 -65 8
-271 2 -425 -2 -36 1 -71 5 -78 4 -7 2 -12 -4 -12 -6 0 -8 -5 -4 -12 12 -19
12 -52 1 -60 -7 -4 -6 -21 3 -52 7 -25 10 -55 7 -66 -3 -11 -1 -23 4 -26 5 -3
6 -10 2 -17 -3 -6 -8 -36 -9 -66 -1 -31 -4 -63 -6 -71 -13 -50 -21 -59 -51
-65 -28 -6 -84 -23 -137 -43 -8 -3 -17 -6 -20 -7 -26 -9 -48 -18 -62 -26 -10
-5 -26 -9 -37 -9 -11 0 -32 -5 -48 -12 -15 -6 -31 -10 -36 -10 -4 1 -23 -4
-42 -12 -19 -8 -35 -13 -35 -10 0 3 -9 0 -20 -6 -46 -25 -263 -35 -408 -20
-64 7 -130 14 -147 15 -76 7 -278 75 -301 102 -6 7 -13 10 -17 7 -3 -3 -28 11
-56 30 -28 20 -53 36 -55 36 -3 0 -16 10 -29 23 -14 12 -36 30 -51 40 -15 10
-24 22 -21 28 5 8 1 10 -20 9 -9 -1 -97 98 -95 106 1 4 -3 10 -9 13 -31 19
-135 324 -146 426 -2 17 -7 62 -12 100 -19 163 -5 327 43 495 19 64 60 158 82
183 8 9 11 17 6 17 -5 0 -4 4 1 8 11 8 25 31 73 122 18 36 40 72 48 81 8 8 14
23 14 31 0 9 3 18 8 20 14 6 52 67 52 83 0 9 4 14 9 11 5 -3 14 7 21 24 10 25
51 71 115 130 11 10 37 30 58 44 l39 25 36 -48 c21 -27 59 -75 87 -107z
m-2456 51 c25 -4 60 -13 78 -20 25 -11 33 -11 34 -2 0 9 2 9 6 0 2 -7 17 -13
31 -13 15 0 42 -9 60 -20 18 -11 40 -20 50 -20 24 0 91 -25 104 -38 7 -7 16
-12 20 -12 19 0 114 -72 179 -135 38 -37 69 -65 69 -61 0 6 47 -41 89 -89 32
-37 69 -100 81 -137 6 -21 22 -57 35 -80 41 -73 56 -110 72 -183 8 -38 19 -78
25 -89 7 -13 6 -16 -3 -11 -8 6 -10 4 -3 -6 14 -22 21 -77 29 -234 3 -55 8
-122 11 -150 11 -105 2 -215 -27 -315 -14 -48 -110 -240 -121 -240 -4 0 -8 -6
-8 -13 0 -8 -40 -56 -90 -108 -49 -51 -90 -90 -90 -87 0 4 -18 -10 -39 -30
-50 -47 -137 -111 -176 -129 -16 -7 -37 -18 -45 -23 -24 -15 -214 -93 -227
-93 -7 0 -13 -5 -13 -10 0 -6 -3 -8 -6 -4 -3 3 -25 -2 -47 -12 -23 -10 -86
-26 -139 -35 -138 -26 -204 -20 -483 44 -119 27 -164 40 -197 54 -21 9 -38 14
-38 11 0 -10 -84 29 -102 47 -10 10 -25 18 -33 18 -8 0 -15 4 -15 9 0 5 -15
16 -33 24 -18 9 -41 25 -52 37 -10 11 -24 20 -32 20 -7 0 -13 5 -13 10 0 6 -3
9 -7 8 -7 -2 -52 37 -126 108 -55 51 -117 139 -117 164 0 12 -4 19 -8 16 -7
-4 -60 117 -69 158 -1 6 -7 29 -12 51 -8 32 -7 47 8 80 11 22 27 60 36 85 9
25 22 56 28 70 6 14 11 27 12 30 1 3 7 18 14 35 7 16 13 42 14 57 1 15 4 28 7
28 3 0 12 21 19 48 8 26 17 52 21 57 4 6 7 22 6 37 -1 14 1 25 5 23 3 -3 14
22 24 55 20 66 70 160 85 160 6 0 10 6 10 14 0 8 10 22 21 30 24 17 88 102
119 159 11 20 25 37 30 37 5 0 11 8 14 18 4 10 31 43 62 73 30 29 91 97 135
149 43 52 89 106 102 120 13 14 41 47 63 75 21 27 44 55 49 61 48 54 65 75 65
83 0 15 19 23 84 37 61 13 273 12 365 -1z m-1391 -1062 c-9 -10 -21 -29 -28
-43 l-13 -25 28 25 27 25 -7 -25 c-4 -14 -22 -63 -41 -110 -32 -83 -33 -84
-34 -45 -6 116 -1 138 37 177 38 39 59 53 31 21z m-173 -239 c2 -27 8 -69 11
-94 4 -25 7 -61 7 -80 0 -38 -59 -218 -105 -318 -15 -34 -28 -64 -28 -67 0
-18 -115 -235 -130 -245 -4 -3 -15 -21 -25 -40 -10 -19 -25 -43 -34 -52 -33
-35 -46 -53 -44 -60 2 -5 -2 -8 -7 -8 -6 0 -10 -7 -10 -17 0 -9 -3 -14 -6 -10
-3 3 -25 -16 -49 -43 -24 -27 -46 -46 -49 -43 -6 6 -10 -13 -7 -30 1 -5 -2 -6
-7 -3 -4 2 -28 -15 -52 -40 -54 -55 -71 -57 -63 -6 13 86 94 342 132 417 23
44 41 86 41 93 0 8 6 28 14 45 8 18 24 56 37 85 12 28 25 52 29 52 3 0 6 10 7
22 1 11 6 24 12 27 5 4 11 18 13 33 2 15 11 35 19 45 8 10 24 38 34 63 11 25
22 47 26 50 3 3 12 22 20 43 7 20 16 37 20 37 4 0 10 9 14 19 5 17 166 183
172 177 1 -1 5 -24 8 -52z m3032 -110 c32 -3 92 -6 135 -7 l76 -2 17 -59 c9
-33 24 -78 35 -100 10 -23 27 -65 39 -95 30 -80 119 -200 135 -183 3 3 6 0 6
-6 0 -41 302 -262 380 -278 8 -2 20 -10 26 -19 7 -9 16 -15 20 -14 10 3 64
-11 79 -20 6 -3 15 -6 20 -7 6 -1 30 -7 55 -14 25 -7 63 -15 85 -17 22 -2 50
-5 63 -6 12 -1 22 -4 22 -7 0 -3 33 -6 73 -7 39 -1 111 -4 159 -6 88 -4 183 5
228 23 14 5 36 12 50 14 14 3 25 5 25 6 0 1 7 3 15 5 55 12 144 37 195 55 33
12 65 23 70 24 6 2 17 6 25 9 8 3 31 10 50 15 35 9 35 9 33 -22 -5 -54 -12
-95 -27 -149 -8 -29 -17 -65 -20 -82 -23 -127 -63 -239 -139 -392 -34 -68 -76
-139 -94 -158 -18 -20 -33 -40 -33 -46 0 -5 -4 -9 -10 -9 -5 0 -10 -7 -10 -15
0 -8 -4 -15 -9 -15 -5 0 -16 -6 -23 -12 -34 -33 -107 -88 -116 -88 -6 0 -24
-12 -41 -26 -17 -14 -31 -22 -31 -17 0 4 -5 0 -11 -10 -6 -9 -14 -15 -20 -12
-5 4 -9 1 -9 -5 0 -6 -4 -9 -9 -5 -5 3 -17 -2 -25 -11 -9 -8 -16 -12 -16 -8 0
4 -10 -2 -22 -13 -64 -56 -241 -141 -312 -150 -17 -2 -33 -8 -36 -13 -4 -6
-14 -8 -23 -4 -10 3 -17 1 -17 -5 0 -6 -6 -8 -14 -5 -8 3 -17 1 -21 -5 -3 -6
-15 -11 -25 -11 -11 0 -39 -7 -63 -15 -52 -18 -81 -23 -125 -24 -19 -1 -31 -5
-27 -11 4 -6 -7 -10 -24 -10 -42 0 -41 0 -80 -16 -18 -8 -46 -14 -62 -14 -15
0 -39 -4 -53 -10 -14 -5 -51 -10 -83 -12 -32 -1 -61 -7 -64 -12 -4 -4 -24 -10
-45 -12 -39 -4 -65 -7 -184 -23 -35 -5 -68 -7 -72 -5 -5 3 -13 2 -20 -2 -13
-8 -31 -10 -145 -16 -40 -1 -73 -7 -73 -11 0 -5 -8 -7 -17 -6 -10 1 -20 1 -23
0 -3 -1 -29 -4 -59 -6 -29 -3 -68 -9 -87 -14 -23 -6 -34 -6 -34 1 0 6 -7 5
-16 -3 -9 -7 -42 -15 -73 -16 -159 -8 -324 -13 -596 -18 -165 -3 -304 -6 -310
-6 -5 -1 -73 2 -150 5 -77 4 -178 9 -225 11 -47 2 -132 12 -190 23 -58 11
-108 18 -112 16 -4 -2 -9 0 -13 6 -3 5 -15 10 -25 10 -11 0 -40 7 -66 16 -44
15 -57 18 -111 28 -13 3 -27 7 -33 11 -5 3 -20 8 -32 11 -53 10 -65 13 -112
23 -27 7 -51 10 -53 7 -3 -2 -19 2 -36 9 -18 7 -56 16 -84 20 -29 3 -66 10
-83 15 -16 5 -30 6 -30 3 0 -3 -6 -1 -12 5 -7 6 -31 14 -53 18 -51 10 -45 9
-78 22 -16 7 -33 12 -38 12 -6 0 -31 9 -57 21 -55 25 -95 42 -139 60 -18 8
-33 17 -33 21 0 3 -17 12 -37 19 -87 28 -180 115 -230 214 -14 28 -29 52 -32
55 -15 11 -52 84 -97 192 -26 62 -53 122 -60 133 -12 18 -10 23 19 45 43 34
185 168 182 172 -2 2 12 14 30 28 19 14 38 35 44 48 6 12 15 22 21 22 5 0 10
6 10 13 0 8 9 22 20 32 11 10 17 22 13 28 -3 6 -1 7 6 3 6 -4 14 0 18 11 3 10
19 37 35 60 15 23 28 49 28 58 0 9 5 13 11 10 9 -6 24 25 19 40 -1 4 8 15 20
25 12 10 21 21 21 24 -3 20 0 26 9 21 6 -3 7 1 4 9 -3 9 -2 16 3 16 5 0 10 6
10 13 0 7 8 26 18 41 11 16 21 38 22 50 2 11 8 25 13 30 6 6 10 18 10 28 0 10
5 18 11 18 5 0 8 4 5 9 -3 4 0 16 8 26 11 16 13 16 14 1 1 -9 3 -23 4 -31 1
-8 6 -15 11 -15 5 0 7 -7 3 -15 -3 -8 -2 -15 3 -15 5 0 11 -8 14 -17 15 -47
137 -223 159 -232 5 -2 24 -17 41 -35 86 -85 314 -239 382 -257 22 -6 50 -17
63 -25 12 -8 22 -12 22 -9 0 2 12 0 26 -5 15 -6 41 -12 58 -15 17 -3 74 -16
126 -31 52 -14 118 -29 147 -34 28 -4 57 -11 64 -15 22 -14 257 -3 284 13 5 3
23 7 40 9 16 1 41 6 55 10 14 3 29 5 33 5 4 -1 18 3 30 10 12 7 27 12 32 13 6
0 27 8 49 18 21 9 45 17 52 17 8 0 14 5 14 11 0 6 7 8 16 5 8 -3 12 -2 9 4 -3
6 1 10 10 10 9 0 27 8 41 17 14 9 37 18 51 19 14 2 35 12 47 23 12 12 28 21
36 21 7 0 28 11 45 25 18 13 35 21 39 18 3 -4 6 -1 6 5 0 7 7 12 15 12 8 0 15
3 15 8 0 4 17 18 37 32 69 46 141 108 217 185 128 131 220 307 256 492 12 58
14 62 59 86 25 13 64 30 86 38 50 16 158 37 167 32 4 -2 33 -6 65 -9z m2457
-201 c-15 -37 -31 -69 -36 -71 -4 -2 -8 -9 -8 -17 0 -7 -7 -18 -15 -25 -13
-11 -14 -8 -9 21 16 88 27 115 57 141 18 14 33 25 35 23 2 -2 -9 -34 -24 -72z
m-7549 -673 c3 -6 -1 -7 -9 -4 -18 7 -21 14 -7 14 6 0 13 -4 16 -10z m7212
-432 c-3 -7 -5 -2 -5 12 0 14 2 19 5 13 2 -7 2 -19 0 -25z m334 -550 c13 -18
17 -28 9 -21 -8 6 -19 11 -25 10 -5 -1 -11 8 -13 21 -5 30 3 28 29 -10z
m-2656 -525 c-3 -32 -8 -89 -12 -128 -4 -38 -7 -89 -7 -112 0 -24 -3 -43 -6
-43 -3 0 -6 -24 -7 -53 -3 -76 -18 -232 -27 -287 -4 -19 -8 -64 -10 -100 -3
-36 -5 -65 -6 -65 -5 0 -10 -59 -11 -122 -1 -48 4 -82 15 -104 9 -17 16 -33
16 -34 0 -2 -17 -6 -37 -10 -84 -15 -215 -105 -333 -227 l-55 -57 -52 47 c-85
77 -104 92 -117 92 -6 0 -28 15 -48 33 -51 45 -66 57 -73 57 -4 0 -17 13 -30
28 -13 16 -55 43 -92 60 -96 44 -210 55 -351 34 -71 -10 -98 3 -88 42 3 12 6
27 6 34 0 24 80 89 156 126 41 21 78 36 80 33 3 -2 7 -31 10 -63 9 -117 18
-140 54 -141 8 0 23 -4 33 -8 14 -6 17 -2 18 21 3 86 -1 594 -5 624 -3 19 -8
55 -11 80 -13 99 -43 176 -89 228 -15 17 -16 22 -5 22 8 0 20 -5 25 -10 7 -7
38 -4 97 10 72 17 94 19 128 10 61 -17 563 -13 656 4 10 2 51 7 91 11 39 4 75
11 78 16 11 19 13 7 9 -48z m8238 -359 c358 -9 1153 -11 1205 -3 38 6 58 5 69
-4 41 -34 53 -49 53 -67 0 -11 -39 -80 -87 -154 -94 -143 -226 -366 -316 -532
-31 -56 -97 -164 -149 -240 -51 -77 -122 -185 -158 -242 -36 -57 -95 -149
-131 -206 -37 -56 -83 -135 -103 -174 -20 -40 -75 -130 -121 -201 -47 -71
-101 -164 -121 -208 -97 -209 -119 -255 -173 -348 -32 -55 -79 -140 -103 -190
-25 -49 -67 -124 -95 -165 -27 -41 -73 -119 -102 -173 -28 -54 -80 -144 -115
-200 -35 -57 -94 -157 -131 -222 -88 -155 -212 -345 -226 -345 -5 0 -7 -4 -4
-10 6 -10 -82 -166 -154 -270 -60 -86 -175 -198 -211 -205 -10 -2 -27 -8 -37
-13 -18 -9 -99 -30 -145 -37 -53 -8 -93 -17 -114 -26 -13 -4 -31 -6 -39 -3 -8
4 -15 1 -15 -5 0 -7 -6 -11 -12 -10 -7 1 -29 -1 -48 -4 -33 -6 -147 -18 -180
-19 -8 0 -31 -4 -50 -8 -31 -8 -178 -19 -330 -25 -30 -2 -55 -3 -55 -4 0 -1
-31 -3 -70 -5 -38 -2 -90 -6 -115 -10 -25 -3 -106 -8 -180 -11 -74 -2 -205 -7
-290 -11 -85 -3 -190 -7 -232 -8 -43 0 -78 -5 -78 -9 0 -5 -4 -5 -10 -2 -7 4
-283 7 -385 4 -11 -1 -45 0 -76 1 -31 2 -61 0 -66 -3 -5 -3 -15 -2 -23 3 -8 5
-21 5 -29 0 -9 -4 -54 -10 -101 -14 -47 -3 -107 -7 -135 -10 -152 -15 -213
-19 -340 -22 -77 -2 -187 -6 -245 -9 -58 -3 -235 -8 -395 -10 -159 -2 -303 -4
-320 -5 -16 -1 -127 -1 -245 -1 -118 0 -228 0 -245 0 -16 0 -298 0 -625 0
-327 0 -608 0 -625 0 -16 -1 -42 -1 -58 0 l-28 1 54 103 c113 213 196 364 236
427 23 36 45 75 51 88 5 12 18 35 28 50 64 95 81 122 103 162 13 25 34 58 46
73 13 16 23 35 23 43 0 8 4 14 8 14 5 0 31 44 57 98 27 53 62 116 78 140 16
24 26 49 23 57 -3 8 11 38 31 67 20 28 73 124 117 212 45 89 101 187 124 219
24 32 75 118 114 190 38 73 91 168 118 212 46 78 94 160 136 234 11 20 30 53
42 74 12 21 22 43 22 49 0 6 18 34 39 62 21 28 58 87 80 131 23 44 49 87 57
96 7 8 14 19 14 23 0 4 11 31 24 59 13 29 26 59 30 67 3 8 18 33 31 55 14 22
28 48 32 58 3 9 10 17 16 17 6 0 7 3 4 7 -4 3 5 21 19 40 14 18 22 33 19 33
-3 0 0 10 7 23 6 12 13 27 14 34 1 7 9 25 17 40 8 15 22 44 32 63 10 19 24 42
31 51 8 8 24 35 37 60 13 24 45 81 70 127 26 45 53 92 59 105 7 12 19 29 26
39 8 9 14 23 16 30 1 8 16 37 33 64 17 27 37 61 44 77 7 15 16 27 20 27 4 0
11 10 15 22 3 12 19 39 35 61 16 22 29 46 29 54 0 7 4 13 8 13 4 0 13 12 20
28 15 34 72 132 92 159 29 38 56 44 237 49 96 2 178 6 182 8 3 2 105 7 226 10
503 14 930 38 1105 61 19 2 112 7 205 10 94 3 213 10 265 15 226 22 1050 41
1828 42 206 1 399 4 430 7 32 4 61 5 65 3 4 -2 90 -6 190 -8z m-8080 -209 c85
-24 166 -62 199 -92 10 -9 18 -14 18 -11 0 4 17 -10 37 -30 69 -69 126 -188
158 -335 2 -9 6 -21 9 -26 12 -19 14 -135 3 -160 -25 -55 -85 -94 -192 -125
-33 -10 -70 -22 -83 -27 -17 -6 -21 -6 -16 2 4 8 0 9 -14 5 -12 -4 -72 -9
-134 -11 -187 -7 -263 -19 -373 -58 -43 -16 -114 -91 -117 -124 -2 -18 1 -27
10 -26 6 2 12 -2 12 -8 0 -5 5 -7 11 -3 6 3 15 0 20 -7 7 -11 16 -7 40 20 54
59 177 88 429 101 155 8 203 16 303 47 12 4 17 0 17 -14 0 -18 16 -39 54 -70
8 -7 18 -13 20 -13 8 0 44 -30 90 -75 41 -39 103 -133 98 -147 -1 -5 3 -8 8
-8 6 0 16 -12 23 -27 6 -16 17 -34 24 -41 7 -7 13 -24 13 -38 0 -13 5 -24 10
-24 6 0 10 -5 10 -12 0 -6 14 -41 31 -77 43 -91 90 -198 94 -211 0 -3 14 -32
30 -65 16 -33 28 -63 27 -67 -1 -5 2 -8 7 -8 5 0 15 -16 22 -35 7 -19 16 -35
20 -35 3 0 19 -28 34 -62 15 -35 51 -112 81 -173 30 -60 54 -116 54 -122 0 -7
3 -13 8 -13 10 0 42 -58 42 -76 0 -8 5 -14 10 -14 6 0 18 -17 28 -37 9 -21 20
-40 23 -43 11 -10 87 -156 124 -240 56 -126 94 -200 129 -250 18 -25 41 -62
53 -82 l21 -36 -43 -69 c-24 -37 -52 -84 -61 -103 -10 -19 -26 -42 -36 -52
-10 -10 -18 -22 -18 -27 0 -10 -60 -111 -66 -111 -6 0 -106 40 -153 62 -152
68 -198 98 -185 119 3 5 -1 19 -8 31 -21 38 -38 91 -44 137 -3 25 -7 48 -9 51
-2 4 -7 31 -10 61 -6 64 -12 95 -23 129 -16 43 -30 93 -43 150 -7 30 -16 59
-21 64 -4 6 -8 16 -8 23 0 28 -55 153 -67 153 -7 0 -13 -5 -13 -12 0 -9 -3 -9
-12 0 -18 18 -25 15 -32 -14 -5 -18 4 -59 24 -121 18 -53 33 -104 36 -116 2
-11 8 -34 13 -51 6 -17 12 -44 15 -61 3 -16 14 -59 24 -95 11 -36 23 -95 28
-130 4 -36 8 -67 9 -70 1 -3 5 -23 10 -45 4 -22 11 -47 16 -57 7 -13 4 -16
-19 -12 -100 15 -111 13 -163 -33 -48 -44 -169 -201 -191 -248 -11 -24 -16
-25 -97 -26 -47 -1 -109 -1 -137 0 -42 2 -57 -3 -80 -23 l-29 -24 -46 85 c-84
154 -119 169 -289 125 -19 -5 -50 -18 -69 -30 -19 -12 -38 -19 -42 -17 -4 3
-12 -2 -19 -10 -7 -8 -20 -15 -29 -15 -9 -1 -31 -14 -50 -30 -19 -16 -38 -27
-43 -24 -4 3 -8 0 -8 -7 0 -7 -17 6 -38 29 -74 80 -289 157 -408 147 -134 -13
-201 -23 -227 -37 -11 -6 -28 -4 -50 6 -55 24 -71 29 -113 32 -22 1 -65 12
-95 23 -88 32 -219 69 -284 81 -33 5 -82 15 -110 20 -61 13 -130 20 -255 25
-151 6 -201 16 -315 65 -48 21 -54 36 -34 87 33 84 72 190 74 203 1 8 6 24 10
35 4 11 15 43 25 70 24 64 32 108 32 159 -1 39 29 138 49 162 13 16 59 149 63
184 4 33 -13 53 -33 41 -7 -5 -22 -6 -32 -4 -15 4 -19 0 -19 -19 0 -22 -11
-49 -75 -183 -33 -71 -37 -82 -41 -155 -5 -59 -33 -151 -132 -432 -17 -45 -18
-46 -55 -42 -21 3 -48 9 -60 13 -31 12 -293 11 -328 -1 -26 -9 -48 -38 -29
-38 6 0 10 -11 10 -24 0 -31 24 -40 68 -25 21 7 77 10 146 7 119 -5 158 -17
209 -64 33 -30 169 -100 213 -109 88 -18 151 -25 257 -29 65 -3 121 -7 125
-10 4 -2 34 -7 67 -11 32 -3 62 -8 65 -10 3 -2 26 -6 50 -9 25 -3 61 -10 80
-16 19 -6 74 -15 122 -20 47 -4 97 -15 110 -23 12 -8 43 -18 68 -22 25 -4 56
-12 69 -16 23 -9 23 -10 -23 -54 -59 -58 -96 -118 -94 -150 3 -36 23 -51 45
-34 14 12 16 12 9 -1 -10 -19 15 10 79 93 27 36 53 63 57 60 5 -2 8 -1 8 4 0
11 94 51 135 58 194 31 301 19 428 -48 l45 -24 -54 -42 c-30 -23 -54 -46 -54
-51 0 -5 -14 -24 -31 -42 -33 -36 -119 -182 -119 -203 0 -7 -6 -17 -13 -23 -7
-6 -14 -23 -15 -39 -3 -36 -7 -53 -17 -77 -6 -13 -4 -21 3 -24 16 -5 -51 -66
-100 -92 -125 -67 -326 -64 -471 4 -58 28 -59 28 -190 20 -191 -12 -391 -11
-408 2 -8 6 -40 9 -71 8 -31 -1 -74 2 -95 6 -21 5 -60 11 -88 15 -27 3 -102
12 -165 20 -157 21 -187 24 -325 30 -138 6 -207 15 -430 56 -323 60 -479 108
-670 207 -134 69 -155 83 -201 139 -39 46 -51 67 -48 85 10 46 27 104 40 133
7 17 18 53 24 80 6 28 16 59 21 70 5 11 11 31 13 45 3 14 5 25 6 25 1 0 4 11
6 25 3 13 9 29 14 34 6 6 10 17 10 25 0 18 36 96 61 132 10 14 16 29 12 32 -3
4 2 9 11 13 9 3 16 12 16 19 0 7 4 15 8 17 5 2 22 23 39 48 17 25 39 54 50 65
10 11 30 36 44 55 15 19 37 46 50 61 39 41 84 103 81 112 -1 4 4 7 11 8 6 0
32 25 57 54 25 30 51 55 57 55 7 0 57 44 111 98 130 128 260 250 307 287 21
17 55 45 74 64 20 18 74 68 120 110 47 42 92 83 100 91 9 8 30 25 46 38 17 13
53 45 80 70 28 26 67 60 87 75 21 15 84 71 141 125 58 53 126 115 152 137 27
22 61 52 76 68 15 15 31 27 36 27 4 0 40 30 78 66 99 93 166 136 280 180 92
36 108 39 195 38 55 -1 141 -10 205 -23 61 -12 122 -24 138 -26 15 -2 31 -6
35 -9 5 -3 31 -8 58 -11 27 -4 53 -11 58 -15 5 -5 14 -6 21 -4 7 3 16 1 20 -5
3 -6 16 -11 27 -11 11 0 37 -10 57 -22 19 -12 41 -23 48 -24 7 -1 24 -12 39
-23 15 -12 32 -21 38 -21 17 1 47 47 41 63 -6 15 -140 96 -190 115 -35 13
-207 58 -250 66 -16 2 -97 18 -180 34 -127 26 -161 29 -225 23 -81 -9 -235
-59 -280 -91 -16 -11 -31 -20 -35 -20 -8 0 -93 -67 -122 -97 -12 -13 -24 -23
-26 -23 -6 0 -61 -46 -100 -82 -16 -16 -33 -28 -38 -28 -5 0 -9 -4 -9 -9 0 -5
-14 -18 -32 -29 -30 -19 -34 -19 -62 -5 -17 9 -33 17 -35 19 -9 8 -17 94 -9
96 5 2 11 17 14 33 2 17 6 37 7 45 1 8 12 35 24 60 11 25 24 55 28 68 3 12 22
43 41 67 19 25 34 50 34 55 0 6 4 10 9 10 5 0 14 15 22 33 22 54 84 140 135
186 27 24 74 67 104 96 85 79 113 97 290 187 156 80 335 154 390 163 14 2 38
8 53 14 35 14 33 14 51 -5 12 -11 13 -20 6 -33 -6 -12 -5 -22 2 -29 15 -15 1
-32 -26 -32 -62 0 -260 -117 -295 -174 -18 -28 -37 -115 -35 -158 4 -76 72
-114 185 -102 117 12 145 11 213 -3 79 -16 116 -37 186 -105 16 -16 31 -28 35
-28 3 0 16 -9 28 -21 12 -12 40 -33 62 -47 22 -14 45 -30 51 -36 7 -6 24 -20
38 -31 55 -43 83 -71 90 -92 7 -23 33 -33 89 -33 33 0 40 4 52 33 12 29 129
149 200 206 49 39 163 87 275 116 102 26 181 67 224 114 10 11 21 48 27 86 9
63 8 71 -16 111 -14 23 -36 51 -49 62 -26 20 -103 46 -168 57 -35 5 -38 9 -38
39 0 52 12 126 20 126 4 0 46 -11 93 -25z m-113 -240 c5 3 30 0 55 -6 52 -13
105 -61 105 -95 0 -41 -99 -103 -172 -109 -28 -3 -37 8 -18 20 6 4 10 34 9 68
-2 87 2 144 8 129 2 -6 9 -10 13 -7z m955 -3015 c11 -4 60 -26 108 -49 48 -22
92 -41 97 -41 4 0 35 -13 67 -29 32 -15 69 -33 83 -38 22 -9 17 -11 -40 -18
-36 -4 -58 -9 -50 -11 8 -1 32 -5 52 -9 28 -4 42 -13 53 -34 13 -27 12 -32
-19 -92 -63 -121 -69 -130 -91 -124 -45 13 -64 15 -145 20 -47 2 -98 8 -115
13 -16 4 -62 8 -101 7 -60 -1 -75 -5 -97 -26 -15 -13 -44 -33 -64 -44 -21 -11
-40 -22 -43 -26 -12 -14 -40 -17 -56 -5 -14 10 -16 21 -10 56 4 23 13 55 21
71 8 15 15 38 15 51 0 26 11 44 95 154 151 200 160 206 240 174z m-903 -135
c13 -8 57 -83 112 -192 6 -13 14 -23 19 -23 4 0 7 -4 7 -10 0 -12 62 -109 87
-135 11 -11 20 -24 21 -28 1 -4 17 -27 37 -51 19 -24 35 -49 35 -56 0 -7 8
-22 17 -32 9 -10 18 -31 19 -46 l2 -28 -74 8 c-74 8 -163 42 -244 93 -31 19
-47 22 -111 20 -83 -4 -147 -24 -263 -84 -67 -34 -89 -41 -145 -42 -78 -2
-161 10 -161 22 0 5 -15 9 -32 9 -18 0 -39 4 -47 9 -22 14 -14 93 15 158 13
31 22 58 20 61 -3 2 0 9 5 16 5 6 26 36 47 66 50 73 124 123 172 116 29 -5 58
6 175 64 123 62 229 101 260 96 6 -1 17 -6 27 -11z m468 -163 c0 -2 -4 -11 -9
-20 -5 -9 -11 -31 -14 -49 -3 -17 -8 -37 -12 -42 -10 -16 -17 -53 -16 -80 2
-38 -20 -43 -49 -13 -30 33 -120 158 -120 168 0 4 -8 16 -17 27 -17 18 -15 19
110 15 70 -1 127 -4 127 -6z m405 -217 c17 -3 64 -7 105 -11 41 -3 91 -7 110
-9 19 -2 39 -4 44 -4 4 -1 1 -12 -8 -26 -9 -14 -14 -25 -11 -25 4 0 -3 -12
-14 -26 -12 -15 -21 -30 -21 -35 0 -4 -20 -42 -45 -84 -68 -115 -116 -214
-113 -233 3 -14 -10 -18 -82 -24 -47 -4 -109 -5 -137 -2 -29 3 -53 1 -53 -3 0
-4 -94 -7 -210 -6 -197 2 -302 6 -480 19 -91 7 -241 7 -628 0 l-293 -5 -10 26
c-16 42 -7 56 47 84 28 14 64 35 81 47 17 12 32 19 35 17 14 -14 410 -26 426
-13 6 6 12 7 12 3 0 -3 16 3 35 15 19 12 35 19 35 16 0 -4 18 5 39 20 22 14
45 23 50 19 6 -3 11 -1 11 5 0 15 47 32 100 35 35 2 61 -6 121 -36 120 -60
193 -81 299 -86 85 -4 98 -3 121 16 25 19 43 64 31 76 -3 3 -7 15 -9 26 -2 12
-11 34 -20 50 -9 16 -14 31 -10 35 3 4 35 8 69 10 81 5 150 28 218 73 69 45
80 50 105 45 11 -2 34 -6 50 -9z"/>
<path d="M10559 10220 c-27 -10 -57 -24 -67 -32 -9 -8 -27 -24 -40 -34 -13
-10 -37 -40 -54 -66 -16 -27 -33 -48 -37 -48 -4 0 -8 -10 -8 -22 -1 -13 -7
-24 -13 -26 -5 -2 -8 -8 -4 -13 3 -5 1 -24 -5 -42 -18 -58 -20 -100 -6 -134
19 -44 74 -103 98 -103 11 0 15 -4 11 -12 -5 -8 -2 -9 9 -5 10 4 17 1 17 -5 0
-6 3 -9 6 -5 3 3 24 -1 46 -9 53 -18 84 -18 147 3 113 36 179 162 177 338 -2
106 -31 161 -107 199 -29 14 -56 23 -60 20 -5 -3 -9 -1 -9 3 0 14 -49 10 -101
-7z"/>
<path d="M7635 10724 c-101 -30 -226 -94 -241 -123 -7 -13 -9 -31 -7 -42 4
-15 9 -17 24 -8 11 5 23 8 28 5 4 -3 30 9 57 26 27 18 54 33 59 35 6 1 47 14
93 27 71 22 96 25 185 21 56 -2 125 -9 152 -14 28 -5 66 -12 85 -16 19 -3 50
-8 68 -11 18 -4 32 -2 32 4 0 5 12 7 27 4 l27 -5 -17 27 c-10 14 -15 31 -12
37 4 5 3 9 -2 8 -4 -1 -15 0 -23 4 -8 3 -33 9 -55 13 -22 4 -44 8 -50 9 -56
13 -99 17 -215 20 -119 3 -144 0 -215 -21z"/>
<path d="M7913 10067 c-29 -12 -62 -30 -73 -39 -11 -10 -20 -16 -20 -13 0 3
-14 -10 -31 -28 -44 -46 -67 -96 -81 -177 -16 -93 5 -184 52 -230 28 -28 108
-84 120 -85 3 0 23 -9 45 -19 45 -22 105 -22 147 0 32 17 78 61 78 75 0 5 6
12 14 15 11 4 21 30 26 69 1 3 8 24 16 47 8 24 17 65 19 93 5 55 -13 157 -26
149 -5 -3 -6 2 -3 10 4 10 1 16 -7 16 -7 0 -10 3 -6 6 5 6 -33 53 -76 94 -15
15 -100 41 -130 40 -7 -1 -36 -11 -64 -23z"/>
<path d="M9316 9198 c-25 -9 -27 -14 -22 -41 8 -40 26 -58 83 -87 27 -13 50
-26 53 -29 3 -3 35 -21 71 -39 37 -18 70 -40 73 -50 3 -9 8 -22 11 -28 9 -19
-76 -52 -149 -57 -73 -6 -97 -22 -68 -44 12 -8 13 -12 4 -13 -28 0 0 -19 41
-26 52 -9 106 -6 132 9 11 6 22 12 25 12 3 0 24 9 47 20 48 21 63 50 56 111
-7 68 -50 115 -148 162 -39 19 -77 38 -85 43 -8 5 -25 13 -37 19 -12 5 -28 18
-35 30 -14 22 -13 22 -52 8z"/>
<path d="M8245 8350 c3 -5 1 -11 -5 -15 -5 -3 -10 -1 -10 4 0 20 -19 11 -26
-11 -20 -63 -3 -103 81 -189 110 -113 261 -191 368 -190 9 0 17 -4 17 -8 0 -8
3 -9 180 -14 125 -4 144 -1 136 19 -3 8 -1 14 4 14 5 0 7 7 4 15 -4 8 -1 15 5
15 18 0 -10 26 -29 28 -8 1 -55 1 -103 2 -100 0 -239 22 -307 47 -116 43 -268
178 -279 249 -4 25 -12 38 -24 40 -9 1 -15 -2 -12 -6z"/>
<path d="M9648 7853 c-10 -2 -18 -9 -18 -15 0 -5 7 -7 16 -4 9 3 22 6 30 6 8
0 14 5 14 10 0 10 -12 11 -42 3z"/>
<path d="M9590 7830 c-8 -5 -10 -10 -5 -10 6 0 17 5 25 10 8 5 11 10 5 10 -5
0 -17 -5 -25 -10z"/>
<path d="M14910 5556 c-25 -7 -63 -21 -85 -31 -48 -24 -123 -97 -131 -131 -3
-13 -10 -24 -15 -24 -15 0 -10 -26 9 -43 10 -10 25 -17 33 -17 8 0 19 -8 26
-19 13 -21 47 -20 138 4 53 13 115 50 115 67 0 5 13 26 29 46 42 53 61 104 47
124 -8 11 -105 42 -119 37 -1 0 -22 -6 -47 -13z m60 -94 c0 -24 -65 -71 -111
-81 -84 -18 -99 -12 -58 23 49 41 169 83 169 58z"/>
<path d="M14825 5230 c-89 -20 -111 -23 -140 -20 -16 3 -73 4 -125 4 -97 0
-166 -18 -276 -74 -21 -11 -44 -20 -51 -20 -7 0 -13 -4 -13 -8 0 -5 -18 -16
-41 -26 -22 -10 -43 -24 -46 -32 -3 -8 -10 -14 -16 -14 -15 0 -147 -140 -147
-156 0 -8 -4 -14 -8 -14 -4 0 -17 -24 -27 -52 -27 -73 -32 -309 -8 -353 9 -17
22 -42 30 -57 7 -14 44 -55 82 -90 79 -76 155 -110 295 -134 80 -14 100 -14
213 1 115 15 195 38 268 78 11 6 23 10 28 9 4 -1 7 1 7 6 0 4 25 20 55 37 30
16 55 33 55 37 0 4 4 8 10 8 19 0 137 126 165 175 21 38 26 58 22 87 -3 24 -1
38 6 38 21 0 -12 24 -56 40 -33 12 -47 24 -64 60 -36 69 -31 106 19 152 23 21
48 38 56 38 8 0 12 6 9 14 -3 8 3 32 13 53 11 21 20 31 20 23 0 -12 3 -11 11
3 6 9 7 27 3 40 -5 12 -7 25 -6 30 1 4 -3 7 -8 7 -6 0 -24 16 -41 35 -17 19
-40 37 -52 40 -12 4 -35 13 -52 20 -40 18 -141 26 -190 15z m175 -106 c52 -17
69 -29 93 -66 22 -36 22 -40 -7 -36 -52 7 -147 -88 -157 -157 -5 -37 12 -134
27 -146 8 -6 14 -17 14 -23 0 -18 47 -59 72 -63 12 -2 24 -5 26 -8 10 -10 -40
-86 -85 -128 -26 -25 -63 -59 -80 -76 -18 -17 -44 -33 -58 -37 -14 -3 -25 -10
-25 -14 0 -4 -19 -16 -42 -25 -24 -9 -54 -22 -68 -28 -44 -19 -232 -45 -300
-41 -80 4 -113 11 -165 34 -22 9 -58 25 -80 35 -45 19 -106 79 -135 131 -30
52 -29 230 2 305 33 83 70 129 161 203 38 31 119 78 157 91 3 1 21 9 41 18 78
35 153 43 256 27 67 -11 88 -11 110 0 64 29 164 31 243 4z"/>
<path d="M8572 5758 c-7 -7 -12 -9 -12 -5 0 3 -16 -5 -36 -18 -20 -14 -46 -25
-58 -26 -12 0 -33 -8 -47 -17 -15 -9 -50 -30 -78 -47 -28 -16 -51 -33 -51 -37
0 -5 -6 -8 -14 -8 -7 0 -36 -24 -63 -53 -54 -57 -76 -113 -52 -128 8 -5 10 -9
6 -9 -4 0 1 -9 12 -21 30 -33 123 -49 173 -30 13 5 28 10 33 11 6 2 26 13 45
25 l36 23 -2 -32 c-1 -17 -6 -60 -10 -96 -4 -36 -9 -76 -10 -90 -1 -14 -3 -25
-4 -25 -1 0 -4 -11 -5 -25 -2 -14 -11 -65 -20 -115 -9 -49 -19 -105 -22 -122
-3 -18 -10 -33 -15 -33 -5 0 -6 -9 -3 -20 4 -13 2 -20 -6 -20 -8 0 -7 -6 4
-18 17 -19 57 -27 57 -11 0 5 6 9 13 9 14 0 32 47 42 112 3 20 12 67 18 103
l12 66 44 -67 c44 -67 92 -117 160 -165 37 -26 45 -27 71 -16 16 8 25 67 11
67 -5 0 -40 30 -78 68 -81 79 -125 158 -151 268 -31 131 -3 181 58 104 35 -44
75 -65 142 -75 40 -6 47 -4 87 32 l44 39 1 85 c2 193 -72 287 -249 315 -22 3
-47 8 -55 10 -9 2 -21 -1 -28 -8z m98 -109 c110 -25 126 -45 141 -179 4 -28
-1 -65 -10 -79 -8 -12 -16 -13 -49 -3 -57 17 -87 58 -107 144 -9 40 -23 83
-31 95 -24 38 -19 39 56 22z m-226 -71 c-19 -64 -65 -121 -99 -126 -45 -5 -76
-5 -82 2 -15 15 144 142 180 145 5 1 5 -9 1 -21z m126 -109 c0 -6 -4 -7 -10
-4 -5 3 -10 11 -10 16 0 6 5 7 10 4 6 -3 10 -11 10 -16z"/>
<path d="M9259 5128 c-19 -10 -47 -40 -62 -66 -47 -79 -96 -156 -111 -174 -8
-9 -13 -18 -10 -20 2 -2 -14 -34 -36 -71 -21 -37 -41 -76 -45 -87 -3 -11 -11
-20 -17 -20 -6 0 -9 -3 -5 -6 3 -4 0 -19 -8 -35 -8 -15 -15 -39 -15 -53 0 -34
30 -96 47 -96 7 0 13 -5 13 -11 0 -5 4 -8 9 -4 5 3 12 1 15 -4 9 -14 89 -23
222 -26 67 -2 131 -8 142 -14 17 -9 27 -8 47 5 21 14 31 15 51 5 20 -9 30 -8
47 4 12 8 29 15 37 15 31 0 60 39 60 80 0 21 -4 41 -9 44 -4 3 -11 23 -15 45
-3 21 -19 68 -34 102 -16 35 -30 67 -31 71 -8 32 -71 168 -81 178 -3 3 -23 31
-44 63 -59 90 -105 111 -167 75z"/>
<path d="M8376 2832 c-3 -6 -1 -14 5 -17 14 -9 20 -2 10 14 -6 8 -11 9 -15 3z"/>
<path d="M11436 16637 c-34 -39 -36 -45 -37 -117 -1 -180 -4 -216 -15 -227 -7
-7 -30 -15 -53 -18 -60 -7 -65 -9 -78 -25 -10 -12 -12 -13 -13 -1 0 11 -5 10
-20 -4 -11 -10 -20 -14 -20 -9 0 5 -5 1 -11 -9 -6 -9 -15 -14 -21 -11 -6 4 -8
2 -4 -4 3 -6 1 -14 -4 -17 -6 -4 -10 -17 -8 -28 1 -12 -1 -28 -5 -34 -6 -9 -2
-13 10 -14 10 0 13 -3 6 -6 -25 -10 -12 -31 27 -47 43 -17 90 -21 90 -8 0 5 7
9 15 10 8 1 22 3 31 4 9 1 20 12 25 26 6 15 15 22 24 18 8 -3 15 0 15 6 0 24
24 -11 27 -39 9 -89 14 -118 23 -128 6 -7 11 -24 12 -38 3 -40 50 -102 77
-102 12 0 31 -11 41 -25 16 -21 20 -22 35 -10 9 7 13 20 10 29 -4 9 3 22 17
32 17 14 20 20 10 31 -6 8 -14 32 -18 54 -3 21 -10 44 -16 51 -5 6 -10 32 -11
56 -1 25 -4 44 -7 42 -3 -2 -6 14 -5 36 0 29 4 39 17 39 9 0 18 5 20 11 2 6
19 13 38 15 44 4 88 11 120 19 14 4 32 8 40 9 9 1 22 6 30 11 8 5 15 4 17 -2
3 -8 12 -7 30 2 15 8 30 12 35 9 4 -3 8 -1 8 4 0 6 9 8 20 5 11 -3 20 -1 20 5
0 6 18 13 41 17 40 7 45 12 51 50 2 14 -3 20 -17 20 -16 0 -19 6 -17 32 3 29
0 32 -33 39 -22 4 -41 2 -49 -5 -10 -8 -16 -9 -21 -1 -3 6 -10 8 -14 6 -4 -3
-25 -7 -46 -10 -22 -3 -51 -8 -65 -12 -27 -7 -84 -14 -137 -16 -18 -1 -33 -5
-33 -9 0 -5 -7 -6 -15 -3 -8 4 -15 1 -15 -5 0 -6 -6 -11 -14 -11 -25 0 -42 64
-24 88 7 7 7 12 1 12 -6 0 -10 41 -11 96 -1 105 -9 124 -62 143 -26 8 -31 6
-64 -32z m171 -473 c-3 -3 -12 -4 -19 -1 -8 3 -5 6 6 6 11 1 17 -2 13 -5z"/>
<path d="M11525 15790 c3 -5 8 -10 11 -10 2 0 4 5 4 10 0 6 -5 10 -11 10 -5 0
-7 -4 -4 -10z"/>
<path d="M3071 14107 c-13 -6 -31 -23 -40 -37 -12 -18 -13 -22 -2 -16 11 7 12
6 5 -5 -8 -14 -7 -146 2 -161 12 -19 -20 -47 -76 -64 -42 -14 -60 -24 -60 -36
0 -10 -12 -24 -27 -32 -24 -12 -26 -15 -10 -21 9 -4 17 -14 17 -21 0 -8 8 -18
18 -21 9 -4 20 -11 23 -16 6 -8 93 9 142 28 13 6 17 2 17 -18 0 -14 5 -29 10
-32 6 -3 10 -16 10 -28 0 -12 7 -35 15 -51 8 -15 15 -35 15 -43 0 -23 27 -44
62 -46 29 -2 33 1 49 48 11 32 14 52 7 56 -5 3 -8 8 -7 10 2 2 -5 35 -15 72
-11 39 -15 72 -10 76 5 5 37 18 72 29 74 25 123 67 111 97 -4 11 -8 16 -9 10
0 -5 -5 -2 -11 8 -6 9 -14 15 -20 12 -5 -4 -9 -1 -9 5 0 6 -4 8 -10 5 -5 -3
-10 1 -10 9 0 20 10 21 -85 -9 -43 -13 -81 -22 -84 -19 -15 15 -19 113 -5 139
8 15 9 25 3 25 -6 0 -3 7 5 16 21 20 11 36 -19 28 -12 -3 -26 -1 -29 5 -9 14
-15 14 -45 -2z"/>
<path d="M13230 13059 c0 -4 -9 -5 -19 -2 -20 5 -38 -27 -26 -47 3 -5 2 -10
-2 -10 -5 0 -9 -47 -8 -104 l0 -104 -35 -11 c-19 -5 -47 -9 -62 -7 -16 2 -36
-3 -45 -10 -10 -7 -25 -14 -33 -14 -8 0 -21 -9 -27 -20 -11 -17 -10 -21 8 -30
14 -8 17 -15 11 -23 -12 -15 -2 -40 18 -47 14 -4 90 -3 150 3 22 2 25 -2 32
-53 19 -134 30 -176 50 -189 17 -10 20 -9 25 8 5 21 33 30 33 11 0 -5 7 -10
16 -10 8 0 13 4 10 9 -4 5 -1 11 5 13 12 4 16 139 6 205 -2 18 -1 30 3 28 5
-3 10 -1 12 4 1 6 34 13 73 17 38 3 78 10 90 14 11 4 25 5 31 3 6 -2 17 3 24
12 7 8 19 15 26 15 8 0 14 3 15 8 5 49 3 62 -9 62 -12 0 -12 3 -2 15 7 9 10
18 6 22 -5 5 -130 8 -146 3 -3 -1 -33 -3 -67 -5 -49 -3 -63 -1 -68 12 -3 9 0
20 7 25 8 5 9 8 2 8 -8 0 -11 21 -10 60 0 33 -2 61 -6 63 -4 1 -9 11 -11 22
-1 11 -6 25 -10 31 -8 13 -67 25 -67 13z"/>
<path d="M16250 12536 c0 -8 -12 -21 -27 -28 -15 -7 -29 -21 -31 -31 -2 -9
-17 -32 -34 -49 -16 -18 -37 -41 -46 -51 -9 -10 -22 -15 -29 -13 -7 3 -13 -2
-13 -11 0 -9 -3 -13 -7 -10 -3 4 -12 2 -20 -4 -7 -6 -13 -8 -13 -3 0 5 -7 -2
-16 -14 -8 -12 -22 -22 -30 -22 -8 0 -14 -5 -14 -11 0 -5 -5 -7 -12 -3 -6 4
-8 3 -5 -3 3 -5 -3 -17 -13 -26 -13 -11 -20 -12 -24 -4 -2 7 -5 4 -5 -5 -1
-10 -8 -18 -16 -18 -7 0 -18 -7 -23 -16 -7 -12 -11 -13 -17 -5 -5 9 -11 6 -22
-8 -8 -12 -19 -21 -24 -21 -6 0 -18 -9 -27 -20 -10 -10 -23 -20 -30 -22 -8 -2
-30 -18 -50 -35 -19 -18 -38 -31 -40 -28 -2 2 -11 -3 -19 -11 -8 -8 -18 -12
-23 -9 -4 3 -15 -6 -24 -20 -9 -14 -23 -25 -30 -25 -8 0 -17 -7 -20 -16 -4 -9
-13 -14 -21 -10 -9 3 -15 0 -15 -10 0 -9 -5 -14 -12 -12 -14 5 -48 -22 -48
-38 0 -7 -12 -15 -26 -18 -20 -5 -25 -12 -21 -26 3 -11 2 -20 -2 -20 -4 0 -7
-19 -6 -42 1 -24 -2 -50 -6 -59 -11 -22 0 -33 46 -47 47 -14 85 -13 78 4 -3 7
4 10 20 7 14 -3 28 0 31 6 4 6 16 11 27 11 10 0 19 4 19 9 0 5 8 11 18 14 26
9 104 56 186 114 55 39 73 47 69 32 -3 -10 -10 -16 -16 -12 -6 4 -8 -2 -5 -15
6 -23 -13 -47 -27 -34 -5 4 -5 -1 -2 -11 4 -11 1 -20 -8 -23 -8 -4 -15 -12
-15 -20 0 -8 -9 -23 -20 -34 -11 -11 -20 -29 -20 -39 0 -10 -7 -22 -16 -25 -8
-3 -13 -10 -10 -14 3 -5 -4 -15 -15 -22 -11 -9 -19 -26 -19 -45 0 -21 -8 -36
-25 -49 -13 -10 -22 -23 -19 -27 3 -5 -5 -26 -18 -47 -12 -20 -22 -41 -20 -45
1 -4 -4 -10 -12 -13 -9 -3 -12 -12 -9 -21 4 -11 2 -14 -5 -9 -8 5 -12 0 -12
-12 0 -11 -6 -25 -14 -32 -8 -6 -13 -17 -10 -25 3 -7 -5 -22 -17 -33 -12 -12
-19 -27 -16 -36 4 -10 -2 -20 -14 -27 -12 -6 -18 -17 -15 -25 3 -7 -1 -17 -8
-21 -15 -9 -46 -66 -46 -84 0 -6 -8 -18 -17 -26 -13 -9 -14 -13 -3 -11 8 2 14
-2 15 -9 0 -6 3 -15 8 -19 17 -17 5 -23 -17 -9 -23 15 -25 15 -33 -2 -12 -26
-10 -48 7 -69 15 -18 14 -18 -12 -1 -28 17 -28 17 -28 -8 0 -14 -7 -28 -15
-31 -12 -5 -13 -9 -4 -20 10 -12 8 -13 -6 -8 -13 5 -16 4 -11 -4 4 -7 3 -12
-3 -12 -6 0 -13 -16 -17 -35 -4 -22 -12 -35 -21 -35 -10 0 -14 -7 -10 -20 3
-11 2 -18 -3 -15 -4 2 -10 -9 -14 -26 -4 -20 -10 -28 -18 -23 -8 5 -9 2 -5
-10 4 -10 1 -19 -8 -22 -8 -4 -15 -16 -15 -28 0 -12 -7 -31 -15 -42 -8 -10
-15 -27 -15 -37 0 -9 -6 -16 -12 -15 -8 2 -12 -6 -10 -21 2 -13 -1 -21 -6 -17
-10 6 -27 -21 -24 -36 1 -5 -7 -17 -17 -27 -13 -13 -18 -27 -14 -42 5 -17 3
-21 -9 -16 -18 6 -42 -37 -32 -56 4 -7 4 -9 -1 -5 -11 10 -38 -29 -30 -42 3
-6 -1 -10 -11 -10 -11 0 -15 -6 -11 -20 3 -13 -2 -25 -16 -35 -12 -9 -23 -20
-23 -25 -1 -6 -2 -17 -3 -25 0 -9 -12 -20 -26 -25 -16 -6 -24 -16 -22 -29 1
-11 -2 -20 -7 -20 -14 1 -26 -24 -20 -42 2 -9 -2 -19 -11 -23 -8 -3 -15 -13
-15 -23 0 -15 -2 -16 -10 -3 -8 13 -10 12 -10 -2 0 -10 5 -18 10 -18 6 0 10
-4 10 -9 0 -6 -9 -8 -20 -6 -14 3 -20 -2 -20 -16 0 -10 -6 -18 -12 -17 -7 2
-13 -6 -13 -17 -1 -11 -6 -19 -13 -17 -7 1 -12 -7 -12 -18 0 -11 -6 -19 -12
-18 -7 2 -13 -6 -13 -17 0 -25 -14 -47 -25 -40 -4 3 -11 -11 -14 -30 -5 -22
-13 -35 -23 -35 -9 0 -13 -6 -10 -14 4 -10 0 -12 -14 -9 -15 4 -19 0 -19 -21
0 -18 -4 -24 -15 -20 -10 4 -15 0 -15 -15 0 -12 -5 -21 -10 -21 -6 0 -9 -6 -8
-12 2 -7 -3 -12 -11 -10 -9 2 -12 -4 -8 -18 4 -16 2 -20 -9 -16 -9 4 -14 -1
-14 -15 0 -15 -5 -19 -18 -15 -13 4 -21 -2 -29 -24 -6 -17 -17 -30 -25 -30
-10 0 -10 2 -1 8 14 9 6 52 -9 52 -6 0 -5 6 2 15 7 8 10 25 6 40 -4 14 -2 25
4 25 6 0 6 9 0 26 -6 14 -7 30 -4 36 3 5 8 46 10 91 9 184 11 214 17 224 4 6
9 82 11 169 3 88 8 168 11 180 4 13 0 25 -9 33 -9 8 -16 22 -16 32 0 11 -10
21 -25 25 -20 5 -23 10 -18 34 4 23 -1 34 -22 55 -16 14 -30 23 -33 20 -3 -3
-11 0 -17 5 -13 11 -45 3 -45 -10 0 -5 -9 -6 -20 -3 -11 3 -26 1 -33 -5 -6 -5
-28 -15 -48 -21 -20 -6 -44 -19 -55 -29 -10 -9 -26 -17 -34 -17 -8 0 -15 -7
-14 -15 0 -8 -10 -25 -23 -38 -14 -14 -23 -18 -24 -10 0 7 -4 3 -10 -10 -5
-13 -14 -20 -20 -16 -8 4 -9 0 -4 -15 5 -18 2 -21 -20 -21 -21 0 -25 -4 -20
-19 4 -14 0 -20 -17 -25 -13 -3 -24 -1 -26 4 -2 5 -10 3 -18 -4 -20 -20 -18
-31 3 -15 15 13 15 12 3 -8 -8 -12 -22 -24 -32 -26 -10 -3 -18 -13 -18 -22 0
-13 -3 -15 -13 -7 -10 9 -16 1 -26 -33 -7 -25 -17 -42 -22 -39 -5 3 -12 -2
-15 -10 -8 -21 -24 -20 -25 2 0 9 -7 -2 -16 -26 -8 -23 -19 -40 -24 -37 -5 4
-6 -1 -3 -10 8 -19 -44 -78 -59 -68 -6 3 -7 1 -3 -5 4 -7 4 -17 0 -23 -4 -8
-9 -7 -15 2 -6 10 -9 5 -9 -16 0 -24 -2 -27 -11 -15 -8 12 -9 9 -5 -12 5 -22
3 -26 -9 -22 -10 4 -18 -4 -26 -23 -6 -15 -15 -35 -20 -43 -16 -26 -33 -75
-31 -84 2 -5 -5 -3 -14 5 -15 12 -16 12 -10 -9 6 -18 4 -21 -10 -15 -12 4 -15
3 -10 -5 4 -7 -4 -24 -19 -39 -14 -16 -23 -34 -20 -41 5 -15 -21 -59 -33 -54
-4 1 -8 -2 -8 -8 -1 -5 -2 -14 -3 -20 0 -5 -8 -10 -16 -10 -9 0 -12 -6 -8 -17
5 -12 3 -14 -7 -8 -10 6 -12 4 -7 -8 4 -10 2 -16 -5 -14 -7 1 -13 -8 -14 -19
-2 -27 -13 -46 -24 -39 -5 3 -13 -10 -20 -29 -6 -19 -22 -46 -35 -60 -15 -16
-22 -33 -18 -43 5 -13 2 -15 -11 -10 -12 5 -16 3 -13 -5 6 -18 -12 -50 -24
-43 -5 4 -9 -1 -9 -10 0 -9 -4 -14 -10 -10 -5 3 -13 -9 -18 -27 -4 -18 -15
-33 -23 -33 -8 0 -14 -7 -15 -15 -3 -49 -4 -52 -20 -46 -12 5 -15 2 -12 -12 5
-18 -15 -45 -26 -35 -3 4 -6 -2 -6 -13 0 -11 -9 -27 -20 -37 -11 -9 -20 -28
-20 -41 0 -13 -7 -27 -16 -30 -8 -3 -12 -10 -9 -16 3 -5 -1 -10 -9 -10 -10 0
-13 -6 -10 -15 4 -9 0 -15 -9 -15 -8 0 -21 -14 -29 -30 -7 -16 -17 -30 -21
-30 -5 0 -6 -3 -3 -8 7 -11 -39 -83 -48 -74 -4 4 -6 -2 -4 -13 2 -12 -2 -19
-10 -17 -7 1 -15 -11 -18 -28 -4 -16 -10 -27 -15 -24 -5 3 -9 2 -10 -3 -4 -50
-13 -71 -38 -95 -17 -16 -34 -40 -37 -53 -4 -15 -11 -22 -18 -18 -6 3 -8 3 -5
-1 4 -4 -8 -37 -27 -72 -37 -71 -41 -103 -18 -149 8 -16 12 -22 9 -12 -3 10
-1 15 5 12 6 -3 10 -14 10 -24 0 -9 6 -26 14 -37 13 -16 18 -17 35 -6 12 6 26
12 33 12 7 0 19 9 26 20 7 12 17 18 22 15 6 -3 10 -1 10 5 0 6 4 9 9 6 12 -8
21 30 10 41 -7 7 41 81 94 143 7 8 38 51 69 95 32 44 64 87 71 95 7 8 29 37
48 65 19 27 39 56 46 65 32 41 179 244 189 261 6 11 22 32 35 47 13 15 46 56
72 92 27 36 55 74 64 84 8 10 27 37 42 60 14 23 39 58 56 78 16 21 38 52 50
71 11 19 58 90 104 158 47 68 102 151 124 184 22 33 56 76 76 95 21 19 40 43
44 53 3 9 13 17 22 17 8 0 15 5 15 11 0 10 37 49 46 49 3 0 -4 -113 -12 -170
-3 -25 -5 -54 -5 -65 0 -11 0 -38 -1 -60 0 -22 0 -49 0 -60 1 -11 1 -36 1 -55
-2 -101 -3 -179 -1 -215 1 -22 2 -74 1 -115 0 -47 5 -88 15 -110 8 -19 15 -29
16 -21 0 11 3 11 15 1 21 -18 19 -33 -4 -25 -23 7 -39 -14 -20 -25 7 -5 16 -7
20 -4 4 2 10 -5 14 -15 11 -36 63 -71 104 -71 21 0 41 3 45 8 4 4 22 7 39 7
25 0 31 4 29 18 -2 9 1 17 7 17 5 0 17 3 25 6 12 5 15 2 10 -10 -9 -24 22 -20
48 6 13 13 22 27 20 31 -1 5 2 6 6 3 5 -3 17 3 27 14 10 11 23 20 29 20 5 0
22 11 36 25 14 13 53 50 87 81 35 31 61 59 59 63 -2 3 8 15 21 26 79 63 211
224 205 251 -2 8 4 14 13 14 8 0 15 9 15 20 0 12 7 20 16 20 9 0 14 5 12 12
-2 6 11 27 29 46 19 19 31 37 28 40 -3 3 8 19 24 36 15 17 35 43 42 57 14 25
93 148 130 201 40 58 189 333 189 350 0 10 4 18 9 18 6 0 39 58 75 129 36 71
85 168 111 215 25 47 42 86 38 86 -4 0 -3 4 4 8 6 4 37 57 69 117 31 61 72
138 91 173 19 34 32 62 30 62 -3 0 17 42 45 93 48 88 70 131 89 169 5 10 9 25
9 33 0 9 7 18 15 21 16 6 75 103 75 123 0 7 8 20 18 31 19 20 40 61 132 255
81 170 107 219 118 223 5 1 8 -20 7 -48 -1 -28 2 -53 7 -56 5 -3 5 -10 1 -17
-9 -15 -11 -227 -1 -227 4 0 8 -7 8 -15 0 -8 -4 -15 -10 -15 -5 0 -7 -15 -4
-32 3 -18 5 -37 4 -43 -6 -48 -4 -185 2 -185 13 0 9 -38 -4 -44 -10 -3 -8 -8
4 -16 11 -7 17 -22 16 -45 -1 -19 5 -41 12 -50 16 -20 46 -19 54 1 5 13 9 14
21 4 8 -7 13 -16 10 -20 -3 -5 -1 -11 5 -15 6 -4 10 4 10 19 0 23 3 25 41 23
41 -2 42 -1 55 43 9 31 12 82 9 170 -6 151 -7 163 -20 172 -6 5 -5 8 3 8 9 0
11 26 10 105 -2 58 -5 105 -8 105 -4 0 -6 33 -7 73 0 109 -13 217 -32 267 -5
14 -12 42 -16 63 -3 21 -12 40 -20 43 -8 3 -12 11 -9 19 8 19 -67 40 -143 39
-18 0 -30 3 -28 7 3 4 -7 10 -22 14 -17 4 -29 2 -31 -4 -2 -6 -14 -8 -28 -5
-16 4 -24 2 -24 -6 0 -9 -3 -10 -13 -1 -8 6 -17 8 -20 4 -4 -3 -7 -1 -7 5 0 7
-4 12 -10 12 -5 0 -10 -7 -10 -14z"/>
<path d="M3048 7260 c-7 -11 -19 -20 -26 -20 -8 0 -10 -5 -6 -12 5 -8 2 -9 -9
-5 -10 4 -17 1 -18 -6 0 -7 -1 -57 -2 -112 -2 -55 -6 -106 -10 -112 -4 -7 -3
-21 3 -32 8 -16 6 -21 -10 -26 -24 -8 -71 -17 -87 -18 -7 0 -13 -4 -13 -9 0
-4 -9 -8 -20 -8 -11 0 -20 -4 -20 -10 0 -5 -7 -10 -15 -10 -16 0 -35 -30 -35
-54 0 -10 6 -13 18 -10 14 5 14 3 -3 -11 -19 -16 -19 -16 -1 -13 14 2 21 -4
26 -22 6 -26 26 -29 119 -19 38 5 35 14 46 -161 4 -76 9 -98 26 -116 11 -12
19 -28 17 -35 -2 -8 5 -14 16 -14 10 0 22 -10 27 -21 8 -24 35 -38 44 -23 4 5
10 7 15 4 4 -3 11 7 14 20 4 17 13 25 23 23 18 -3 38 48 23 57 -5 3 -7 12 -3
20 3 8 2 23 -3 33 -11 25 -11 35 -2 55 5 9 6 23 2 29 -9 14 -10 146 -2 154 3
2 32 9 64 15 86 15 194 51 194 65 0 6 13 17 29 23 22 10 27 17 23 37 -2 13 -9
24 -15 24 -8 0 -7 4 0 11 27 27 -61 58 -107 38 -3 -1 -9 -3 -15 -4 -5 -2 -12
-4 -15 -5 -11 -4 -37 -8 -100 -14 l-66 -7 -2 83 c-3 146 -5 168 -15 168 -6 0
-7 3 -4 7 9 9 -23 43 -40 43 -8 0 -11 5 -8 10 4 6 -5 10 -19 10 -15 0 -31 -8
-38 -20z"/>
<path d="M4088 6629 c-10 -5 -18 -16 -18 -24 0 -7 -5 -15 -12 -17 -6 -2 -13
-29 -15 -59 -6 -105 -6 -104 -33 -105 -14 0 -31 -3 -38 -8 -6 -4 -12 -4 -12 0
0 3 -7 1 -15 -6 -8 -7 -15 -9 -15 -4 0 5 -5 2 -10 -6 -5 -8 -14 -15 -19 -15
-19 0 -50 -52 -47 -79 4 -32 37 -61 48 -43 5 8 8 6 8 -5 0 -15 7 -17 56 -12
31 4 63 7 72 8 10 1 20 -13 27 -39 7 -22 24 -52 38 -67 15 -15 27 -32 27 -38
0 -6 8 -10 18 -8 9 2 17 9 17 16 0 7 5 16 10 20 25 18 35 54 29 102 -4 28 -3
51 2 51 5 1 18 3 29 4 12 1 31 7 43 14 12 6 22 9 22 5 0 -4 11 6 25 22 30 34
30 40 8 49 -17 6 -17 7 1 21 15 10 17 18 10 35 -8 16 -21 22 -59 25 -26 2 -53
-1 -60 -6 -25 -20 -40 8 -43 84 -3 62 -7 74 -19 69 -9 -4 -20 1 -25 10 -10 19
-25 21 -50 6z"/>
</g>
</svg>
